<svg width="50" height="50" viewBox="0 0 50 50" fill="none" xmlns="http://www.w3.org/2000/svg">
<g clip-path="url(#clip0_1455_1479)">
<path d="M25 50C38.8071 50 50 38.8071 50 25C50 11.1929 38.8071 0 25 0C11.1929 0 0 11.1929 0 25C0 38.8071 11.1929 50 25 50Z" fill="#334C8C"/>
<path d="M31.3358 22.6349L30.9214 26.1151C30.9035 26.2768 30.8263 26.4261 30.7048 26.5342C30.5833 26.6424 30.4261 26.7016 30.2635 26.7007H26.645V37.0296C26.6459 37.1529 26.598 37.2716 26.5117 37.3597C26.4255 37.4478 26.3078 37.4983 26.1845 37.5H22.497C22.4357 37.4991 22.3751 37.4862 22.3188 37.4619C22.2624 37.4377 22.2114 37.4025 22.1686 37.3585C22.1259 37.3146 22.0922 37.2626 22.0695 37.2056C22.0468 37.1486 22.0356 37.0877 22.0365 37.0263L22.0562 26.7007H19.3161C19.1416 26.7007 18.9743 26.6313 18.8509 26.508C18.7275 26.3846 18.6582 26.2172 18.6582 26.0428V22.5625C18.6582 22.388 18.7275 22.2207 18.8509 22.0973C18.9743 21.9739 19.1416 21.9046 19.3161 21.9046H22.0398V18.5296C22.0398 14.625 24.3622 12.5 27.7635 12.5H30.5497C30.7241 12.5 30.8915 12.5693 31.0149 12.6927C31.1382 12.8161 31.2075 12.9834 31.2075 13.1579V16.0888C31.2075 16.2633 31.1382 16.4306 31.0149 16.554C30.8915 16.6774 30.7241 16.7467 30.5497 16.7467H28.8424C26.9937 16.7763 26.645 17.6612 26.645 18.9836V21.8947H30.6944C30.7868 21.8963 30.8778 21.9173 30.9615 21.9564C31.0452 21.9955 31.1198 22.0518 31.1803 22.1217C31.2408 22.1915 31.2859 22.2733 31.3127 22.3617C31.3395 22.4501 31.3474 22.5432 31.3358 22.6349Z" fill="white"/>
</g>
<defs>
<clipPath id="clip0_1455_1479">
<rect width="50" height="50" fill="white"/>
</clipPath>
</defs>
</svg>
