<svg width="50" height="50" viewBox="0 0 50 50" fill="none" xmlns="http://www.w3.org/2000/svg">
<g clip-path="url(#clip0_1455_1493)">
<path d="M25 50C38.8071 50 50 38.8071 50 25C50 11.1929 38.8071 0 25 0C11.1929 0 0 11.1929 0 25C0 38.8071 11.1929 50 25 50Z" fill="url(#paint0_linear_1455_1493)"/>
<path d="M30.3119 11.1094H19.7008C14.9675 11.1094 11.123 14.9538 11.123 19.6872V30.2983C11.123 35.0316 14.9675 38.876 19.7008 38.876H30.3119C35.0453 38.876 38.8897 35.0316 38.8897 30.2983V19.6872C38.8897 14.9538 35.0453 11.1094 30.3119 11.1094ZM35.7897 30.3094C35.7897 33.3316 33.3342 35.7983 30.3008 35.7983H19.6897C16.6675 35.7983 14.2008 33.3427 14.2008 30.3094V19.6983C14.2008 16.676 16.6564 14.2094 19.6897 14.2094H30.3008C33.323 14.2094 35.7897 16.6649 35.7897 19.6983V30.3094Z" fill="white"/>
<path d="M25.0004 17.8984C21.0893 17.8984 17.9004 21.0873 17.9004 24.9984C17.9004 28.9095 21.0893 32.0984 25.0004 32.0984C28.9115 32.0984 32.1004 28.9095 32.1004 24.9984C32.1004 21.0873 28.9115 17.8984 25.0004 17.8984ZM25.0004 29.3095C22.6226 29.3095 20.6893 27.3762 20.6893 24.9984C20.6893 22.6207 22.6226 20.6873 25.0004 20.6873C27.3782 20.6873 29.3115 22.6207 29.3115 24.9984C29.3115 27.3762 27.3782 29.3095 25.0004 29.3095Z" fill="white"/>
<path d="M32.6407 18.6768C33.2948 18.5708 33.7391 17.9545 33.6331 17.3004C33.527 16.6463 32.9108 16.202 32.2567 16.308C31.6025 16.414 31.1582 17.0303 31.2643 17.6844C31.3703 18.3385 31.9865 18.7828 32.6407 18.6768Z" fill="white"/>
</g>
<defs>
<linearGradient id="paint0_linear_1455_1493" x1="5.96433" y1="44.0357" x2="41.4921" y2="8.50789" gradientUnits="userSpaceOnUse">
<stop stop-color="#FEE411"/>
<stop offset="0.0518459" stop-color="#FEDB16"/>
<stop offset="0.1381" stop-color="#FEC125"/>
<stop offset="0.2481" stop-color="#FE983D"/>
<stop offset="0.3762" stop-color="#FE5F5E"/>
<stop offset="0.5" stop-color="#FE2181"/>
<stop offset="1" stop-color="#9000DC"/>
</linearGradient>
<clipPath id="clip0_1455_1493">
<rect width="50" height="50" fill="white"/>
</clipPath>
</defs>
</svg>
