<svg width="50" height="50" viewBox="0 0 50 50" fill="none" xmlns="http://www.w3.org/2000/svg">
<g clip-path="url(#clip0_1455_1470)">
<path d="M25 50C38.8071 50 50 38.8071 50 25C50 11.1929 38.8071 0 25 0C11.1929 0 0 11.1929 0 25C0 38.8071 11.1929 50 25 50Z" fill="#0B69C7"/>
<path d="M19.4071 15.9112C19.4077 16.5868 19.2079 17.2474 18.833 17.8094C18.4581 18.3714 17.9248 18.8096 17.3008 19.0684C16.6767 19.3272 15.9899 19.3951 15.3273 19.2635C14.6646 19.1319 14.0559 18.8066 13.5782 18.3289C13.1005 17.8512 12.7752 17.2424 12.6436 16.5798C12.5119 15.9171 12.5798 15.2303 12.8387 14.6063C13.0975 13.9822 13.5357 13.449 14.0977 13.0741C14.6597 12.6991 15.3203 12.4994 15.9959 12.5C16.9003 12.5009 17.7675 12.8605 18.407 13.5001C19.0465 14.1396 19.4062 15.0068 19.4071 15.9112Z" fill="white"/>
<path d="M17.793 20.7461H14.2009C13.734 20.7461 13.3555 21.1246 13.3555 21.5915V36.654C13.3555 37.1209 13.734 37.4994 14.2009 37.4994H17.793C18.2599 37.4994 18.6384 37.1209 18.6384 36.654V21.5915C18.6384 21.1246 18.2599 20.7461 17.793 20.7461Z" fill="white"/>
<path d="M37.417 29.4309V36.7237C37.417 36.9296 37.3352 37.127 37.1896 37.2726C37.044 37.4182 36.8465 37.5 36.6406 37.5H32.7854C32.5795 37.5 32.382 37.4182 32.2364 37.2726C32.0908 37.127 32.0091 36.9296 32.0091 36.7237V29.6579C32.0091 28.602 32.315 25.0526 29.2525 25.0526C26.8775 25.0526 26.3939 27.4934 26.2919 28.5888V36.7401C26.2877 36.942 26.2049 37.1343 26.0612 37.2762C25.9175 37.418 25.7241 37.4983 25.5222 37.5H21.7919C21.6899 37.5004 21.5887 37.4807 21.4944 37.4418C21.4 37.4029 21.3142 37.3458 21.242 37.2736C21.1699 37.2014 21.1127 37.1157 21.0738 37.0213C21.035 36.9269 21.0152 36.8258 21.0156 36.7237V21.5263C21.0152 21.4241 21.035 21.3228 21.0738 21.2282C21.1126 21.1337 21.1697 21.0477 21.2418 20.9753C21.314 20.9028 21.3997 20.8453 21.4941 20.8061C21.5885 20.7669 21.6897 20.7467 21.7919 20.7467H25.5222C25.6257 20.745 25.7285 20.7638 25.8246 20.8022C25.9207 20.8406 26.0082 20.8978 26.082 20.9703C26.1558 21.0429 26.2144 21.1295 26.2544 21.2249C26.2944 21.3204 26.315 21.4228 26.315 21.5263V22.8421C27.1966 21.5263 28.5058 20.5 31.2919 20.5C37.4531 20.4967 37.417 26.2632 37.417 29.4309Z" fill="white"/>
</g>
<defs>
<clipPath id="clip0_1455_1470">
<rect width="50" height="50" fill="white"/>
</clipPath>
</defs>
</svg>
