<?xml version="1.0" standalone="no"?>
<!DOCTYPE svg PUBLIC "-//W3C//DTD SVG 1.1//EN" "http://www.w3.org/Graphics/SVG/1.1/DTD/svg11.dtd" >
<svg xmlns="http://www.w3.org/2000/svg">
<metadata>Generated by IcoMoon</metadata>
<defs>
<font id="icomoon" horiz-adv-x="1024">
<font-face units-per-em="1024" ascent="960" descent="-64" />
<missing-glyph horiz-adv-x="1024" />
<glyph unicode="&#x20;" horiz-adv-x="512" d="" />
<glyph unicode="&#xe900;" glyph-name="add" d="M876.088 402.575h-728.177c-24.88 0-45.511 20.634-45.511 45.514s20.632 45.511 45.511 45.511h728.177c24.878 0 45.512-20.632 45.512-45.511s-20.634-45.514-45.512-45.514zM512.010 38.4c-24.879 0-45.51 20.634-45.51 45.512v728.177c0 24.88 20.632 45.511 45.51 45.511s45.512-20.632 45.512-45.511v-728.177c0-24.878-20.634-45.512-45.512-45.512z" />
<glyph unicode="&#xe901;" glyph-name="arrow_left" d="M864 416h-704c-17.6 0-32 14.4-32 32s14.4 32 32 32h704c17.6 0 32-14.4 32-32s-14.4-32-32-32zM448 127.998c-8.2 0-16.4 3.2-22.6 9.4l-288 288c-12.4 12.4-12.4 32.8 0 45.2l288 288c12.4 12.4 32.8 12.4 45.2 0s12.4-32.8 0-45.2l-265.4-265.4 265.4-265.4c12.4-12.4 12.4-32.8 0-45.2-6.2-6.2-14.4-9.4-22.6-9.4z" />
<glyph unicode="&#xe902;" glyph-name="arrow_right" d="M576 127.998c-8.2 0-16.4 3.2-22.6 9.4-12.4 12.4-12.4 32.8 0 45.2l233.4 233.4h-626.8c-17.6 0-32 14.4-32 32s14.4 32 32 32h626.8l-233.4 233.4c-12.4 12.4-12.4 32.8 0 45.2s32.8 12.4 45.2 0l288-288c3-3 5.4-6.6 7-10.4 1.6-3.6 2.4-7.6 2.4-11.8 0-0.2 0-0.2 0-0.4s0-0.2 0-0.4c0-4.2-1-8.2-2.4-11.8-1.6-3.8-3.8-7.4-7-10.4l-288-288c-6.2-6.2-14.4-9.4-22.6-9.4z" />
<glyph unicode="&#xe903;" glyph-name="calender" d="M384 906.6c17.673 0 32-14.327 32-32v-53.786c28.554 0.452 60.281 0.452 95.528 0.452h0.943c35.246 0 66.975 0 95.529-0.452v53.786c0 17.673 14.326 32 32 32s32-14.327 32-32v-56.046c64.507-4.044 114.068-14.497 154.87-44.142 20.828-15.132 39.142-33.448 54.277-54.276 24.996-34.403 36.188-74.697 41.574-124.426 5.279-48.731 5.279-110.154 5.279-188.512v-2.422c0-49.49 0-92.037-1.254-128.604-2.739-79.933-11.387-138.685-45.599-185.774-15.135-20.828-33.449-39.148-54.277-54.277-47.089-34.212-105.841-42.865-185.774-45.604-36.577-1.249-79.135-1.249-128.635-1.249h-2.393c-78.358 0-139.781 0-188.512 5.279-49.73 5.386-90.023 16.579-124.426 41.574-20.828 15.13-39.143 33.449-54.276 54.277-24.995 34.401-36.188 74.696-41.575 124.426-5.28 48.727-5.28 110.152-5.279 188.513v3.86c-0.001 78.358-0.001 139.781 5.279 188.512 5.388 49.73 16.58 90.023 41.575 124.426 15.132 20.828 33.448 39.143 54.276 54.276 40.803 29.645 90.361 40.097 154.87 44.142v56.046c0 17.673 14.327 32 32 32zM352 754.397c-58.114-3.997-91.658-13.167-117.252-31.762-15.394-11.185-28.932-24.722-40.117-40.117-15.748-21.675-24.927-49.418-29.725-93.702-4.862-44.883-4.906-102.843-4.906-183.548 0-80.707 0.044-138.67 4.906-183.552 4.798-44.283 13.978-72.028 29.725-93.701 11.185-15.396 24.722-28.933 40.117-40.115 21.674-15.749 49.417-24.929 93.702-29.727 44.883-4.864 102.843-4.905 183.55-4.905 36.198 0 67.917 0 96.077 0.461 0.189 20.25 0.819 35.159 2.944 48.584 16.625 104.975 98.959 187.305 203.935 203.935 13.425 2.125 28.329 2.755 48.584 2.939 0.461 28.165 0.461 59.884 0.461 96.082 0 80.705-0.046 138.665-4.905 183.548-4.797 44.284-13.978 72.027-29.727 93.702-11.182 15.394-24.724 28.932-40.115 40.117-25.595 18.595-59.141 27.765-117.253 31.762v-7.797c0-17.673-14.326-32-32-32s-32 14.327-32 32v10.207c-28.145 0.458-59.837 0.46-96 0.46s-67.857-0.002-96-0.46v-10.207c0-17.673-14.327-32-32-32s-32 14.327-32 32v7.797zM861.123 245.146c-17.28-0.2-27.407-0.727-36.157-2.109-77.588-12.293-138.445-73.144-150.733-150.738-1.388-8.745-1.915-18.877-2.115-36.152 58.040 3.999 91.556 13.169 117.135 31.754 15.391 11.182 28.933 24.719 40.115 40.115 18.58 25.574 27.756 59.090 31.754 117.13zM341.334 575.933c0-23.564-19.103-42.667-42.667-42.667s-42.666 19.103-42.666 42.667c0 23.564 19.103 42.666 42.666 42.666s42.667-19.102 42.667-42.666zM341.334 405.268c0-23.567-19.103-42.67-42.667-42.67s-42.666 19.103-42.666 42.67c0 23.562 19.103 42.665 42.666 42.665s42.667-19.103 42.667-42.665zM554.665 575.933c0-23.564-19.103-42.667-42.665-42.667-23.564 0-42.666 19.103-42.666 42.667s19.102 42.666 42.666 42.666c23.562 0 42.665-19.102 42.665-42.666zM554.665 405.268c0-23.567-19.103-42.67-42.665-42.67-23.564 0-42.666 19.103-42.666 42.67 0 23.562 19.102 42.665 42.666 42.665 23.562 0 42.665-19.103 42.665-42.665zM554.665 234.598c0-23.562-19.103-42.665-42.665-42.665-23.564 0-42.666 19.103-42.666 42.665 0 23.567 19.102 42.67 42.666 42.67 23.562 0 42.665-19.103 42.665-42.67zM768 575.933c0-23.564-19.103-42.667-42.665-42.667-23.567 0-42.67 19.103-42.67 42.667s19.103 42.666 42.67 42.666c23.562 0 42.665-19.102 42.665-42.666zM768 405.268c0-23.567-19.103-42.67-42.665-42.67-23.567 0-42.67 19.103-42.67 42.67 0 23.562 19.103 42.665 42.67 42.665 23.562 0 42.665-19.103 42.665-42.665zM341.334 234.598c0-23.562-19.103-42.665-42.667-42.665s-42.666 19.103-42.666 42.665c0 23.567 19.103 42.67 42.666 42.67s42.667-19.103 42.667-42.67z" />
<glyph unicode="&#xe904;" glyph-name="promotion_paln" d="M53.3 645.266v74.667c0 31.104 12.373 60.97 34.346 82.986 22.025 21.982 51.869 34.334 82.986 34.346h96v-85.333c0-8.487 3.372-16.626 9.373-22.627s14.14-9.373 22.627-9.373c8.487 0 16.626 3.372 22.627 9.373s9.373 14.14 9.373 22.627v85.333h362.666v-85.333c0-8.487 3.374-16.626 9.375-22.627s14.141-9.373 22.625-9.373c8.489 0 16.625 3.372 22.63 9.373 6.001 6.001 9.37 14.14 9.37 22.627v85.333h96c31.104 0 60.969-12.373 82.985-34.346 21.975-22.016 34.35-51.882 34.35-82.986v-74.667h-917.334zM970.634 581.266v-458.668c0-31.104-12.375-60.969-34.35-82.985-22.021-21.98-51.866-34.335-82.985-34.345h-682.666c-31.104 0-60.97 12.37-82.986 34.345-21.982 22.026-34.334 51.871-34.346 82.985v458.668h917.334zM309.897 163.389l49.408-60.928c5.422-6.333 13.102-10.301 21.405-11.059s16.573 1.756 23.051 7.004c6.477 5.253 10.651 12.82 11.632 21.1s-1.309 16.614-6.381 23.235l-31.872 39.337 117.632 32.727c4.637-6.497 11.533-11.023 19.337-12.692 7.798-1.674 15.944-0.374 22.835 3.651s12.032 10.476 14.413 18.089c2.381 7.619 1.828 15.846-1.546 23.081l-108.159 232.019c-3.336 7.288-9.286 13.058-16.671 16.17s-15.671 3.339-23.217 0.636c-7.545-2.703-13.802-8.139-17.532-15.233s-4.663-15.33-2.612-23.078l-177.152-121.602c-10.414-7.137-17.956-17.746-21.284-29.926s-2.227-25.144 3.108-36.588l38.826-83.287c11.008-23.593 37.504-35.799 62.634-28.841l22.144 6.185zM639.964 261.268h170.67c8.484 0 16.625 3.369 22.625 9.37s9.375 14.141 9.375 22.63c0 8.484-3.374 16.625-9.375 22.625s-14.141 9.375-22.625 9.375h-170.67c-8.484 0-16.625-3.374-22.625-9.375s-9.375-14.141-9.375-22.625c0-8.489 3.374-16.63 9.375-22.63s14.141-9.37 22.625-9.37zM639.964 389.268h106.67c8.484 0 16.625 3.369 22.625 9.37s9.375 14.141 9.375 22.63c0 8.484-3.374 16.625-9.375 22.625-6.001 6.002-14.141 9.373-22.625 9.373h-106.67c-8.484 0-16.625-3.371-22.625-9.373-6.001-6.001-9.375-14.141-9.375-22.625 0-8.489 3.374-16.63 9.375-22.63s14.141-9.37 22.625-9.37zM266.633 837.266v21.334c0 8.487 3.372 16.626 9.373 22.627s14.14 9.373 22.627 9.373c8.487 0 16.626-3.372 22.627-9.373s9.373-14.14 9.373-22.627v-21.334h-64zM693.299 837.266v21.334c0 8.487 3.374 16.626 9.375 22.627s14.141 9.373 22.625 9.373c8.489 0 16.625-3.372 22.63-9.373 6.001-6.001 9.37-14.14 9.37-22.627v-21.334h-64z" />
<glyph unicode="&#xe905;" glyph-name="calender3" d="M250.204 716.42h14.65c22.264 0 40.312 18.054 40.312 40.312v152.853c0 22.258-18.048 40.31-40.312 40.31h-14.65c-22.262 0-40.309-18.052-40.309-40.31v-152.853c0-22.258 18.048-40.312 40.309-40.312zM767.262 717.473h14.649c22.264 0 40.308 18.052 40.308 40.312v152.856c0 22.256-18.044 40.307-40.308 40.307h-14.649c-22.269 0-40.313-18.052-40.313-40.307v-152.854c0.005-22.262 18.049-40.314 40.313-40.314zM958.469 868h-103.462v-120.8c0-40.297-32.779-62.523-73.070-62.523h-14.654c-40.297 0-73.076 32.784-73.076 73.081v110.242h-356.247v-111.241c0-40.297-32.782-73.081-73.079-73.081h-14.65c-40.295 0-73.076 32.784-73.076 73.081v111.241h-111.621c-36.135 0-65.534-29.399-65.534-65.537v-791.895c0-36.136 29.399-65.536 65.534-65.536h892.935c36.131 0 65.531 29.4 65.531 65.536v791.895c0.005 36.135-29.4 65.537-65.531 65.537zM958.469 10.569h-892.933l-0.002 598.019h892.946l0.032-598.019c0 0-0.016 0-0.043 0zM545.814 407.951h117.674c4.662 0 8.445 3.783 8.445 8.445v101.894c0 4.665-3.783 8.446-8.445 8.446h-117.674c-4.662 0-8.445-3.782-8.445-8.446v-101.894c0-4.662 3.783-8.445 8.445-8.445zM737.921 407.951h117.668c4.667 0 8.445 3.783 8.445 8.445v101.894c0 4.665-3.778 8.446-8.445 8.446h-117.668c-4.667 0-8.445-3.782-8.445-8.446v-101.894c0-4.662 3.778-8.445 8.445-8.445zM161.815 241.211h117.668c4.665 0 8.446 3.783 8.446 8.445v101.899c0 4.662-3.782 8.445-8.446 8.445h-117.668c-4.665 0-8.446-3.783-8.446-8.445v-101.899c0-4.662 3.782-8.445 8.446-8.445zM353.815 241.211h117.668c4.665 0 8.446 3.783 8.446 8.445v101.899c0 4.662-3.782 8.445-8.446 8.445h-117.668c-4.665 0-8.446-3.783-8.446-8.445v-101.899c0-4.662 3.782-8.445 8.446-8.445zM545.814 241.211h117.668c4.667 0 8.445 3.783 8.445 8.445v101.899c0 4.662-3.778 8.445-8.445 8.445h-117.668c-4.662 0-8.445-3.783-8.445-8.445v-101.899c0-4.662 3.783-8.445 8.445-8.445zM737.921 241.211h117.668c4.667 0 8.445 3.783 8.445 8.445v101.899c0 4.662-3.778 8.445-8.445 8.445h-117.668c-4.667 0-8.445-3.783-8.445-8.445v-101.899c0-4.662 3.778-8.445 8.445-8.445zM279.481 193.261h-117.666c-4.665 0-8.446-3.778-8.446-8.445v-101.893c0-4.667 3.782-8.445 8.446-8.445h117.668c4.665 0 8.446 3.778 8.446 8.445v101.893c-0.002 4.667-3.784 8.445-8.449 8.445zM471.483 193.261h-117.668c-4.665 0-8.446-3.778-8.446-8.445v-101.893c0-4.667 3.782-8.445 8.446-8.445h117.668c4.665 0 8.446 3.778 8.446 8.445v101.893c0 4.667-3.782 8.445-8.446 8.445zM663.487 193.261h-117.674c-4.662 0-8.445-3.778-8.445-8.445v-101.893c0-4.667 3.783-8.445 8.445-8.445h117.674c4.662 0 8.445 3.778 8.445 8.445v101.893c0 4.667-3.783 8.445-8.445 8.445zM855.59 193.261h-117.668c-4.667 0-8.445-3.778-8.445-8.445v-101.893c0-4.667 3.778-8.445 8.445-8.445h117.668c4.667 0 8.445 3.778 8.445 8.445v101.893c0 4.667-3.778 8.445-8.445 8.445z" />
<glyph unicode="&#xe906;" glyph-name="complaint_management" d="M550.502 265.789c-10.46-20.234-17.178-42.184-19.84-64.804-74.371 0.492-145.556 30.244-198.158 82.816s-82.388 123.745-82.916 198.113c22.663 2.783 44.656 9.554 64.96 20l-197.104 197.088c-15.947-13.292-27.908-30.735-34.56-50.4-49.904-166.208 0.8-351.136 132-482.321 46.056-47.094 100.94-84.659 161.515-110.541s125.656-39.578 191.527-40.305c60.093 2.959 136.796 4.096 179.825 53.12-13.44 13.501-190.387 190.239-197.248 197.233zM744.228 290.109c-23.086 22.815-54.18 35.707-86.646 35.917-32.461 0.21-63.718-12.278-87.096-34.801l199.967-199.951c23.537 23.168 54.994 49.715 52.797 86.241 0.051 10.578-2.007 21.059-6.042 30.833-4.040 9.774-9.979 18.652-17.475 26.112l-55.506 55.649zM369.572 572.459c6.685 21.361 7.339 44.153 1.89 65.862s-16.79 41.49-32.77 57.162l-55.52 55.52c-15.127 15.056-35.601 23.509-56.944 23.509s-41.817-8.453-56.944-23.509l-29.28-29.44 199.808-199.808c13.954 14.192 24.178 31.601 29.76 50.704zM892.037 812.907c-138.097 139.312-380.417 49.44-395.137-146.080-4.418-55.469 11.319-110.67 44.32-155.472-7.869-10.724-17.761-19.802-29.117-26.72-3.889-0.050-7.625-1.512-10.511-4.115s-4.728-6.167-5.178-10.028c-0.451-3.86 0.519-7.753 2.729-10.951s5.508-5.482 9.278-6.426c28.478-7.137 58.502-4.893 85.602 6.4 42.988-30.597 95.13-45.609 147.804-42.557 198.513 10.911 291.492 256.222 150.211 395.95zM819.395 579.979c2.867-3.015 4.439-7.030 4.388-11.189s-1.725-8.133-4.664-11.076c-2.944-2.942-6.917-4.619-11.075-4.675s-8.177 1.516-11.192 4.379l-68.639 68.64-68.782-68.64c-1.464-1.519-3.215-2.727-5.151-3.552-1.94-0.825-4.024-1.251-6.134-1.251-2.104 0-4.188 0.425-6.129 1.251-1.935 0.825-3.692 2.033-5.151 3.552-1.48 1.48-2.657 3.238-3.461 5.174s-1.219 4.010-1.219 6.106c0 2.096 0.415 4.171 1.219 6.106s1.981 3.694 3.461 5.174l68.803 68.64-68.803 68.784c-2.99 2.992-4.669 7.049-4.669 11.28s1.679 8.288 4.669 11.28c2.995 2.992 7.050 4.673 11.279 4.673 4.234 0 8.289-1.681 11.284-4.673l68.797-68.8 68.623 68.8c2.99 2.992 7.050 4.673 11.279 4.673 4.234 0 8.289-1.681 11.279-4.673 2.995-2.992 4.675-7.049 4.675-11.28s-1.679-8.288-4.675-11.28l-68.639-68.8 68.623-68.624z" />
<glyph unicode="&#xe907;" glyph-name="camera" d="M512 543.963c-76.584 0-138.667-62.083-138.667-138.667s62.083-138.667 138.667-138.667c76.584 0 138.667 62.083 138.667 138.667s-62.083 138.667-138.667 138.667zM667.739 864.344c-88.818 78.949-222.66 78.949-311.478 0l-9.205-8.183c-25.267-22.458-57.896-34.864-91.699-34.864-111.575 0-202.024-90.449-202.024-202.025v-215.905c0-78.359-0.001-139.782 5.279-188.516 5.388-49.729 16.58-90.021 41.576-124.425 15.132-20.827 33.448-39.145 54.275-54.275 34.403-24.997 74.697-36.19 124.426-41.577 48.731-5.279 110.151-5.279 188.51-5.279h89.199c78.356 0 139.782 0 188.513 5.279 49.729 5.387 90.024 16.58 124.425 41.577 20.83 15.13 39.145 33.448 54.278 54.275 24.994 34.404 36.187 74.695 41.574 124.425 5.279 48.731 5.279 110.154 5.279 188.51v215.91c0 111.576-90.45 202.025-202.024 202.025-33.803 0-66.432 12.405-91.699 34.864l-9.205 8.183zM309.333 405.296c0 111.932 90.738 202.667 202.667 202.667s202.667-90.735 202.667-202.667c0-111.929-90.738-202.667-202.667-202.667s-202.667 90.738-202.667 202.667zM768 575.963c-23.563 0-42.667 19.1-42.667 42.667 0 23.563 19.103 42.667 42.667 42.667s42.667-19.103 42.667-42.667c0-23.566-19.103-42.667-42.667-42.667z" />
<glyph unicode="&#xe908;" glyph-name="offline_shops" d="M693.366 661.266c0-8.487-3.369-16.626-9.37-22.627s-14.141-9.373-22.63-9.373c-8.484 0-16.625 3.372-22.625 9.373s-9.375 14.14-9.375 22.627v64c0 31.119-12.36 60.963-34.365 82.968s-51.85 34.366-82.964 34.366c-31.121 0-60.965-12.362-82.97-34.366s-34.366-51.849-34.366-82.968v-64c0-8.487-3.371-16.626-9.372-22.627s-14.141-9.373-22.628-9.373c-8.487 0-16.626 3.372-22.627 9.373s-9.373 14.14-9.373 22.627v64c0 48.093 19.105 94.216 53.111 128.222s80.13 53.111 128.225 53.111c48.092 0 94.213-19.105 128.22-53.111s53.11-80.13 53.11-128.222v-64zM825.262 603.6l34.135-511.998c0.855-13.112-0.983-26.266-5.407-38.636-4.429-12.375-11.341-23.711-20.316-33.306s-19.825-17.249-31.877-22.492c-12.052-5.238-25.047-7.951-38.19-7.967h-503.209c-13.145 0.005-26.147 2.708-38.204 7.941-12.057 5.238-22.911 12.892-31.89 22.492-8.979 9.595-15.892 20.936-20.312 33.316s-6.25 25.533-5.381 38.651l34.134 511.998c1.624 24.299 12.421 47.072 30.206 63.709s41.228 25.891 65.581 25.891h434.947c24.351 0 47.795-9.255 65.577-25.891 17.787-16.636 28.585-39.41 30.208-63.709zM618.071 504.272c-9.539-20.051-24.566-36.988-43.341-48.846-18.77-11.859-40.525-18.152-62.725-18.152-22.207 0-43.958 6.292-62.731 18.152-18.774 11.858-33.801 28.795-43.341 48.846-1.804 3.796-4.338 7.2-7.458 10.016s-6.763 4.991-10.723 6.4c-3.96 1.409-8.159 2.023-12.356 1.809s-8.312-1.253-12.108-3.057c-3.796-1.804-7.2-4.338-10.016-7.458s-4.991-6.764-6.4-10.723c-1.409-3.96-2.023-8.159-1.809-12.356s1.253-8.312 3.057-12.108c14.695-31.027 37.898-57.247 66.91-75.612 29.011-18.36 62.64-28.104 96.975-28.104 34.33 0 67.958 9.743 96.968 28.104 29.015 18.365 52.219 44.585 66.913 75.612 1.802 3.796 2.842 7.91 3.057 12.108s-0.399 8.396-1.807 12.356c-1.408 3.96-3.584 7.604-6.4 10.723s-6.221 5.654-10.020 7.458c-3.794 1.804-7.91 2.843-12.104 3.057-4.198 0.215-8.397-0.4-12.36-1.809-3.958-1.409-7.603-3.583-10.721-6.4s-5.652-6.22-7.46-10.016z" />
<glyph unicode="&#xe909;" glyph-name="shop_category" d="M102.3 703.988c0 47.716 0 71.574 7.795 90.394 10.394 25.093 30.33 45.029 55.423 55.423 18.82 7.795 42.678 7.795 90.394 7.795s71.575 0 90.394-7.795c25.093-10.394 45.029-30.33 55.423-55.423 7.795-18.82 7.795-42.678 7.795-90.394s0-71.575-7.795-90.394c-10.394-25.093-30.33-45.029-55.423-55.423-18.82-7.796-42.678-7.796-90.394-7.796s-71.575 0-90.394 7.796c-25.093 10.394-45.029 30.33-55.423 55.423-7.795 18.82-7.795 42.678-7.795 90.394zM614.344 703.988c0 47.716 0 71.574 7.793 90.394 10.394 25.093 30.331 45.029 55.424 55.423 18.821 7.795 42.675 7.795 90.394 7.795s71.572 0 90.394-7.795c25.093-10.394 45.030-30.33 55.424-55.423 7.793-18.82 7.793-42.678 7.793-90.394s0-71.575-7.793-90.394c-10.394-25.093-30.331-45.029-55.424-55.423-18.821-7.796-42.675-7.796-90.394-7.796s-71.572 0-90.394 7.796c-25.093 10.394-45.030 30.33-55.424 55.423-7.793 18.82-7.793 42.678-7.793 90.394zM102.3 191.944c0 47.718 0 71.578 7.795 90.399 10.394 25.088 30.33 45.025 55.423 55.419 18.82 7.798 42.678 7.798 90.394 7.798s71.575 0 90.394-7.798c25.093-10.394 45.029-30.331 55.423-55.419 7.795-18.821 7.795-42.68 7.795-90.399 0-47.713 0-71.572-7.795-90.394-10.394-25.093-30.33-45.025-55.423-55.419-18.82-7.798-42.678-7.798-90.394-7.798s-71.575 0-90.394 7.798c-25.093 10.394-45.029 30.326-55.423 55.419-7.795 18.821-7.795 42.68-7.795 90.394zM614.344 191.944c0 47.718 0 71.578 7.793 90.399 10.394 25.088 30.331 45.025 55.424 55.419 18.821 7.798 42.675 7.798 90.394 7.798s71.572 0 90.394-7.798c25.093-10.394 45.030-30.331 55.424-55.419 7.793-18.821 7.793-42.68 7.793-90.399 0-47.713 0-71.572-7.793-90.394-10.394-25.093-30.331-45.025-55.424-55.419-18.821-7.798-42.675-7.798-90.394-7.798s-71.572 0-90.394 7.798c-25.093 10.394-45.030 30.326-55.424 55.419-7.793 18.821-7.793 42.68-7.793 90.394z" />
<glyph unicode="&#xe90a;" glyph-name="chair" d="M743.014 455.45v466.23c0 21.129-17.195 38.32-38.323 38.32h-385.329c-21.129 0-38.32-17.191-38.32-38.32v-466.23h461.973zM811.136 321.331v53.222c0 21.129-17.19 38.319-38.319 38.319h-521.58c-21.129 0-38.32-17.19-38.32-38.319v-53.222c0-21.129 17.191-38.319 38.32-38.319h521.58c21.129 0 38.319 17.19 38.319 38.319zM266.139 240.431v-283.14c0-11.759 9.531-21.291 21.289-21.291s21.289 9.532 21.289 21.291v283.14h-42.578zM715.337 240.431v-283.14c0-11.759 9.532-21.291 21.291-21.291 11.755 0 21.286 9.532 21.286 21.291v283.14h-42.577z" />
<glyph unicode="&#xe90b;" glyph-name="close" d="M833.2 724c12.4 12.4 12.4 32.8 0 45.2s-32.8 12.4-45.2 0l-276-276-276 276c-12.4 12.4-32.8 12.4-45.2 0s-12.4-32.8 0-45.2l276-276-276-276c-12.4-12.4-12.4-32.8 0-45.2s32.8-12.4 45.2 0l276 276 276-276c12.4-12.4 32.8-12.4 45.2 0s12.4 32.8 0 45.2l-276 276 276 276zM810.6 103.2c-12.4 0-24 4.8-32.6 13.6l-266 266-266-266c-8.8-8.8-20.4-13.6-32.6-13.6s-24.001 4.8-32.601 13.6c-8.8 8.8-13.6 20.4-13.6 32.6 0 12.4 4.8 24 13.6 32.6l266.001 266-266.001 266c-18 18-18 47.4 0 65.4s47.401 18 65.401 0l266-266 266 266c8.8 8.8 20.4 13.6 32.6 13.6 12.4 0 24-4.8 32.6-13.6 18-18 18-47.4 0-65.4l-266-266 266-266c8.8-8.8 13.6-20.4 13.6-32.6 0-12.4-4.8-24-13.6-32.6-8.8-8.8-20.4-13.6-32.8-13.6zM512 422.8l286-286c3.4-3.4 7.8-5.2 12.6-5.2s9.2 1.8 12.6 5.2c3.4 3.4 5.2 7.8 5.2 12.6s-1.8 9.2-5.2 12.6l-286 286 286 286c7 7 7 18.2 0 25.2-3.4 3.4-7.8 5.2-12.6 5.2s-9.2-1.8-12.6-5.2l-286-286-286 286c-7 7-18.2 7-25.2 0s-7.001-18.2 0-25.2l286-286-286-286c-3.401-3.4-5.201-7.8-5.201-12.6s1.8-9.2 5.201-12.6c3.4-3.4 7.8-5.2 12.6-5.2s9.2 1.8 12.6 5.2l286 286z" />
<glyph unicode="&#xe90c;" glyph-name="copy_outline" d="M640 906.667h-173.056c-78.421 0-140.544 0-189.141-6.528-50.005-6.741-90.496-20.907-122.453-52.821-31.915-31.957-46.080-72.448-52.821-122.453-6.528-48.64-6.528-110.72-6.528-189.141v-258.389c0.001-38.118 13.608-74.987 38.372-103.966s59.058-48.171 96.711-54.114c5.845-32.597 17.152-60.416 39.765-83.072 25.685-25.685 58.027-36.693 96.427-41.899 36.992-4.949 84.053-4.949 142.379-4.949h132.693c58.325 0 105.387 0 142.379 4.949 38.4 5.205 70.741 16.213 96.427 41.899s36.693 58.027 41.899 96.427c4.949 36.992 4.949 84.053 4.949 142.379v218.027c0 58.325 0 105.387-4.949 142.379-5.205 38.4-16.213 70.741-41.899 96.427-22.656 22.613-50.475 33.92-83.072 39.765-5.943 37.653-25.135 71.947-54.114 96.711s-65.847 38.371-103.966 38.372zM730.88 777.771c-6.49 18.944-18.739 35.385-35.034 47.022s-35.823 17.887-55.846 17.874h-170.667c-81.365 0-139.136-0.085-183.040-5.973-42.88-5.76-67.627-16.597-85.675-34.645s-28.885-42.795-34.645-85.717c-5.888-43.861-5.973-101.632-5.973-182.997v-256c-0.012-20.023 6.237-39.552 17.874-55.846s28.078-28.544 47.022-35.034c-0.896 26.027-0.896 55.467-0.896 88.533v218.027c0 58.325 0 105.387 4.992 142.379 5.12 38.4 16.213 70.741 41.856 96.427 25.685 25.685 58.027 36.693 96.427 41.856 36.992 4.992 84.053 4.992 142.379 4.992h132.693c33.067 0 62.507 0 88.533-0.896zM316.075 686.507c11.819 11.819 28.373 19.499 59.733 23.723 32.171 4.309 74.923 4.395 136.149 4.395h128c61.227 0 103.936-0.085 136.192-4.395 31.317-4.224 47.872-11.947 59.691-23.723 11.819-11.819 19.499-28.373 23.723-59.733 4.309-32.171 4.395-74.923 4.395-136.149v-213.333c0-61.227-0.085-103.936-4.395-136.192-4.224-31.317-11.947-47.872-23.723-59.691-11.819-11.819-28.373-19.499-59.733-23.723-32.213-4.309-74.923-4.395-136.149-4.395h-128c-61.227 0-103.979 0.085-136.192 4.395-31.317 4.224-47.872 11.947-59.691 23.723-11.819 11.819-19.499 28.373-23.723 59.733-4.309 32.213-4.395 74.923-4.395 136.149v213.333c0 61.227 0.085 103.979 4.395 136.192 4.224 31.317 11.947 47.872 23.723 59.691z" />
<glyph unicode="&#xe90d;" glyph-name="dashboard" d="M855.030 668.843l-245.76 171.946c-66.985 46.934-169.811 44.374-234.236-5.546l-213.76-166.826c-42.666-33.28-76.374-101.547-76.374-155.304v-294.401c0-108.8 88.32-197.545 197.12-197.545h459.945c108.8 0 197.12 88.32 197.12 197.12v289.279c0 57.598-37.12 128.424-84.055 161.278zM543.99 191.831c0-17.495-14.505-32-31.997-32-17.494 0-32 14.505-32 32v128c0 17.495 14.506 32 32 32 17.492 0 31.997-14.505 31.997-32v-128z" />
<glyph unicode="&#xe90e;" glyph-name="big_screen" d="M827.075 566.192c-21.658 0-39.383-17.723-39.383-39.385v-452.921c0-32.497-26.583-59.080-59.075-59.080h-590.771c-32.493 0-59.077 26.583-59.077 59.080v590.767c0 32.493 26.585 59.077 59.077 59.077h412.308c21.663 0 39.383 17.723 39.383 39.385s-17.72 39.385-39.383 39.385h-412.308c-76.062 0-137.846-61.785-137.846-137.846v-590.767c0-76.063 61.785-137.846 137.846-137.846h590.771c76.058 0 137.846 61.783 137.846 137.846v452.921c0 21.662-17.725 39.385-39.388 39.385zM984.596 960h-275.692c-21.663 0-39.388-17.723-39.388-39.385s17.725-39.385 39.388-39.385h180.675l-484.184-484.185c-15.261-15.263-15.261-40.371 0-55.629 7.631-7.634 17.723-11.571 27.815-11.571s20.185 3.937 27.815 11.571l484.187 484.183v-180.677c0-21.661 17.72-39.385 39.383-39.385s39.383 17.723 39.383 39.385v275.692c0 21.662-17.72 39.385-39.383 39.385z" />
<glyph unicode="&#xe90f;" glyph-name="delete" d="M830.621 834.029h-172.106v31.493c0 52.179-42.029 94.478-93.877 94.478h-125.169c-51.848 0-93.877-42.299-93.877-94.478v-31.493h-172.107c-43.205 0-78.231-35.25-78.231-78.732v-62.985c0-17.394 14.009-31.494 31.292-31.494h751.013c17.282 0 31.292 14.1 31.292 31.494v62.985c0 43.482-35.026 78.732-78.231 78.732zM408.178 865.522c0 17.36 14.041 31.493 31.292 31.493h125.169c17.251 0 31.292-14.132 31.292-31.493v-31.493h-187.752v31.493zM154.755 597.861c-5.584 0-10.033-4.696-9.767-10.311l25.816-545.301c2.386-50.467 43.574-89.991 93.759-89.991h475.21c50.186 0 91.374 39.524 93.76 89.991l25.817 545.301c0.264 5.615-4.184 10.311-9.768 10.311h-694.827zM627.338 519.128c0 17.401 14.003 31.494 31.292 31.494s31.292-14.093 31.292-31.494v-409.405c0-17.401-14.003-31.494-31.292-31.494s-31.292 14.093-31.292 31.494v409.405zM470.876 519.128c0 17.401 14.005 31.494 31.294 31.494s31.292-14.093 31.292-31.494v-409.405c0-17.401-14.003-31.494-31.292-31.494s-31.294 14.093-31.294 31.494v409.405zM314.416 519.128c0 17.401 14.003 31.494 31.292 31.494s31.294-14.093 31.294-31.494v-409.405c0-17.401-14.005-31.494-31.294-31.494s-31.292 14.093-31.292 31.494v409.405z" />
<glyph unicode="&#xe910;" glyph-name="discount" d="M512.015 231.869c18.924 0 34.268 15.34 34.268 34.263 0 18.929-15.345 34.268-34.268 34.268s-34.266-15.34-34.266-34.268c0-18.924 15.342-34.263 34.266-34.263zM512.015 595.468c18.924 0 34.268 15.342 34.268 34.266s-15.345 34.266-34.268 34.266c-18.924 0-34.266-15.342-34.266-34.266s15.342-34.266 34.266-34.266zM996.398 932.37c-17.797 17.818-41.472 27.63-66.662 27.63h-358.979c-25.18 0-48.855-9.808-66.665-27.618l-476.47-476.47c-17.814-17.814-27.622-41.484-27.622-66.664s9.812-48.85 27.622-66.652l358.968-358.968c17.804-17.818 41.478-27.628 66.658-27.628 25.178 0 48.852 9.81 66.662 27.622l476.472 476.467c17.807 17.81 27.617 41.486 27.617 66.669v358.976c0 25.194-9.81 48.87-27.602 66.636zM512 724.046c51.978 0 94.269-42.288 94.269-94.266s-42.291-94.266-94.269-94.266c-51.976 0-94.264 42.288-94.264 94.266s42.288 94.266 94.264 94.266zM512 171.96c-51.976 0-94.264 42.286-94.264 94.264s42.288 94.264 94.264 94.264c51.978 0 94.269-42.286 94.269-94.264s-42.291-94.264-94.269-94.264zM704.799 418.002h-385.595c-16.568 0-30 13.43-30 30 0 16.568 13.432 30 30 30h385.595c16.568 0 30.003-13.432 30.003-30 0-16.57-13.43-30-30.003-30zM833.336 739.334c-16.563 0-30.003 13.44-30.003 30s13.44 30 30.003 30c16.558 0 29.998-13.44 29.998-30s-13.44-30-29.998-30z" />
<glyph unicode="&#xe911;" glyph-name="coupons" d="M1058.652 670.994l-88.074 88.073c-0.179 0.187-0.394 0.336-0.63 0.438-0.241 0.102-0.497 0.154-0.758 0.154s-0.517-0.052-0.753-0.154c-0.241-0.102-0.456-0.251-0.635-0.438-14.019-12.946-32.502-19.97-51.579-19.6s-37.274 8.104-50.78 21.584c-13.507 13.48-21.274 31.661-21.678 50.739-0.41 19.078 6.579 37.573 19.497 51.616 0.189 0.18 0.338 0.395 0.44 0.634s0.154 0.495 0.154 0.755c0 0.259-0.051 0.516-0.154 0.755s-0.251 0.454-0.44 0.634l-88.069 88.073c-3.86 3.938-8.458 7.073-13.537 9.226-5.074 2.153-10.527 3.28-16.036 3.317-5.514 0.037-10.977-1.017-16.082-3.102s-9.748-5.158-13.655-9.044l-157.701-157.699c0.287-2.89-0.067-5.807-1.024-8.548s-2.504-5.239-4.531-7.321c-1.838-1.854-4.035-3.32-6.456-4.308-2.417-0.988-5.012-1.48-7.624-1.444-0.599 0-1.193 0.198-1.787 0.198l-307.86-307.859h613.14c-1.070 4.196-0.732 8.628 0.957 12.614 1.695 3.986 4.654 7.305 8.417 9.446s8.125 2.986 12.421 2.405c4.291-0.581 8.274-2.556 11.331-5.621l14.085-14.084c1.403-1.413 2.606-3.015 3.569-4.761h22.415l143.816 143.813c7.803 7.961 12.145 18.687 12.068 29.836-0.072 11.15-4.557 21.817-12.467 29.673zM608.763 724.949c-1.838-1.854-4.035-3.32-6.456-4.308-2.417-0.988-5.012-1.48-7.624-1.444-2.611-0.017-5.202 0.482-7.619 1.469s-4.613 2.443-6.467 4.283l-13.885 14.084c-3.707 3.709-5.791 8.74-5.791 13.985s2.084 10.276 5.791 13.985c3.707 3.709 8.74 5.792 13.983 5.792 5.248 0 10.276-2.083 13.988-5.792l14.080-14.084c1.843-1.835 3.302-4.015 4.296-6.414s1.505-4.972 1.505-7.57c0-2.598-0.512-5.171-1.505-7.57s-2.452-4.58-4.296-6.415zM664.904 668.812c-3.763-3.688-8.817-5.754-14.085-5.754s-10.322 2.066-14.085 5.754l-13.885 14.084c-1.879 1.81-3.379 3.982-4.403 6.385s-1.551 4.988-1.551 7.6c0 2.612 0.527 5.197 1.551 7.6s2.524 4.575 4.403 6.385c1.838 1.839 4.014 3.298 6.415 4.293s4.972 1.508 7.572 1.508c2.596 0 5.166-0.513 7.567-1.508s4.582-2.455 6.415-4.293l14.085-13.885c3.717-3.745 5.801-8.808 5.801-14.084s-2.084-10.338-5.801-14.084zM721.039 612.676c-3.794-3.638-8.827-5.695-14.085-5.753-5.263 0.021-10.312 2.083-14.085 5.753l-14.080 14.084c-1.838 1.836-3.297 4.015-4.296 6.415-0.993 2.4-1.505 4.972-1.505 7.57s0.512 5.17 1.505 7.57c0.998 2.4 2.458 4.579 4.296 6.415 3.743 3.716 8.806 5.801 14.080 5.801 5.279 0 10.342-2.085 14.085-5.801l14.085-13.885c3.717-3.745 5.801-8.808 5.801-14.084s-2.084-10.338-5.801-14.084zM776.975 556.539c-3.692-3.663-8.678-5.729-13.885-5.753-5.258 0.021-10.312 2.083-14.080 5.753l-14.085 14.084c-1.848 1.85-3.318 4.045-4.316 6.462-1.004 2.416-1.516 5.006-1.516 7.622s0.512 5.206 1.516 7.622c0.998 2.417 2.468 4.613 4.316 6.462s4.045 3.317 6.461 4.318c2.417 1.001 5.007 1.516 7.624 1.516 2.611 0 5.202-0.515 7.619-1.516s4.613-2.468 6.461-4.318l13.885-14.084c3.717-3.745 5.806-8.808 5.806-14.084s-2.089-10.338-5.806-14.084zM833.116 500.6c-1.812-1.883-3.983-3.38-6.385-4.404-2.406-1.023-4.992-1.55-7.603-1.55s-5.197 0.527-7.598 1.55c-2.401 1.023-4.577 2.521-6.385 4.404l-14.085 13.885c-3.717 3.745-5.801 8.807-5.801 14.084s2.084 10.339 5.801 14.084c1.838 1.839 4.014 3.298 6.415 4.293s4.972 1.508 7.567 1.508c2.601 0 5.171-0.513 7.572-1.508s4.577-2.455 6.415-4.293l14.085-14.084c1.838-1.835 3.297-4.015 4.291-6.414 0.998-2.4 1.51-4.972 1.51-7.57s-0.512-5.171-1.51-7.57c-0.993-2.4-2.452-4.58-4.291-6.415zM416.075 123.054c-5.677 0-11.226-1.679-15.946-4.833s-8.399-7.639-10.572-12.882c-2.172-5.248-2.741-11.018-1.633-16.584 1.107-5.571 3.841-10.685 7.855-14.7s9.129-6.748 14.696-7.854c5.568-1.106 11.339-0.538 16.584 1.633s9.727 5.852 12.881 10.573c3.154 4.721 4.837 10.271 4.837 15.944-0.010 7.608-3.038 14.904-8.418 20.285s-12.676 8.407-20.285 8.417zM1005.901 259.195c0.261 0 0.517 0.051 0.758 0.148 0.241 0.102 0.461 0.246 0.645 0.43s0.328 0.404 0.43 0.645c0.097 0.241 0.148 0.497 0.148 0.758v124.575c0.051 11.151-4.332 21.862-12.18 29.788-7.849 7.921-18.519 12.401-29.67 12.462h-218.322v-6.707c0-5.258-2.089-10.307-5.806-14.024-3.722-3.722-8.765-5.811-14.029-5.811s-10.307 2.089-14.029 5.811c-3.717 3.717-5.806 8.765-5.806 14.024v6.707h-666.184c-5.526-0.015-10.995-1.121-16.094-3.251-5.098-2.135-9.725-5.253-13.614-9.18-3.889-3.922-6.964-8.581-9.049-13.696-2.085-5.12-3.138-10.598-3.098-16.123v-124.575c0-0.261 0.051-0.517 0.151-0.758s0.246-0.461 0.43-0.645c0.184-0.184 0.403-0.328 0.644-0.43 0.241-0.097 0.499-0.148 0.759-0.148 19.058-0.768 37.080-8.878 50.294-22.63 13.214-13.757 20.593-32.087 20.593-51.164 0-19.072-7.379-37.407-20.593-51.159-13.213-13.757-31.236-21.862-50.294-22.63-0.514-0.036-0.997-0.256-1.362-0.62-0.364-0.369-0.585-0.85-0.622-1.362v-124.774c-0.018-5.509 1.050-10.972 3.145-16.067 2.095-5.1 5.174-9.733 9.061-13.64s8.507-7.004 13.595-9.124c5.087-2.12 10.543-3.215 16.054-3.22h666.696c-0.225 0.799-0.394 1.613-0.512 2.437v19.84c0 5.258 2.089 10.307 5.806 14.024 3.722 3.722 8.765 5.811 14.029 5.811s10.307-2.089 14.029-5.811c3.717-3.717 5.806-8.765 5.806-14.024v-19.84c-0.102-0.819-0.261-1.638-0.476-2.437h218.798c11.121 0.046 21.765 4.5 29.614 12.38 7.844 7.885 12.242 18.55 12.237 29.67v124.774c-0.036 0.512-0.256 0.993-0.62 1.362-0.364 0.364-0.85 0.584-1.362 0.62-19.154 0.63-37.309 8.678-50.637 22.446-13.322 13.773-20.772 32.184-20.772 51.343 0 19.164 7.45 37.576 20.772 51.343 13.327 13.773 31.483 21.821 50.637 22.451zM258.349 344.745c13.523 0 26.743-4.009 37.988-11.52 11.244-7.516 20.008-18.191 25.183-30.689 5.175-12.493 6.529-26.24 3.891-39.506-2.638-13.261-9.15-25.446-18.713-35.005-9.563-9.564-21.746-16.077-35.010-18.714-13.264-2.642-27.012-1.285-39.506 3.891-12.494 5.171-23.173 13.937-30.686 25.18s-11.523 24.463-11.523 37.99c0.021 18.125 7.231 35.507 20.050 48.323 12.818 12.82 30.198 20.029 48.326 20.050zM209.79 25.979c-3.845 0-7.606 1.121-10.826 3.22-3.22 2.104-5.759 5.094-7.31 8.612s-2.046 7.414-1.425 11.208c0.621 3.794 2.331 7.327 4.922 10.163l254.837 279.096c1.741 1.981 3.858 3.594 6.229 4.746s4.947 1.818 7.58 1.961c2.632 0.148 5.266-0.236 7.749-1.121s4.764-2.253 6.711-4.029c1.947-1.777 3.52-3.927 4.627-6.318s1.728-4.982 1.824-7.613c0.096-2.632-0.334-5.263-1.265-7.726-0.931-2.468-2.343-4.721-4.156-6.636l-254.837-279.076c-1.855-2.043-4.119-3.676-6.644-4.787-2.525-1.116-5.256-1.71-8.015-1.7zM416.088 25.979c-13.523 0-26.743 4.009-37.988 11.52-11.244 7.516-20.008 18.196-25.183 30.689s-6.529 26.24-3.891 39.506c2.638 13.261 9.15 25.446 18.713 35.011 9.563 9.559 21.746 16.072 35.010 18.708 13.264 2.642 27.012 1.285 39.506-3.891 12.494-5.171 23.173-13.937 30.686-25.18s11.523-24.463 11.523-37.99c-0.021-18.125-7.231-35.507-20.050-48.323-12.818-12.82-30.198-20.029-48.326-20.050zM747.709 24.591c0-5.263-2.089-10.307-5.806-14.029-3.722-3.722-8.765-5.811-14.029-5.811s-10.307 2.089-14.029 5.811c-3.717 3.722-5.806 8.765-5.806 14.029v19.835c0 5.258 2.089 10.307 5.806 14.024 3.722 3.722 8.765 5.811 14.029 5.811s10.307-2.089 14.029-5.811c3.717-3.717 5.806-8.765 5.806-14.024v-19.835zM747.709 103.936c0-5.263-2.089-10.307-5.806-14.029-3.722-3.717-8.765-5.811-14.029-5.811s-10.307 2.094-14.029 5.811c-3.717 3.722-5.806 8.765-5.806 14.029v19.835c0 5.258 2.089 10.307 5.806 14.024 3.722 3.722 8.765 5.811 14.029 5.811s10.307-2.089 14.029-5.811c3.717-3.717 5.806-8.765 5.806-14.024v-19.835zM747.709 183.281c0-5.263-2.089-10.307-5.806-14.029-3.722-3.717-8.765-5.811-14.029-5.811s-10.307 2.094-14.029 5.811c-3.717 3.722-5.806 8.765-5.806 14.029v19.835c0 5.263 2.089 10.307 5.806 14.029 3.722 3.717 8.765 5.806 14.029 5.806s10.307-2.089 14.029-5.806c3.717-3.722 5.806-8.765 5.806-14.029v-19.835zM747.709 262.625c0-5.263-2.089-10.307-5.806-14.029-3.722-3.717-8.765-5.806-14.029-5.806s-10.307 2.089-14.029 5.806c-3.717 3.722-5.806 8.765-5.806 14.029v19.835c0 5.263 2.089 10.307 5.806 14.029 3.722 3.717 8.765 5.806 14.029 5.806s10.307-2.089 14.029-5.806c3.717-3.722 5.806-8.765 5.806-14.029v-19.835zM747.709 341.97c0-5.263-2.089-10.307-5.806-14.029-3.722-3.717-8.765-5.806-14.029-5.806s-10.307 2.089-14.029 5.806c-3.717 3.722-5.806 8.765-5.806 14.029v19.835c0 5.263 2.089 10.307 5.806 14.029 3.722 3.717 8.765 5.811 14.029 5.811s10.307-2.094 14.029-5.811c3.717-3.722 5.806-8.765 5.806-14.029v-19.835zM258.353 247.593c5.678 0 11.228 1.684 15.949 4.838s8.399 7.639 10.571 12.887c2.172 5.243 2.739 11.018 1.63 16.584-1.109 5.571-3.845 10.685-7.861 14.7s-9.133 6.743-14.702 7.849c-5.569 1.106-11.341 0.532-16.585-1.644-5.244-2.171-9.726-5.857-12.878-10.578s-4.831-10.276-4.828-15.954c0.011-7.603 3.039-14.899 8.42-20.275s12.676-8.402 20.283-8.407z" />
<glyph unicode="&#xe912;" glyph-name="offers" d="M955.894 434.734c-2.033 4.127-3.092 8.663-3.092 13.261 0 4.601 1.060 9.139 3.092 13.264l38.19 78.13c21.263 43.502 4.419 95.351-38.354 118.045l-76.82 40.76c-4.070 2.143-7.593 5.192-10.296 8.913s-4.516 8.012-5.294 12.545l-15.027 85.657c-8.366 47.692-52.48 79.74-100.413 72.958l-86.108-12.18c-4.552-0.658-9.19-0.261-13.568 1.16-4.372 1.422-8.361 3.829-11.658 7.037l-62.5 60.464c-34.801 33.668-89.321 33.67-124.121 0l-62.504-60.47c-3.296-3.208-7.284-5.615-11.658-7.036s-9.016-1.819-13.567-1.162l-86.106 12.18c-47.949 6.786-92.049-25.266-100.415-72.957l-15.024-85.654c-0.781-4.532-2.593-8.825-5.296-12.546s-6.225-6.771-10.294-8.914l-76.819-40.76c-42.772-22.692-59.62-74.546-38.356-118.047l38.19-78.128c2.033-4.126 3.090-8.664 3.090-13.265 0-4.598-1.057-9.134-3.090-13.261l-38.192-78.126c-21.264-43.505-4.416-95.355 38.356-118.047l76.819-40.76c4.069-2.14 7.592-5.192 10.295-8.914 2.703-3.717 4.516-8.013 5.297-12.544l15.024-85.658c7.615-43.412 44.844-73.861 87.629-73.856 4.214 0 8.49 0.292 12.788 0.901l86.106 12.18c4.552 0.66 9.194 0.261 13.568-1.162 4.374-1.418 8.363-3.83 11.658-7.035l62.502-60.467c17.404-16.835 39.728-25.252 62.060-25.247 22.325 0 44.663 8.417 62.061 25.247l62.5 60.467c6.748 6.523 15.939 9.503 25.226 8.197l86.108-12.18c47.954-6.784 92.047 25.267 100.413 72.96l15.027 85.652c0.783 4.531 2.591 8.822 5.294 12.544s6.226 6.774 10.296 8.914l76.82 40.76c42.772 22.692 59.617 74.547 38.354 118.047l-38.19 78.131zM393.862 713.766c59.704 0 108.278-48.574 108.278-108.278s-48.574-108.277-108.278-108.277c-59.703 0-108.277 48.574-108.277 108.277s48.574 108.278 108.277 108.278zM337.974 232.228c-5.766-5.765-13.324-8.648-20.88-8.648s-15.116 2.883-20.88 8.648c-11.532 11.53-11.532 30.228 0 41.764l389.773 389.774c11.53 11.532 30.234 11.532 41.764 0s11.53-30.23 0-41.762l-389.777-389.776zM630.098 182.226c-59.699 0-108.273 48.573-108.273 108.278s48.573 108.278 108.273 108.278c59.704 0 108.278-48.573 108.278-108.278s-48.573-108.278-108.278-108.278zM630.052 339.814c-27.136 0-49.213-22.083-49.213-49.219s22.077-49.213 49.213-49.213c27.141 0 49.219 22.077 49.219 49.213s-22.077 49.219-49.219 49.219zM393.816 654.8c-27.138 0-49.215-22.078-49.215-49.215s22.078-49.218 49.215-49.218c27.138 0 49.218 22.078 49.218 49.218-0.002 27.135-22.080 49.215-49.218 49.215z" />
<glyph unicode="&#xe913;" glyph-name="document_align_left" d="M819.959 274.705v0zM642.628 97.374v0zM215.939 62.076v0zM168.743 109.274v0zM855.258 109.274v0zM808.060 62.076v0zM808.060 833.924v0zM855.258 786.728v0zM215.939 833.924v0zM168.743 786.728v0zM894.767 277.333v0zM640 22.566v0zM341.333 309.333c-17.673 0-32-14.327-32-32s14.327-32 32-32v64zM469.333 245.333c17.673 0 32 14.327 32 32s-14.327 32-32 32v-64zM341.333 480c-17.673 0-32-14.327-32-32s14.327-32 32-32v64zM682.667 416c17.673 0 32 14.327 32 32s-14.327 32-32 32v-64zM341.333 650.667c-17.673 0-32-14.327-32-32s14.327-32 32-32v64zM469.333 586.667c17.673 0 32 14.327 32 32s-14.327 32-32 32v-64zM814.955 306.313c-104.977-16.627-187.307-98.957-203.934-203.934l63.211-10.014c12.292 77.594 73.143 138.445 150.737 150.737l-10.014 63.211zM864 490.667v-85.333h64v85.333h-64zM160 405.333v85.333h-64v-85.333h64zM512 53.333c-80.708 0-138.667 0.043-183.55 4.907-44.284 4.8-72.026 13.978-93.702 29.726l-37.618-51.776c34.403-24.998 74.697-36.19 124.427-41.579 49.131-5.321 111.16-5.278 190.444-5.278v64zM96 405.333c0-79.283-0.044-141.312 5.279-190.443 5.388-49.732 16.58-90.022 41.575-124.429l51.777 37.619c-15.748 21.675-24.927 49.417-29.725 93.7-4.863 44.885-4.907 102.844-4.907 183.552h-64zM234.748 87.966c-15.394 11.183-28.932 24.721-40.116 40.115l-51.777-37.619c15.132-20.826 33.448-39.142 54.275-54.272l37.618 51.776zM829.367 128.081c-11.183-15.394-24.721-28.932-40.115-40.115l37.619-51.776c20.826 15.13 39.142 33.446 54.272 54.272l-51.776 37.619zM512 842.667c80.708 0 138.667-0.044 183.552-4.907 44.284-4.798 72.026-13.977 93.7-29.725l37.619 51.777c-34.406 24.995-74.697 36.187-124.429 41.575-49.131 5.323-111.159 5.279-190.443 5.279v-64zM928 490.667c0 79.281 0.043 141.313-5.278 190.444-5.389 49.73-16.58 90.023-41.579 124.427l-51.776-37.618c15.748-21.675 24.926-49.417 29.726-93.702 4.864-44.883 4.907-102.843 4.907-183.55h64zM789.252 808.035c15.394-11.185 28.932-24.722 40.115-40.116l51.776 37.618c-15.13 20.827-33.446 39.143-54.272 54.275l-37.619-51.777zM512 906.667c-79.283 0-141.313 0.044-190.444-5.279-49.73-5.388-90.023-16.58-124.427-41.575l37.618-51.777c21.675 15.748 49.417 24.927 93.702 29.725 44.883 4.863 102.842 4.907 183.55 4.907v64zM160 490.667c0 80.707 0.044 138.667 4.907 183.55 4.798 44.284 13.977 72.026 29.725 93.702l-51.777 37.618c-24.995-34.403-36.187-74.697-41.575-124.427-5.323-49.131-5.279-111.162-5.279-190.444h64zM197.13 859.812c-20.827-15.132-39.143-33.448-54.275-54.275l51.777-37.618c11.185 15.394 24.722 28.932 40.116 40.116l-37.618 51.777zM864 405.333c0-50.052-0.004-91.546-1.216-126.903l63.962-2.193c1.259 36.689 1.254 79.398 1.254 129.097h-64zM862.784 278.43c-2.709-79.142-11.546-120.243-33.417-150.349l51.776-37.619c34.214 47.091 42.863 105.843 45.602 185.775l-63.962 2.193zM894.767 309.333c-37.645 0-60.297 0.068-79.812-3.021l10.014-63.211c13.303 2.108 29.807 2.231 69.798 2.231v64zM512-10.667c49.698 0 92.407-0.004 129.097 1.254l-2.193 63.962c-35.358-1.212-76.851-1.216-126.903-1.216v-64zM641.097-9.412c79.932 2.739 138.684 11.388 185.775 45.602l-37.619 51.776c-30.106-21.871-71.206-30.707-150.349-33.417l2.193-63.962zM672 22.566c0 39.991 0.124 56.495 2.231 69.798l-63.211 10.014c-3.089-19.516-3.021-42.167-3.021-79.812h64zM341.333 245.333h128v64h-128v-64zM341.333 416h341.333v64h-341.333v-64zM341.333 586.667h128v64h-128v-64z" />
<glyph unicode="&#xe914;" glyph-name="document_upload" d="M204.039 621.226v0zM381.373 798.561v0zM808.059 62.008v0zM855.255 109.204v0zM168.743 109.204v0zM215.939 62.008v0zM215.939 833.857v0zM168.743 786.661v0zM808.059 833.857v0zM855.255 786.661v0zM384 873.366v0zM129.234 618.6v0zM473.6 234.598c0-21.207 17.192-38.4 38.4-38.4s38.4 17.193 38.4 38.4h-76.8zM314.060 466.431c-14.929-15.063-14.821-39.377 0.242-54.307 15.063-14.925 39.376-14.817 54.305 0.246l-54.547 54.062zM400.975 499.576v0zM623.027 499.576v0zM655.391 412.37c14.93-15.063 39.245-15.171 54.308-0.246 15.063 14.93 15.171 39.244 0.241 54.307l-54.548-54.062zM501.305 575.255v0zM522.696 575.255v0zM512 575.933v0zM210.046 583.299c107.715 17.060 192.194 101.54 209.254 209.254l-75.855 12.014c-11.855-74.852-70.561-133.558-145.414-145.414l12.014-75.855zM89.6 490.6v-85.331h76.8v85.331h-76.8zM934.4 405.268v85.331h-76.8v-85.331h76.8zM512-17.132c79.14 0 141.578-0.056 191.135 5.315 50.273 5.448 91.822 16.84 127.498 42.762l-45.143 62.131c-20.403-14.822-46.889-23.803-90.629-28.539-44.457-4.818-102.011-4.869-182.861-4.869v-76.8zM857.6 405.268c0-80.85-0.051-138.404-4.869-182.861-4.741-43.74-13.716-70.231-28.539-90.629l62.131-45.143c25.923 35.676 37.315 77.225 42.762 127.498 5.366 49.556 5.315 111.995 5.315 191.135h-76.8zM830.633 30.945c21.371 15.524 40.161 34.319 55.69 55.69l-62.131 45.143c-10.793-14.853-23.849-27.914-38.702-38.702l45.143-62.131zM89.6 405.268c0-79.14-0.053-141.578 5.316-191.135 5.447-50.273 16.841-91.822 42.761-127.498l62.132 45.143c-14.823 20.398-23.801 46.889-28.539 90.629-4.817 44.457-4.87 102.011-4.87 182.861h-76.8zM512 59.668c-80.849 0-138.402 0.051-182.861 4.869-43.74 4.736-70.227 13.716-90.629 28.539l-45.142-62.131c35.676-25.923 77.225-37.315 127.499-42.762 49.555-5.371 111.994-5.315 191.133-5.315v76.8zM137.677 86.636c15.527-21.371 34.32-40.166 55.691-55.69l45.142 62.131c-14.851 10.788-27.911 23.849-38.701 38.702l-62.132-45.143zM193.368 864.923c-21.371-15.527-40.164-34.32-55.691-55.691l62.132-45.142c10.79 14.851 23.85 27.911 38.701 38.701l-45.142 62.132zM512 836.2c80.85 0 138.404-0.053 182.861-4.87 43.74-4.739 70.226-13.716 90.629-28.539l45.143 62.132c-35.676 25.92-77.225 37.314-127.498 42.761-49.556 5.369-111.995 5.316-191.135 5.316v-76.8zM934.4 490.6c0 79.139 0.051 141.578-5.315 191.133-5.448 50.274-16.84 91.823-42.762 127.499l-62.131-45.142c14.822-20.402 23.798-46.889 28.539-90.629 4.818-44.458 4.869-102.011 4.869-182.861h76.8zM785.49 802.791c14.853-10.79 27.909-23.85 38.702-38.701l62.131 45.142c-15.529 21.371-34.319 40.164-55.69 55.691l-45.143-62.132zM512 913c-49.661 0-92.492 0.005-129.315-1.257l2.63-76.755c35.228 1.207 76.598 1.212 126.685 1.212v76.8zM382.685 911.743c-80.013-2.741-140.529-11.373-189.317-46.82l45.142-62.132c28.405 20.637 67.74 29.489 146.805 32.197l-2.63 76.755zM345.6 873.366c-0.001-40.224-0.144-56.113-2.154-68.798l75.855-12.014c3.189 20.134 3.099 43.403 3.099 80.812l-76.8 0.001zM166.4 490.6c0 50.087 0.005 91.458 1.212 126.685l-76.755 2.63c-1.262-36.823-1.257-79.653-1.257-129.315h76.8zM167.612 617.285c2.708 79.065 11.56 118.4 32.197 146.805l-62.132 45.142c-35.447-48.788-44.079-109.304-46.82-189.317l76.755-2.63zM129.234 580.2c37.409 0.001 60.678-0.090 80.812 3.099l-12.014 75.855c-12.686-2.010-28.574-2.153-68.798-2.154l0.001-76.8zM550.4 234.598v307.202h-76.8v-307.202h76.8zM368.607 412.37l59.641 60.175-54.547 54.063-59.641-60.176 54.547-54.062zM595.753 472.545l59.638-60.175 54.548 54.062-59.638 60.176-54.548-54.063zM428.249 472.545c24.417 24.636 40.487 40.767 53.902 51.541 12.81 10.287 19.424 12.492 24.009 13.077l-9.711 76.184c-24.401-3.11-44.17-14.75-62.388-29.381-17.612-14.144-37.215-34.005-60.361-57.358l54.547-54.063zM650.301 526.607c-23.148 23.353-42.752 43.214-60.365 57.358-18.217 14.631-37.985 26.27-62.387 29.381l-9.708-76.184c4.582-0.585 11.197-2.79 24.008-13.077 13.414-10.774 29.486-26.905 53.903-51.541l54.548 54.063zM506.16 537.163c1.939 0.247 3.89 0.371 5.84 0.371v76.8c-5.194 0-10.387-0.329-15.55-0.987l9.711-76.184zM512 537.533c1.951 0 3.901-0.123 5.842-0.371l9.708 76.184c-5.161 0.658-10.358 0.987-15.549 0.987v-76.8zM550.4 541.8v34.134h-76.8v-34.134h76.8z" />
<glyph unicode="&#xe915;" glyph-name="earnings_and_expense" d="M362.92 735.972h291.201l53.437 95.040c13.123 23.040 10.88 51.52-5.76 72.32-16.317 20.8-43.52 29.44-69.12 22.080l-159.998-45.44-74.24 30.4c-25.92 10.56-55.040 3.84-73.6-17.28s-21.76-50.56-8-75.2l46.080-82.24v0.32zM854.118 193.254l-104.32 315.197c-15.114 45.473-46.746 83.615-88.637 106.88l-18.243 56.64h-269.438l-18.56-57.28c0 0 0-2.88-0.64-4.48-37.834-23.501-66.25-59.502-80.32-101.76l-104.32-315.197c-17.6-52.803-8.96-109.123 23.68-154.24 32.64-45.123 83.2-71.040 138.88-71.040h358.718c55.68 0 106.24 25.917 138.88 71.040 32.64 45.117 41.283 101.437 23.68 154.24h0.64zM557.481 319.974c15.36 0 29.757-6.723 39.357-17.92 8.643-10.24 12.8-23.363 11.52-36.48v-64.963c0.963-11.52-3.2-22.4-11.52-30.397-9.277-8.96-21.12-11.203-31.037-11.203-4.163 0-8.003 0.323-11.203 0.963h-10.24c0-17.603-14.397-32-32-32-17.598 0-31.998 14.397-31.998 32h-32c-17.6 0-32 14.397-32 32 0 17.597 14.4 32 32 32h95.998v32h-77.118c-24.96 0-41.6 21.76-48.96 41.917-1.283 3.482-1.933 7.168-1.92 10.88v54.723c0 29.117 23.68 52.797 52.8 52.797h11.2c0 17.603 14.4 32 31.998 32 17.603 0 32-14.397 32-32h32c17.603 0 32-14.397 32-32 0-17.597-14.397-32-32-32h-95.998v-32h77.121v-0.317z" />
<glyph unicode="&#xe916;" glyph-name="down_arrow" d="M446.19 180.48v779.52h131.62v-779.52l352.74 344.32 93.45-90.88-512-497.92-512 497.92 93.45 90.88 352.74-344.32z" />
<glyph unicode="&#xe917;" glyph-name="down_arrow1" d="M748.093 510.874c12.442 12.553 12.349 32.814-0.2 45.255-12.554 12.441-32.814 12.35-45.256-0.202l-74.552-75.22c-30.254-30.527-51.077-51.471-68.721-65.638-17.142-13.763-28.15-18.488-38.011-19.743-6.19-0.788-12.453-0.788-18.643 0-9.86 1.254-20.868 5.98-38.007 19.743-17.644 14.167-38.467 35.11-68.724 65.638l-74.552 75.22c-12.441 12.553-32.702 12.643-45.254 0.202s-12.643-32.702-0.202-45.255l75.895-76.575c28.584-28.841 51.946-52.413 72.762-69.13 21.646-17.382 43.617-29.967 69.99-33.331 11.564-1.475 23.264-1.475 34.83 0 26.373 3.364 48.343 15.949 69.99 33.331 20.813 16.717 44.175 40.289 72.76 69.13l75.894 76.575z" />
<glyph unicode="&#xe918;" glyph-name="download" d="M307.961 66.627v0zM130.627 243.963v0zM893.373 243.963v0zM716.037 66.627v0zM884.050 513.729c-12.733 16.957-36.808 20.378-53.765 7.641s-20.378-36.809-7.639-53.766l61.404 46.125zM201.354 467.604c12.737 16.957 9.316 41.029-7.641 53.766s-41.029 9.316-53.766-7.641l61.407-46.125zM550.4 832c0 21.208-17.193 38.4-38.4 38.4s-38.4-17.192-38.4-38.4h76.8zM371.423 429.189c-13.176 16.62-37.329 19.41-53.947 6.236-16.618-13.179-19.408-37.33-6.232-53.949l60.179 47.713zM400.975 330.112v0zM623.027 330.112v0zM712.755 381.476c13.179 16.62 10.388 40.771-6.231 53.949-16.62 13.174-40.771 10.383-53.949-6.236l60.18-47.713zM501.305 235.515v0zM522.696 235.515v0zM857.6 362.665v-42.665h76.8v42.665h-76.8zM640 102.4h-256v-76.8h256v76.8zM166.4 320v42.665h-76.8v-42.665h76.8zM384 102.4c-41.105 0-57.187 0.118-70.032 2.156l-12.014-75.858c20.32-3.215 43.876-3.098 82.046-3.098v76.8zM89.6 320c0-38.17-0.119-61.727 3.099-82.048l75.854 12.017c-2.034 12.846-2.153 28.928-2.153 70.031h-76.8zM313.968 104.556c-74.852 11.853-133.558 70.559-145.414 145.413l-75.854-12.017c17.060-107.715 101.54-192.195 209.254-209.254l12.014 75.858zM857.6 320c0-41.103-0.118-57.185-2.156-70.031l75.858-12.017c3.215 20.321 3.098 43.878 3.098 82.048h-76.8zM640 25.6c38.17 0 61.727-0.118 82.048 3.098l-12.017 75.858c-12.846-2.038-28.928-2.156-70.031-2.156v-76.8zM855.444 249.969c-11.853-74.854-70.559-133.56-145.413-145.413l12.017-75.858c107.715 17.060 192.195 101.54 209.254 209.254l-75.858 12.017zM934.4 362.665c0 56.627-18.744 108.987-50.35 151.064l-61.404-46.125c21.96-29.235 34.954-65.51 34.954-104.94h76.8zM166.4 362.665c0 39.429 12.997 75.704 34.954 104.94l-61.407 46.125c-31.605-42.077-50.348-94.437-50.348-151.064h76.8zM473.6 832v-554.665h76.8v554.665h-76.8zM311.244 381.476l59.641-75.218 60.179 47.713-59.641 75.218-60.179-47.713zM653.112 306.258l59.643 75.218-60.18 47.713-59.638-75.218 60.175-47.713zM370.885 306.258c23.199-29.261 42.599-53.821 60.016-71.306 17.588-17.659 37.914-33.142 64.361-37.356l12.084 75.843c-2.538 0.404-8.595 2.222-22.035 15.713-13.612 13.665-29.883 34.089-54.247 64.819l-60.179-47.713zM592.937 353.971c-24.366-30.73-40.637-51.154-54.246-64.819-13.44-13.491-19.497-15.309-22.036-15.713l12.083-75.843c26.45 4.214 46.776 19.697 64.364 37.356 17.413 17.485 36.813 42.045 60.012 71.306l-60.175 47.713zM495.263 197.596c5.541-0.886 11.134-1.331 16.737-1.331v76.8c-1.541 0-3.093 0.123-4.653 0.374l-12.084-75.843zM512 196.265c5.601 0 11.197 0.445 16.737 1.331l-12.083 75.843c-1.562-0.251-3.113-0.374-4.654-0.374v-76.8zM473.6 277.335v-42.67h76.8v42.67h-76.8z" />
<glyph unicode="&#xe919;" glyph-name="edit" d="M632.377 788l-563.421-563.459c-2.835-2.844-4.882-6.434-5.856-10.291l-62.45-250.658c-1.868-7.549 0.349-15.57 5.856-21.077 4.167-4.164 9.844-6.474 15.651-6.474 1.779 0 3.598 0.222 5.369 0.666l250.66 62.458c3.907 0.973 7.456 3.015 10.291 5.848l563.469 563.42-219.568 219.568zM991.499 864.749l-62.72 62.717c-41.916 41.917-114.972 41.877-156.843 0l-76.823-76.825 219.557-219.561 76.828 76.826c20.935 20.931 32.466 48.788 32.466 78.417s-11.531 57.487-32.466 78.426z" />
<glyph unicode="&#xe91a;" glyph-name="edit1" d="M691.341 764.779l3.844-2.219c33.199-19.166 60.885-35.149 81.156-50.793 21.397-16.512 38.379-35.464 45.491-62.010s1.882-51.451-8.393-76.449c-7.13-17.351-17.617-36.849-30.251-59.089l-27.456 16.316-295.479 170.595-27.635 16.286c12.804 21.807 24.341 40.432 35.699 55.15 16.512 21.396 35.465 38.379 62.012 45.492s51.452 1.882 76.446-8.392c23.684-9.734 51.371-25.718 84.565-44.887zM400.559 662.023l-148.393-257.018c-12.705-21.965-22.752-39.334-26.474-59.089s-0.685-39.586 3.156-64.67l1.035-6.78c7.091-46.566 12.935-84.945 21.75-114.052 9.219-30.438 23.391-56.785 51.264-72.879s57.777-15.194 88.748-7.957c29.613 6.921 65.776 21.047 109.646 38.191l6.391 2.492c23.642 9.216 42.334 16.503 57.583 29.602 15.245 13.103 25.263 30.485 37.935 52.471l148.041 256.422-27.682 16.452-295.68 170.711-27.319 16.104z" />
<glyph unicode="&#xe91b;" glyph-name="edit-square" d="M173.272 97.434v0zM126.076 144.631v0zM765.393 97.434v0zM812.591 144.631v0zM126.076 736.752v0zM173.272 783.948v0zM384.384 792.386c17.672 0.212 31.826 14.709 31.614 32.381s-14.71 31.826-32.381 31.614l0.767-63.995zM885.022 354.974c0.213 17.673-13.939 32.171-31.612 32.38-17.673 0.213-32.171-13.939-32.384-31.612l63.996-0.768zM503.364 269.833v0zM327.585 282.526v0zM314.893 458.304v0zM363.836 560.137v0zM326.098 515.597v0zM605.197 318.775v0zM560.653 281.041v0zM469.333 88.691c-80.707 0-138.667 0.043-183.55 4.907-44.284 4.796-72.026 13.978-93.702 29.726l-37.618-51.78c34.403-24.994 74.697-36.186 124.426-41.574 49.131-5.321 111.162-5.278 190.444-5.278v64zM53.333 440.691c0-79.283-0.044-141.312 5.279-190.443 5.388-49.732 16.58-90.027 41.575-124.429l51.777 37.619c-15.748 21.675-24.927 49.417-29.725 93.7-4.863 44.885-4.907 102.844-4.907 183.552h-64zM192.081 123.324c-15.394 11.183-28.932 24.721-40.116 40.115l-51.777-37.619c15.132-20.826 33.448-39.142 54.276-54.276l37.618 51.78zM469.333 24.691c79.283 0 141.312-0.043 190.443 5.278 49.732 5.389 90.022 16.58 124.429 41.574l-37.619 51.78c-21.675-15.748-49.417-24.93-93.7-29.726-44.885-4.864-102.844-4.907-183.552-4.907v-64zM786.701 163.439c-11.183-15.394-24.721-28.932-40.115-40.115l37.619-51.78c20.826 15.134 39.142 33.451 54.272 54.276l-51.776 37.619zM117.333 440.691c0 80.708 0.044 138.667 4.907 183.549 4.798 44.285 13.977 72.027 29.725 93.702l-51.777 37.618c-24.995-34.403-36.187-74.697-41.575-124.426-5.323-49.131-5.279-111.164-5.279-190.443h64zM154.463 809.836c-20.827-15.132-39.143-33.448-54.275-54.276l51.777-37.618c11.185 15.394 24.722 28.932 40.116 40.116l-37.618 51.777zM383.616 856.381c-103.532-1.241-174.595-6.906-229.153-46.545l37.618-51.777c35.599 25.864 85.601 33.047 192.302 34.327l-0.767 63.995zM821.026 355.742c-1.276-106.701-8.461-156.702-34.325-192.303l51.776-37.619c39.642 54.558 45.308 125.623 46.545 229.154l-63.996 0.768zM811.763 570.602l-229.197-229.196 45.257-45.257 229.197 229.197-45.257 45.256zM386.463 537.509l229.196 229.197-45.252 45.255-229.198-229.197 45.255-45.255zM499.827 301.641c-49.92-5.547-83.894-9.246-109.14-8.431-24.387 0.789-34.233 5.7-40.475 11.942l-45.255-45.252c22.758-22.758 51.876-29.628 83.665-30.656 30.93-0.998 70.343 3.46 118.275 8.785l-7.070 63.612zM283.088 461.837c-5.326-47.932-9.784-87.343-8.785-118.272 1.027-31.791 7.896-60.907 30.654-83.665l45.255 45.252c-6.243 6.246-11.155 16.090-11.942 40.478-0.815 25.246 2.88 59.221 8.427 109.141l-63.609 7.066zM341.208 582.764c-19.418-19.419-34.75-34.161-43.951-53.305l57.683-27.725c3.389 7.053 9.019 13.269 31.523 35.775l-45.255 45.255zM346.697 454.771c3.514 31.629 4.854 39.91 8.243 46.963l-57.684 27.725c-9.201-19.145-11.136-40.329-14.168-67.622l63.609-7.066zM582.566 341.406c-22.502-22.507-28.723-28.134-35.772-31.526l27.721-57.681c19.145 9.203 33.89 24.533 53.308 43.951l-45.257 45.257zM506.897 238.029c27.294 3.034 48.474 4.966 67.618 14.17l-27.721 57.681c-7.053-3.388-15.334-4.727-46.967-8.239l7.070-63.612zM811.763 766.706c29.086-29.084 48.576-48.669 61.188-65.201 12.049-15.794 14.775-24.987 14.775-32.851h64c0 27.483-11.499 50.185-27.895 71.672-15.829 20.749-39.006 43.831-66.812 71.635l-45.257-45.255zM857.020 525.346c27.806 27.805 50.982 50.887 66.812 71.636 16.397 21.487 27.895 44.189 27.895 71.672h-64c0-7.863-2.726-17.056-14.775-32.85-12.612-16.532-32.102-36.117-61.188-65.201l45.257-45.256zM857.020 811.961c-27.806 27.805-50.889 50.983-71.637 66.813-21.487 16.394-44.186 27.892-71.671 27.892v-64c7.863 0 17.058-2.723 32.853-14.774 16.533-12.614 36.117-32.102 65.199-61.187l45.257 45.255zM615.659 766.706c29.086 29.084 48.67 48.573 65.203 61.187 15.795 12.051 24.986 14.774 32.849 14.774v64c-27.482 0-50.185-11.499-71.671-27.892-20.749-15.831-43.827-39.009-71.633-66.813l45.252-45.255zM857.020 570.602l-241.361 241.359-45.252-45.255 241.357-241.36 45.257 45.256z" />
<glyph unicode="&#xe91c;" glyph-name="f_coin" d="M512 960c-281.6 0-512-230.4-512-512s230.4-512 512-512c281.6 0 512 230.4 512 512s-230.4 512-512 512zM578.56 555.52h-51.2c-25.6 0-40.96-20.48-40.96-40.96v-30.72h61.44c20.48 0 35.84-15.36 35.84-35.84s-15.36-35.84-35.84-35.84h-61.44v-107.52c0-20.48-15.36-35.84-35.84-35.84s-40.96 15.36-40.96 35.84v245.76c0 40.96 35.84 76.8 76.8 76.8h92.16c20.48 0 35.84-15.36 35.84-35.84s-15.36-35.84-35.84-35.84z" />
<glyph unicode="&#xe91d;" glyph-name="live_stream" d="M547 800c-33.084 0-60 26.916-60 60s26.916 60 60 60 60-26.916 60-60-26.916-60-60-60zM802.772 755.52c-4.484 2.812-9.933 4.48-15.773 4.48-4.89 0-9.507-1.17-13.586-3.245l0.17 0.079-46.584-23.292v-167.082l46.584-23.292c3.905-1.996 8.519-3.166 13.406-3.166 0.003 0 0.006 0 0.009 0v0c0.002 0 0.004 0 0.006 0 16.566 0 29.996 13.43 29.996 29.996 0 0.001 0 0.003 0 0.004v0 160c0 0 0 0 0 0.001 0 10.729-5.633 20.142-14.102 25.444l-0.126 0.073zM640.44 784.828c-22.014-27.31-55.712-44.828-93.44-44.828-38.808 0-73.354 18.534-95.304 47.198-25.666-28.924-63.078-47.198-104.696-47.198-42.736 0-81.036 19.27-106.738 49.552-19.942-12.348-33.262-34.42-33.262-59.552v-160c0-38.598 31.402-70 70-70h320c38.598 0 70 31.402 70 70v160c0 22.194-10.396 41.994-26.56 54.828zM347 800c-44.112 0-80 35.888-80 80s35.888 80 80 80 80-35.888 80-80-35.888-80-80-80zM892 376h-760c-49.626 0-90-40.374-90-90v-260c0-49.626 40.374-90 90-90h760c49.626 0 90 40.374 90 90v260c0 49.626-40.374 90-90 90zM268.936 26.168c-22.924-0.128-38.56-0.184-49.334-0.184-22.344 0-23.78 0.246-25.94 0.616-14.245 2.51-24.928 14.791-24.928 29.568v0 199.832c0 16.568 13.432 30 30 30s30-13.432 30-30v-169.988c11.998 0.024 26.296 0.080 39.866 0.156h0.172c16.49 0 29.904-13.32 29.996-29.832 0.090-16.57-13.264-30.076-29.832-30.168zM408.778 56c0-16.568-13.432-30-30-30s-30 13.432-30 30v200c0 16.568 13.432 30 30 30s30-13.432 30-30zM659.462 246.174l-65.37-196.78c-4.754-13.647-17.462-23.285-32.437-23.396h-0.239c-14.919 0.009-27.625 9.475-32.448 22.728l-0.076 0.24-0.070 0.198-68.38 196.998c-5.432 15.652 2.852 32.746 18.504 38.178 15.646 5.438 32.746-2.848 38.18-18.502l43.764-126.078 41.632 125.33c5.224 15.722 22.2 24.24 37.928 19.012 15.722-5.222 24.234-22.204 19.012-37.928zM819.054 186c16.568 0 30-13.432 30-30s-13.432-30-30-30h-48.058v-40h54.272c16.568 0 30-13.432 30-30s-13.432-30-30-30h-84.272c-16.568 0-30 13.432-30 30v200c0 16.568 13.432 30 30 30h84.272c16.568 0 30-13.432 30-30s-13.432-30-30-30h-54.272v-40z" />
<glyph unicode="&#xe920;" glyph-name="delete2" d="M790.067 414.741v0zM778.876 334.315v0zM245.126 334.315v0zM233.933 414.741v0zM391.836 32.563v0zM276.27 168.094v0zM747.729 168.094v0zM632.166 32.563v0zM245.19 579.027c-1.672 17.594-17.289 30.502-34.883 28.83s-30.502-17.289-28.83-34.883l63.713 6.054zM842.522 572.973c1.673 17.594-11.234 33.212-28.83 34.883-17.591 1.672-33.212-11.236-34.88-28.83l63.71-6.054zM853.333 629.333c17.673 0 32 14.327 32 32s-14.327 32-32 32v-64zM170.667 693.333c-17.673 0-32-14.327-32-32s14.327-32 32-32v64zM394.667 192c0-17.673 14.327-32 32-32s32 14.327 32 32h-64zM458.667 533.333c0 17.673-14.327 32-32 32s-32-14.327-32-32h64zM565.333 192c0-17.673 14.327-32 32-32s32 14.327 32 32h-64zM629.333 533.333c0 17.673-14.327 32-32 32s-32-14.327-32-32h64zM682.667 661.333v-32h32v32h-32zM341.333 661.333h-32v-32h32v32zM758.374 419.153l-11.196-80.427 63.39-8.823 11.191 80.427-63.386 8.823zM276.82 338.726l-11.193 80.427-63.389-8.823 11.193-80.427 63.389 8.823zM512 53.333c-65.246 0-88.515 0.606-107.723 8.713l-24.882-58.965c34.009-14.353 73.111-13.747 132.605-13.747v64zM213.431 329.903c11.934-85.751 18.422-133.709 32.802-172.847l60.074 22.071c-11.414 31.066-17.091 70.524-29.487 159.599l-63.389-8.823zM404.277 62.046c-39.358 16.606-75.959 57.173-97.97 117.082l-60.074-22.071c26.223-71.373 73.001-128.589 133.161-153.975l24.882 58.965zM747.179 338.726c-12.395-89.075-18.074-128.533-29.487-159.599l60.075-22.071c14.379 39.138 20.868 87.095 32.802 172.847l-63.39 8.823zM512-10.667c59.494 0 98.598-0.606 132.604 13.747l-24.879 58.965c-19.209-8.107-42.479-8.713-107.725-8.713v-64zM717.692 179.127c-22.012-59.908-58.611-100.476-97.967-117.082l24.879-58.965c60.16 25.387 106.94 82.603 133.163 153.975l-60.075 22.071zM265.627 419.153c-9.477 68.1-16.554 119-20.437 159.874l-63.713-6.054c4.046-42.584 11.36-95.085 20.762-162.644l63.389 8.823zM821.76 410.33c9.404 67.558 16.717 120.060 20.762 162.644l-63.71 6.054c-3.887-40.873-10.961-91.773-20.437-159.874l63.386-8.823zM853.333 693.333h-682.667v-64h682.667v64zM458.667 192v341.333h-64v-341.333h64zM629.333 192v341.333h-64v-341.333h64zM650.667 704v-42.667h64v42.667h-64zM682.667 693.333h-341.333v-64h341.333v64zM373.333 661.333v42.667h-64v-42.667h64zM512 842.667c76.582 0 138.667-62.083 138.667-138.667h64c0 111.93-90.735 202.667-202.667 202.667v-64zM512 906.667c-111.93 0-202.667-90.737-202.667-202.667h64c0 76.584 62.084 138.667 138.667 138.667v64z" />
<glyph unicode="&#xe922;" glyph-name="filter" d="M341.334 693.334c-17.673 0-32-14.327-32-32s14.327-32 32-32h341.331c17.674 0 32 14.327 32 32s-14.326 32-32 32h-341.331zM276.158 864c-98.616 0-180.158-77.891-180.158-175.918 0-49.639 21.456-96.769 58.764-129.988l138.777-123.57c37.388-33.29 58.459-80.072 58.459-128.86v-178.237c0-79.406 91.113-121.754 153.982-77.338l82.828 58.511c38.651 27.305 61.855 71.214 61.855 118.313v73.8c0 51.19 23.194 100.055 63.852 133.473l150.2 123.453c39.977 32.856 63.283 81.387 63.283 132.792 0 96.729-80.461 173.568-177.741 173.568h-474.101zM160 688.082c0 60.941 51.124 111.918 116.158 111.918h474.101c63.698 0 113.741-49.925 113.741-109.568 0-31.88-14.438-62.408-39.921-83.35l-150.2-123.455c-55.153-45.329-87.214-112.197-87.214-182.914v-73.8c0-25.836-12.718-50.452-34.785-66.043l-82.825-58.511c-23.296-16.456-53.054 0.983-53.054 25.068v178.237c0 67.384-29.124 131.446-79.899 176.657l-138.777 123.571c-23.92 21.299-37.324 51.147-37.324 82.19z" />
<glyph unicode="&#xe923;" glyph-name="platforms" d="M1010.596 311.004l-30.121 19.994-418.693-277.97c-14.807-9.825-32.015-15.022-49.782-15.022-17.763 0-34.973 5.197-49.773 15.017l-418.698 277.975-30.122-19.999c-17.876-11.868-17.876-38.118 0-49.987l482-320c4.918-3.261 10.69-5.007 16.593-5.007s11.674 1.746 16.594 5.007l481.997 320c17.879 11.868 17.879 38.124 0.005 49.992zM1010.591 473.002l-30.116 19.998-418.698-277.97c-14.797-9.825-32.010-15.022-49.778-15.022-17.766 0-34.98 5.197-49.78 15.022l-418.692 277.968-30.12-19.996c-17.876-11.868-17.876-38.119 0-49.988l482-320c4.918-3.261 10.69-5.007 16.593-5.007s11.674 1.746 16.594 5.007l481.997 320c17.874 11.868 17.874 38.119 0 49.988zM13.407 585.007l482-320.001c4.918-3.267 10.69-5.007 16.593-5.007s11.674 1.741 16.594 5.007l481.997 320.001c17.879 11.868 17.879 38.118 0 49.986l-481.997 320c-4.92 3.265-10.691 5.007-16.594 5.007s-11.675-1.742-16.593-5.007l-482-320c-17.876-11.866-17.876-38.118 0-49.986zM666.501 503.425c-9.16-13.804-27.781-17.564-41.585-8.4l-112.918 74.966-112.918-74.966c-13.804-9.164-32.422-5.404-41.586 8.4s-5.404 32.422 8.4 41.586l129.512 85.982c4.918 3.266 10.69 5.007 16.593 5.007s11.674-1.742 16.594-5.007l129.51-85.982c13.804-9.164 17.562-27.782 8.397-41.586zM243.891 626.013l251.514 166.98c4.918 3.265 10.69 5.007 16.593 5.007 5.905 0 11.676-1.742 16.591-5.007l251.515-166.98c13.804-9.164 17.567-27.782 8.402-41.586s-27.781-17.564-41.585-8.4l-234.922 155.964-234.922-155.964c-13.804-9.164-32.422-5.402-41.586 8.4s-5.402 32.422 8.4 41.586z" />
<glyph unicode="&#xe924;" glyph-name="left_arrow" d="M363.8 638.606c12.6 12.4 12.6 32.8 0.2 45.2-12.4 12.6-32.8 12.6-45.2 0.2l-76.6-75.8c-28.8-28.6-52.399-52-69.199-72.8-17.4-21.6-30-43.6-33.4-70-1.4-11.6-1.4-23.2 0-34.8 3.4-26.4 16-48.4 33.4-70 16.8-20.8 40.199-44.2 69.199-72.8l76.6-75.8c12.6-12.4 32.8-12.4 45.2 0.2s12.4 32.8-0.2 45.2l-75.2 74.6c-30.6 30.2-51.4 51-65.6 68.8-4.6 5.8-8.2 10.8-11 15.4h641.4c17.6 0 32 14.4 32 32s-14.4 32-32 32h-641.4c2.8 4.6 6.4 9.6 11 15.4 14.2 17.6 35.2 38.4 65.6 68.8l75.2 74.2zM341.4 181.404c-13.6 0-27.2 5.2-37.6 15.4l-76.6 75.8c-29.8 29.6-53.2 52.8-70.8 74.6-22.6 28.2-34.4 53.2-37.8 80.6-1.8 13.4-1.8 26.8 0 40.2 3.6 27.6 15.2 52.4 37.8 80.6 17.4 21.8 41 45 70.8 74.6l76.6 76c20.8 20.8 54.8 20.6 75.4-0.4 10-10.2 15.6-23.6 15.4-37.8 0-14.2-5.6-27.6-15.8-37.6l-75.2-74.6c-19-18.8-34.6-34.4-47-47.6h596.6c29.4 0 53.4-24 53.4-53.4s-24-53.4-53.4-53.4h-596.6c12.4-13.2 28-28.6 47-47.6l75.2-74.6c10.2-10 15.8-23.4 15.8-37.6s-5.4-27.6-15.4-37.8c-10.4-10.2-24.2-15.4-37.8-15.4zM341.4 672.004c-2.8 0-5.4-1-7.6-3l-76.6-75.8c-28.8-28.6-51.6-51.2-67.6-71-17.4-21.8-26.4-40-28.8-59.4-1.2-9.8-1.2-19.6 0-29.4 2.4-19.2 11.4-37.6 28.8-59.4 16-19.8 38.6-42.4 67.4-71l76.6-76c4.2-4.2 11-4.2 15 0 2.8 2.8 3 6 3 7.6s-0.4 4.8-3.2 7.6l-75.2 74.6c-30.2 30-52 51.6-67.2 70.6-5 6.4-9.2 12-12.6 17.6l-20 32.4h679.4c5.8 0 10.6 4.8 10.6 10.6s-4.8 10.6-10.6 10.6h-678.8l20 32.4c3.4 5.4 7.4 11.2 12.6 17.6 15.2 19 37 40.6 67.2 70.6l75.2 74.6c2.8 2.8 3.2 5.8 3.2 7.6 0 1.6-0.4 4.8-3 7.6-2.4 2-5.2 3-7.8 3z" />
<glyph unicode="&#xe925;" d="M512 960c282.77 0 512-229.23 512-512s-229.23-512-512-512c-282.77 0-512 229.23-512 512s229.23 512 512 512z" />
<glyph unicode="&#xe926;" d="M323.612 486.11h92.444v-276.443h-92.444v276.443zM369.835 618.556c-31.113 0-51.556-20.446-51.556-47.113s19.556-48 50.665-48h0.89c32 0 51.556 21.333 51.556 48s-19.556 47.113-51.556 47.113zM640.944 492.334c-48.887 0-71.111-26.667-82.665-46.222v39.999h-91.557c0 0 0.89-26.667 0-276.443h91.557v153.776c0 8.889 0.887 16.89 2.665 23.111 7.111 16 22.224 32.89 47.113 32.89 33.778 0 47.11-24.889 47.11-62.222v-147.556h91.557v158.222c0 84.443-45.335 124.444-105.779 124.444z" />
<glyph unicode="&#xe927;" glyph-name="location" d="M512 960c-179.93 0-330-144.94-330-330 0-70.404 21.156-133.184 61.758-192.011l242.988-379.163c11.786-18.432 38.746-18.393 50.508 0l244.044 380.45c39.726 56.163 60.704 122.11 60.704 190.723 0 181.962-148.041 330-330.001 330zM512 480c-82.706 0-150 67.294-150 150s67.294 150 150 150c82.705 0 150.001-67.294 150.001-150s-67.296-150-150.001-150zM746.53 270.668l-151.064-236.173c-39.102-60.967-128.048-60.767-166.962-0.059l-151.308 236.169c-133.128-30.779-215.196-87.167-215.196-154.546 0-116.926 231.856-180 450-180 218.146 0 449.999 63.074 449.999 180 0 67.428-82.183 123.845-215.469 154.609z" />
<glyph unicode="&#xe928;" glyph-name="meeting2" d="M315.075 426.091h53.154c-51.057 66.125-51.053 171.793 0.001 237.917h-47.136c90.402 164.542 331.574 164.429 421.929 0h-47.142c51.059-66.127 51.055-171.796 0-237.917h53.154c39.006 0 70.741 31.735 70.741 70.741v96.433c0 16.346-5.589 31.403-14.933 43.396-90.214 260.227-455.033 260.677-545.579-0.005-9.343-11.992-14.93-27.047-14.93-43.39v-96.435c0-39.006 31.735-70.741 70.742-70.741v0zM849.344 132.049c-27.405 125.956-142.451 255.433-317.239 255.45-167.676 0-288.123-122.048-317.51-255.083-7.511-35.307 19.476-68.527 55.479-68.514 113.339 0 414.414 0 524.063 0.35 35.733 0 62.438 32.802 55.206 67.797v0zM580.301 495.177h101.205c34.876 99.085-43.921 209.216-149.423 207.299-86.848 0.001-157.5-70.652-157.5-157.497 0.326-151.025 193.698-214.043 283.149-94.85h-77.431c-29.841 1.101-29.841 43.947 0 45.047z" />
<glyph unicode="&#xe929;" glyph-name="roles_and_permission" d="M306.421 504.866c0 6.913 5.414 12.517 12.093 12.517h73.668c4.945 0 9.392-3.116 11.228-7.868l19.348-50.066c0.577-1.492 0.865-3.068 0.865-4.648s-0.288-3.156-0.865-4.648l-19.348-50.064c-1.837-4.751-6.283-7.869-11.228-7.869h-73.668c-6.679 0-12.093 5.601-12.093 12.518v100.13zM500.007 966.492c7.99 0.411 15.997 0.411 23.984 0 58.348-2.998 111.703-34.881 218.409-98.647s160.061-95.649 191.744-146.448c4.337-6.957 8.34-14.133 11.991-21.5 26.665-53.797 26.665-117.563 26.665-245.096 0-127.535 0-191.299-26.665-245.095-3.651-7.368-7.654-14.546-11.991-21.499-31.683-50.801-85.038-82.683-191.744-146.452-106.706-63.764-160.061-95.647-218.409-98.647-7.987-0.41-15.994-0.41-23.984 0-58.345 3-111.699 34.883-218.407 98.647-106.708 63.77-160.062 95.652-191.743 146.452-4.339 6.953-8.342 14.131-11.993 21.499-26.664 53.796-26.664 117.56-26.664 245.095 0 127.533 0 191.299 26.664 245.096 3.652 7.368 7.654 14.543 11.993 21.5 31.681 50.799 85.035 82.682 191.743 146.448s160.062 95.649 218.407 98.647zM318.514 592.482c-46.751 0-84.65-39.227-84.65-87.616v-100.13c0-48.389 37.899-87.619 84.65-87.619h73.668c34.614 0 65.74 21.811 78.596 55.076l17.412 45.056h95.818c2.678-13.568 0.957-27.843-5.161-40.504l-2.555-5.284c-8.96-18.55-1.695-41.103 16.225-50.381 17.92-9.272 39.716-1.756 48.676 16.794l2.55 5.289c11.218 23.214 15.713 48.896 13.496 74.086h71.885c2.678-13.568 0.957-27.843-5.161-40.504l-2.555-5.284c-8.96-18.55-1.695-41.103 16.225-50.381 17.92-9.272 39.711-1.756 48.671 16.794l2.555 5.289c18.724 38.758 18.724 84.383 0 123.144-7.711 15.961-23.47 26.042-40.709 26.042h-138.675c-0.507 0.011-1.014 0.011-1.516 0h-119.769l-17.412 45.056c-12.855 33.264-43.982 55.076-78.596 55.076h-73.668z" />
<glyph unicode="&#xe92a;" glyph-name="user_analytics" d="M384.073 874.6c-111.786 0-202.666-90.88-202.666-202.666 0-109.654 85.76-198.4 197.546-202.24 3.414 0.426 6.827 0.426 9.387 0h2.986c52.452 1.75 102.169 23.83 138.634 61.572 36.47 37.742 56.832 88.186 56.781 140.668 0 111.786-90.882 202.666-202.669 202.666zM600.822 356.244c-119.042 79.36-313.175 79.36-433.069 0-54.186-36.27-84.053-85.335-84.053-137.815s29.866-101.12 83.626-136.96c59.734-40.105 138.24-60.16 216.746-60.16s157.014 20.055 216.749 60.16c53.76 36.265 83.625 84.905 83.625 137.815-0.425 52.48-29.865 101.12-83.625 136.96zM852.982 646.845c6.825-82.774-52.055-155.307-133.55-165.12h-2.13c-2.56 0-5.12 0-7.255-0.854-41.385-2.134-79.36 11.094-107.945 35.414 43.945 39.253 69.12 98.133 64 162.133-2.929 33.28-14.234 65.278-32.855 93.014 22.359 10.876 47.022 16.151 71.875 15.368 24.847-0.783 49.137-7.6 70.764-19.863s39.946-29.603 53.376-50.525c13.435-20.922 21.576-44.797 23.721-69.566zM938.235 252.078c-3.415-41.39-29.87-77.23-74.24-101.55-42.67-23.465-96.43-34.56-149.76-33.28 30.72 27.735 48.64 62.295 52.050 98.99 4.27 52.905-20.905 103.68-71.25 144.21-28.59 22.615-61.87 40.535-98.135 53.76 94.295 27.31 212.905 8.96 285.865-49.92 39.255-31.57 59.31-71.25 55.47-112.21z" />
<glyph unicode="&#xe92b;" glyph-name="rong" d="M377.985 684.415c-26.114 26.113-68.453 26.113-94.566 0s-26.114-68.453 0-94.566l141.849-141.849-141.849-141.849c-26.114-26.114-26.114-68.453 0-94.566s68.453-26.113 94.566 0l141.849 141.85 141.849-141.85c26.114-26.113 68.452-26.113 94.566 0s26.114 68.453 0 94.566l-141.849 141.849 141.849 141.849c26.114 26.114 26.114 68.453 0 94.566s-68.452 26.113-94.566 0l-141.849-141.85-141.849 141.85z" />
<glyph unicode="&#xe92c;" glyph-name="event" d="M394.457 300.82l-15.711-93.317c-1.053-6.246-0.344-12.667 2.047-18.534 2.391-5.873 6.37-10.957 11.49-14.689 5.128-3.727 11.194-5.944 17.516-6.41 6.321-0.461 12.646 0.845 18.263 3.784l83.897 43.791 83.897-43.802c4.874-2.534 10.291-3.86 15.785-3.871 7.050 0 14.080 2.207 20.009 6.497 5.125 3.727 9.108 8.817 11.505 14.684 2.391 5.873 3.098 12.293 2.043 18.545l-15.698 93.312 67.558 66.268c4.521 4.439 7.716 10.051 9.231 16.205 1.51 6.154 1.28 12.605-0.666 18.637-1.961 6.031-5.571 11.392-10.409 15.483-4.844 4.091-10.732 6.753-17.004 7.68l-93.609 13.88-42.163 84.742c-2.821 5.677-7.168 10.453-12.554 13.791s-11.597 5.106-17.934 5.104c-6.337-0.007-12.547-1.778-17.935-5.115s-9.739-8.109-12.569-13.779l-42.121-84.742-93.61-13.875c-6.27-0.922-12.157-3.584-16.997-7.675s-8.441-9.457-10.397-15.483c-1.962-6.026-2.202-12.483-0.692-18.642 1.51-6.154 4.711-11.766 9.241-16.205l67.587-66.263zM914.294 851.138h-107.187v59.456c0 6.489-1.28 12.914-3.763 18.909s-6.124 11.442-10.711 16.029c-4.593 4.588-10.035 8.227-16.031 10.709s-12.421 3.76-18.913 3.758h-7.834c-6.487 0-12.913-1.278-18.903-3.761-5.996-2.483-11.443-6.122-16.031-10.71s-8.223-10.034-10.706-16.029c-2.483-5.994-3.758-12.419-3.758-18.906v-59.456h-378.192v59.456c0 13.102-5.204 25.667-14.468 34.932s-21.829 14.471-34.93 14.474h-7.843c-6.488 0-12.912-1.278-18.906-3.761s-11.44-6.122-16.027-10.71c-4.587-4.588-8.225-10.034-10.707-16.029s-3.759-12.419-3.758-18.906v-59.456h-105.942c-56.060 0-101.684-45.607-101.684-101.684v-711.776c0-56.044 45.624-101.688 101.684-101.688h804.615c56.054 0 101.688 45.635 101.688 101.688v711.776c-0.010 56.076-45.645 101.684-101.693 101.684zM901.028 50.944h-778.078v554.074h778.078v-554.074z" />
<glyph unicode="&#xe92d;" glyph-name="search" d="M469.3 949.4c-229.751 0-416-186.25-416-416 0-229.748 186.249-415.998 416-415.998 229.749 0 415.999 186.25 415.999 415.998 0 229.75-186.25 416-415.999 416zM117.3 533.4c0 194.404 157.596 352 352 352 194.405 0 351.999-157.596 351.999-352s-157.594-351.998-351.999-351.998c-194.404 0-352 157.594-352 351.998zM833.265 214.692c-12.498 12.493-32.758 12.493-45.256 0-12.498-12.498-12.498-32.758 0-45.256l170.66-170.665c12.498-12.498 32.758-12.498 45.256 0s12.498 32.758 0 45.256l-170.66 170.665z" />
<glyph unicode="&#xe92e;" glyph-name="share" d="M768 274.053c-32.425 0-61.44-12.8-83.625-32.855l-304.215 177.070c2.134 9.81 3.84 19.625 3.84 29.865s-1.706 20.054-3.84 29.867l300.8 175.36c23.040-21.334 53.335-34.56 87.040-34.56 70.825 0 128 57.173 128 128s-57.175 128-128 128c-70.825 0-128-57.174-128-128 0-10.24 1.705-20.054 3.84-29.867l-300.8-175.36c-23.040 21.334-53.334 34.56-87.040 34.56-70.826 0-128-57.173-128-128 0-70.825 57.174-128 128-128 33.706 0 64 13.225 87.040 34.56l303.785-177.495c-2.13-8.96-3.41-18.345-3.41-27.73 0-68.695 55.89-124.59 124.585-124.59s124.585 55.895 124.585 124.59c0 68.69-55.89 124.585-124.585 124.585z" />
<glyph unicode="&#xe92f;" glyph-name="sms" d="M725.2 46.8h-426.6c-159.999 0-251.799 91.8-251.799 251.8v298.6c0 160 91.8 251.8 251.799 251.8h426.6c160 0 251.8-91.8 251.8-251.8v-298.6c0-160-91.8-251.8-251.8-251.8zM298.6 772.2c-117.799 0-174.999-57.2-174.999-175v-298.6c0-117.8 57.2-175 174.999-175h426.6c117.8 0 175 57.2 175 175v298.6c0 117.8-57.2 175-175 175h-426.6zM511.8 404.6c-37.4 0-74.8 11.6-104 34.8l-133.2 106.6c-16.6 13.2-19.2 37.4-6 54s37.4 19.2 54 6l133.2-106.6c29.8-23.8 82.2-23.8 112 0l133.6 106.6c16.6 13.2 40.8 10.6 54-6s10.6-40.8-6-54l-133.6-106.6c-29.2-23.2-66.6-34.8-104-34.8z" />
<glyph unicode="&#xe930;" glyph-name="sms_notification" d="M725.2 46.8h-426.6c-159.999 0-251.799 91.8-251.799 251.8v298.6c0 160 91.8 251.8 251.799 251.8h298.6c21.2 0 38.4-17.2 38.4-38.4s-17.2-38.4-38.4-38.4h-298.6c-117.799 0-174.999-57.2-174.999-175v-298.6c0-117.8 57.2-175 174.999-175h426.6c117.8 0 175 57.2 175 175v213.4c0 21.2 17.2 38.4 38.4 38.4s38.4-17.2 38.4-38.4v-213.4c0-160-91.8-251.8-251.8-251.8zM512.202 404.4c-37.4 0-74.8 11.6-104 34.8l-133.4 106.8c-16.6 13.2-19.2 37.4-6 54s37.4 19.2 54 6l133.6-106.6c29.8-23.8 82.2-23.8 112.2 0l50.4 40.2c16.6 13.2 40.8 10.4 54-6.2s10.4-40.8-6.2-54l-50.4-40.2c-29.4-23.2-66.8-34.8-104.2-34.8zM832 580.204c-80 0-145 65-145 145s65 144.999 145 144.999c80 0 145-65 145-144.999 0-79.8-65-145-145-145zM832 793.603c-37.6 0-68.2-30.6-68.2-68.199s30.6-68.2 68.2-68.2c37.6 0 68.2 30.6 68.2 68.2s-30.6 68.199-68.2 68.199z" />
<glyph unicode="&#xe931;" glyph-name="sms_star" d="M725.4 46.8h-426.8c-159.999 0-251.799 91.8-251.799 251.8v298.6c0 160 91.8 251.8 251.799 251.8h213.4c21.2 0 38.4-17.2 38.4-38.4s-17.2-38.4-38.4-38.4h-213.4c-117.799 0-174.999-57.2-174.999-175v-298.6c0-117.8 57.2-175 174.999-175h426.6c117.8 0 175 57.2 175 175v170.6c0 21.2 17.2 38.4 38.4 38.4s38.4-17.2 38.4-38.4v-170.6c0-160-91.8-251.8-251.6-251.8zM512.202 404.4c-37.4 0-74.8 11.6-104 34.8l-133.4 106.8c-16.6 13.2-19.2 37.4-6 54s37.4 19.2 54 6l133.6-106.6c29.8-23.8 82.2-23.8 112.2 0 16.6 13.2 40.8 10.4 54-6.2s10.4-40.8-6.2-54c-29.4-23.2-66.8-34.8-104.2-34.8zM713.8 537.4c-19 0-32.6 6.8-40.8 12.8-15.4 11.2-39 38.8-25 99v0.2l2 8c0.2 2.4-1.2 7.2-2.6 9.2l-14.4 14.4c-27.2 27.4-37.4 59.8-28 88.8 9.4 28.8 36.4 49 74.2 55.4 0.2 0 0.2 0 0.4 0l15.4 2.4c2 0.8 5.6 3.4 6.8 5.2l11.8 23.8c17.8 35.8 45.6 56.4 76.2 56.4s58.6-20.4 76.2-56.2c0 0 0 0 0-0.2l11.8-23.8c1.2-1.8 5-4.6 7.2-5.2l15-2.4c0.2 0 0.2 0 0.4 0 37.8-6.2 64.8-26.4 74.2-55.4s-0.8-61.4-28-88.8l-14.4-14.4c-1.4-2-2.8-6.8-2.6-9.2l2-8c0-0.2 0-0.4 0.2-0.4 13.4-60-10.2-87.6-25.6-98.6-15.2-11-48.4-24.8-100.6 6.4l-10.8 6.2c-2.2 1-7.4 1-9.6 0l-10.6-6.2c-24.8-14.6-44.8-19.4-60.8-19.4zM722.6 631.8c-1.6-7-2.2-12.2-2.2-16 3.4 1.2 8.2 3.4 14 6.8 0.2 0.2 0.4 0.2 0.6 0.4l11 6.4c25 14.4 61.2 14.4 86.2 0l11-6.4c0.2-0.2 0.4-0.2 0.6-0.4 5.8-3.6 10.6-5.6 14-6.8 0 3.8-0.6 9-2 16l-2 8.8c0 0.2-0.2 0.4-0.2 0.6-5.6 26 3.6 59 22.2 78.4 0.2 0.2 0.4 0.4 0.6 0.6l14.8 14.8c4.8 4.8 7 8.4 8.2 10.8-2.2 1.2-6 2.6-12.2 3.6l-16 2.6c-0.4 0-0.8 0.2-1.4 0.2-25.2 4.8-49.8 23.4-61.2 46.2 0 0 0 0.2-0.2 0.2l-12 24.2c-2.8 5.6-5.4 9.2-7.4 11.4-2-2.2-4.6-5.8-7.4-11.6l-11.6-24c0 0 0-0.2-0.2-0.2-11.6-23-37.2-42.2-62.2-46.4-0.2 0-0.2 0-0.4 0l-16-2.6c-6.2-1-10-2.6-12.2-3.6 1.2-2.2 3.4-6 8.2-10.8l14.8-14.8c0.2-0.2 0.4-0.4 0.6-0.6 18.6-19.4 27.8-52.2 22.2-78.2 0-0.2-0.2-0.4-0.2-0.6l-2-9z" />
<glyph unicode="&#xe932;" glyph-name="sms_tracking" d="M725.4 46.8h-426.8c-21.2 0-38.4 17.2-38.4 38.4s17.2 38.4 38.4 38.4h426.6c117.8 0 175 57.2 175 175v298.6c0 117.8-57.2 175-175 175h-426.6c-117.799 0-174.999-57.2-174.999-175 0-21.2-17.2-38.4-38.4-38.4s-38.4 17.2-38.4 38.4c0 160 91.8 251.8 251.799 251.8h426.6c160 0 251.8-91.8 251.8-251.8v-298.6c0-160-91.8-251.8-251.6-251.8zM511.8 404.6c-37.4 0-74.8 11.6-103.8 34.8l-133.4 106.6c-16.6 13.2-19.2 37.4-6 54s37.4 19.2 54 6l133.2-106.6c29.8-23.8 82.2-23.8 112 0l133.4 106.6c16.6 13.2 40.8 10.6 54-6s10.6-40.8-6-54l-133.6-106.6c-29-23.2-66.4-34.8-103.8-34.8zM341.4 217.598h-256c-21.2 0-38.4 17.2-38.4 38.4s17.2 38.4 38.4 38.4h256c21.2 0 38.4-17.2 38.4-38.4s-17.2-38.4-38.4-38.4zM213.4 388.2h-128c-21.2 0-38.4 17.2-38.4 38.4s17.2 38.4 38.4 38.4h128c21.2 0 38.4-17.2 38.4-38.4s-17.2-38.4-38.4-38.4z" />
<glyph unicode="&#xe933;" glyph-name="sofa" d="M128.099 182.076l-9.588-38.37c-3.572-14.293-0.424-29.129 8.639-40.734s22.707-18.266 37.422-18.266c21.819 0 40.772 14.793 46.060 35.968l15.239 60.915h-85.278c-4.198 0-8.376 0.162-12.494 0.486zM895.859 182.076c-4.117-0.324-8.294-0.486-12.493-0.486h-85.257l15.219-60.915c2.556-10.278 8.482-19.405 16.828-25.924 8.35-6.519 18.641-10.057 29.231-10.044 14.716 0 28.361 6.66 37.423 18.266s12.211 26.441 8.64 40.734l-9.591 38.37zM94.169 633.309c51.369-4.259 94.663-42.286 104.917-93.513l24.847-124.253c2.785-13.926 15.118-24.038 29.327-24.038h517.441c14.208 0 26.543 10.112 29.325 24.038l24.849 124.253c9.527 47.614 47.612 83.825 94.178 92.12l4.058 22.687c6.942 38.935-3.635 78.657-29.026 108.994s-62.652 47.735-102.212 47.735h-570.947c-40.449 0-78.234-18.044-103.665-49.491-25.432-31.467-35.161-72.198-26.683-111.739l3.593-16.793zM1001.199 574.703c-15.927 17.021-38.43 26.784-61.739 26.784-9.242 0-18.193-1.53-26.607-4.337l0.004 0.018c-28.339-9.28-50.645-34.325-56.299-63.642l-24.849-124.245c-5.794-28.971-31.445-50.001-60.996-50.001h-517.426c-29.548 0-55.2 21.030-60.995 50.001l-24.849 124.245c-6.233 32.724-33.376 59.864-66.048 66.246l0.002-0.008c-28.292 6.003-58.934-3.843-78.593-25.061-15.925-17.023-24.17-40.124-22.62-63.381l11.251-168.747c0.297-69.461 55.706-126.123 124.665-128.508l-0.008-0.034c1.494-0.060 3.008-0.081 4.521-0.081h742.774c1.515 0 3.029 0.021 4.523 0.081l-0.009 0.034c68.958 2.385 124.369 59.046 124.663 128.508l11.251 168.747c1.549 23.257-6.694 46.36-22.618 63.381z" />
<glyph unicode="&#xe934;" glyph-name="specker" d="M993.997 598h-121.999c-16.579 0-29.998-13.418-29.998-30s13.42-30 29.998-30h121.999c16.584 0 30.003 13.418 30.003 30s-13.42 30-30.003 30zM1020.846 761.42c-7.414 14.824-25.431 20.8-40.253 13.418l-121.999-60c-14.822-7.412-20.828-25.43-13.42-40.254 7.373-14.698 25.283-20.852 40.253-13.418l121.999 60c14.822 7.412 20.828 25.43 13.42 40.254zM1007.427 414.858l-121.999 60c-14.822 7.324-32.783 1.436-40.253-13.418-7.409-14.822-1.403-32.84 13.42-40.253l121.999-60.001c14.971-7.434 32.881-1.28 40.253 13.42 7.409 14.822 1.403 32.84-13.42 40.253zM722.002 898c-33.142 0-60.001-26.862-60.001-60v-599.992c0-33.137 26.86-60.001 60.001-60.001 33.137 0 59.996 26.865 59.996 60.001v599.992c0 33.14-26.86 60-59.996 60zM361.088 263.45c-2.278-14.3-14.142-25.452-29.080-25.452h-36.738c-2.586 0-4.896-0.855-7.288-1.464l-4.886 52.91-25.678 8.556h-157.718l25.004-231.854c12.266-48.957 61.818-77.425 109.128-65.449 48.134 12.012 77.52 60.964 66.27 104.617l-6.75 73.073c0.666-0.046 1.234-0.384 1.916-0.384h36.74c41.386 0 75.974 28.227 86.438 66.324l-57.358 19.123zM302 729.606v-383.223l299.994-99.994v583.21l-299.994-99.994zM89.998 718c-49.626 0-89.998-40.372-89.998-89.998v-179.998c0-49.627 40.372-89.998 89.998-89.998h151.998v359.994h-151.998z" />
<glyph unicode="&#xe935;" glyph-name="star" d="M512 928l150.47-304.892 336.474-48.892-243.475-237.325 57.478-335.106-300.947 158.214-300.946-158.214 57.475 335.106-243.47 237.325 336.468 48.892 150.473 304.892z" />
<glyph unicode="&#xe936;" glyph-name="table" d="M1023.774 627.441c-0.299 5.323-2.492 10.362-6.191 14.203v0.111l-155.84 155.843c-2.074 2.083-4.535 3.736-7.249 4.864s-5.619 1.707-8.559 1.705h-670.502c-2.957-0.003-5.883-0.596-8.608-1.742s-5.195-2.825-7.264-4.937l-153.238-155.843c-1.737-1.839-3.146-3.962-4.164-6.278-0.311-0.668-0.468-1.359-0.712-2.047-0.662-1.904-1.058-3.889-1.179-5.901 0-0.467-0.267-0.868-0.267-1.359v-66.79c0-0.311 0.157-0.578 0.177-0.868 0.050-2.64 0.578-5.251 1.559-7.704 0-0.157 0.177-0.29 0.244-0.445 1.012-2.224 2.389-4.264 4.074-6.034 0.53-0.526 1.087-1.025 1.67-1.492 1.416-1.251 2.987-2.314 4.675-3.162 0.678-0.365 1.378-0.691 2.093-0.979 2.452-0.985 5.061-1.521 7.704-1.58h66.789v-423.001c0-12.297 9.969-22.263 22.264-22.263h22.264c12.296 0 22.264 9.967 22.264 22.263v423.003h66.79v-244.896c0-12.292 9.968-22.263 22.264-22.263h22.264c12.296 0 22.264 9.971 22.264 22.263v244.896h445.263v-244.896c0-12.292 9.967-22.263 22.263-22.263h22.263c12.297 0 22.263 9.971 22.263 22.263v244.896h66.79v-422.999c0-12.297 9.967-22.263 22.263-22.263h22.263c12.297 0 22.263 9.967 22.263 22.263v422.999h66.79c2.667 0.052 5.299 0.587 7.77 1.58 0.725 0.294 1.429 0.628 2.116 1.002 1.677 0.843 3.243 1.898 4.651 3.139 0.585 0.474 1.139 0.981 1.673 1.513 1.651 1.741 3.004 3.741 4.006 5.921 0 0.201 0.222 0.334 0.311 0.534 0.973 2.461 1.493 5.078 1.536 7.725 0 0.29 0.158 0.511 0.158 0.801v66.833c0.034 0.493-0.209 0.893-0.23 1.384z" />
<glyph unicode="&#xe937;" d="M512 960c282.77 0 512-229.23 512-512s-229.23-512-512-512c-282.77 0-512 229.23-512 512s229.23 512 512 512z" />
<glyph unicode="&#xe938;" d="M726.278 506.556c0.89-3.556 0.89-8.001 0.89-11.557 0-123.554-94.222-265.776-265.779-265.776-52.443 0-102.221 15.11-143.11 41.776 7.111-0.887 15.11-0.887 22.221-0.887 43.557 0 84.446 14.222 116.446 39.999-41.779 0.89-75.557 27.557-87.111 64.89 5.333-0.89 11.554-1.778 16.887-1.778 8.889 0 16.89 0.887 24.889 2.665-42.667 8.889-74.667 46.222-74.667 91.557 0 0.887 0 0.887 0 1.778 12.444-7.111 26.667-11.557 41.779-12.444-24.889 16.887-41.779 45.332-41.779 78.222 0 16.887 5.333 32.887 13.335 47.11 45.332-56.889 114.665-94.222 192-97.778-1.778 7.111-2.668 14.222-2.668 21.333 0 51.556 41.779 93.335 93.335 93.335 27.554 0 51.556-11.557 68.443-29.335 21.333 3.556 41.779 11.557 59.557 22.224-7.111-21.333-22.224-40.001-40.889-51.556 18.665 2.665 36.443 7.111 53.333 15.11-12.444-18.665-28.444-35.556-47.113-48.887z" />
<glyph unicode="&#xe939;" glyph-name="Upload" d="M298.667 480c-17.673 0-32-14.327-32-32s14.327-32 32-32h341.333v-96c0-39.637 0-59.456-2.628-76.041-14.455-91.281-86.050-162.876-177.331-177.331-16.585-2.628-36.403-2.628-76.041-2.628s-59.456 0-76.039 2.628c-91.284 14.455-162.877 86.050-177.334 177.331-2.627 16.585-2.627 36.403-2.627 76.041v256c0 39.638 0 59.456 2.627 76.039 14.458 91.284 86.051 162.876 177.334 177.334 16.583 2.627 36.401 2.627 76.039 2.627s59.456 0 76.041-2.627c91.281-14.458 162.876-86.050 177.331-177.334 2.628-16.583 2.628-36.401 2.628-76.039v-96h-341.333zM640 480h205.248c-13.973 13.769-34.539 30.135-64.576 53.951l-75.221 59.642c-13.845 10.98-16.171 31.107-5.193 44.956 10.982 13.848 31.108 16.173 44.958 5.193l76.749-60.853c28.689-22.749 52.369-41.521 69.235-58.322 17.31-17.242 31.654-36.382 35.554-60.834 0.828-5.21 1.246-10.466 1.246-15.731s-0.418-10.522-1.246-15.731c-3.9-24.452-18.244-43.593-35.554-60.834-16.866-16.802-40.542-35.571-69.235-58.321l-76.749-60.855c-13.85-10.978-33.975-8.653-44.958 5.193-10.978 13.85-8.653 33.975 5.193 44.958l75.221 59.639c30.037 23.817 50.603 40.183 64.576 53.952h-205.248v64z" />
<glyph unicode="&#xe93a;" glyph-name="up_arrow" d="M577.81 715.52v-779.52h-131.62v779.52l-352.74-344.32-93.45 90.88 512 497.92 512-497.92-93.45-90.88-352.74 344.32z" />
<glyph unicode="&#xe93b;" glyph-name="yes" d="M416 213.398c-16 0-32.2 6-44.6 18l-160 155.2c-25.399 24.6-25.999 65.2-1.4 90.4s65.2 26 90.4 1.4l115.4-112 307.4 298.2c25.4 24.6 65.8 24 90.4-1.4s24-65.8-1.4-90.4l-352-341.4c-12-12-28.2-18-44.2-18z" />
<glyph unicode="&#xe93c;" glyph-name="seating-items" d="M581.642 305.802l-16.886-214.886c-2.171-27.648 18.478-51.82 46.126-53.99 26.045-2.058 49.070 16.195 53.407 41.533v227.343h-82.647zM945.459 95.544l-36.393 210.258h-88.013v-80.328l25.452-147.057c4.731-27.346 30.74-45.64 58.040-40.914 27.325 4.731 45.645 30.72 40.914 58.040zM747.674 756.348c47.898 0 86.728 38.829 86.728 86.726s-38.83 86.726-86.728 86.726c-47.892 0-86.723-38.828-86.723-86.726s38.83-86.726 86.723-86.726zM289.486 696.228c53.343 0 96.586 43.243 96.586 96.586s-43.243 96.586-96.586 96.586c-53.343 0-96.586-43.243-96.586-96.586s43.243-96.586 96.586-96.586zM951.398 427.812h-374.712c19.246 6.057 32.348 24.873 30.403 45.775-2.243 24.066-23.572 41.768-47.631 39.514l-183.173-17.058-113.256 118.546 99.122-62.462 0.73 25.78c1.156 40.694-31.118 74.54-71.804 75.344l-67.396 1.334c-40.74 0.806-75.55-31.816-75.954-72.544v-248.535c-0.24-24.474 10.576-48.113 32.068-62.111h-45.568l-62.45 317.715c-3.86 19.632-22.904 32.42-42.532 28.556-19.63-3.858-32.416-22.9-28.558-42.53l68.2-346.949c1.645-8.376 6.201-15.898 12.862-21.238v-216.735c0-13.338 10.812-24.151 24.15-24.151s24.15 10.813 24.15 24.151v88.428h216.214l0.98-2.54-15.114-38.19c-10.672-26.967 2.542-57.482 29.508-68.152 26.972-10.67 57.48 2.54 68.152 29.507 127.641 322.555 119.772 302.259 120.965 306.534 4.695 16.942 0.742 35.753-11.95 49.556h167.639v-316.846h-49.556c-20.004 0-36.219-16.215-36.219-36.224 0-20.004 16.215-36.224 36.219-36.224h171.561c20.004 0 36.219 16.22 36.219 36.224 0 20.009-16.215 36.224-36.219 36.224h-49.562v316.851h172.508c20.009 0 36.224 16.215 36.224 36.224 0 20.004-16.22 36.224-36.219 36.224zM130.049 126.94v72.013h169.816l27.772-72.013h-197.588zM373.459 142.351l-21.828 56.602h6.364c20.006 0 36.222 16.215 36.222 36.224 0 13.701-7.61 25.62-18.832 31.775l47.434 0.138-49.36-124.739zM497.713 391.588c0-6.395 1.701-12.667 4.928-18.186h-160.894c-10.152 0.005-20.134 2.611-28.996 7.562-8.862 4.956-16.308 12.093-21.63 20.741-32.33 52.488-98.308 159.586-97.974 158.944-0.162 0.278-0.442 0.848-0.442 0.848l134.916-141.217c4.559-4.772 10.138-8.453 16.32-10.762s12.807-3.195 19.378-2.58l149.316 13.906c-9.030-6.589-14.922-17.224-14.922-29.256zM1020.037 534.14l-61.891 130.892c-18.314 38.738-57.836 63.768-100.68 63.768h-220.042c-42.849 0-82.371-25.032-100.68-63.768l-53.145-112.428 71.572 6.664c7.91 0.736 15.882 0.424 23.711-0.928l33.531 70.932c0.113 0.234 0.22 0.468 0.343 0.696 1.275 2.509 3.354 4.516 5.908 5.695s5.437 1.465 8.172 0.808c2.739-0.656 5.171-2.216 6.912-4.427 1.746-2.211 2.688-4.944 2.688-7.758v-27.48l27.991 0.072v50.14c0 5.99 5.709 10.336 11.479 8.75l71.849-19.754 71.854 19.754c5.775 1.588 11.479-2.766 11.479-8.75v-50.522h26.993v27.708c0 5.878 4.029 10.99 9.748 12.364 5.714 1.374 11.638-1.346 14.3-6.586 0.123-0.236 0.241-0.476 0.353-0.716l33.423-70.7h-95.247c-23.219 0-42.045-18.826-42.045-42.048s18.826-42.048 42.045-42.048h161.306c31.227-0.002 50.893 32.566 38.072 59.67zM703.196 546.154c-3.896 3.891-8.525 6.975-13.614 9.076s-10.547 3.178-16.056 3.17c-38.41-0.066-89.969-0.154-94.577-0.166 38.088-6.61 68.767-37.37 73.871-77.24v-6.616h20.628c23.219 0 42.045 18.826 42.045 42.048v0.082c0 5.507-1.085 10.96-3.195 16.047s-5.202 9.708-9.103 13.599z" />
<glyph unicode="&#xe93d;" glyph-name="bar_icon" d="M972.8 755.2c0-28.277-22.923-51.2-51.2-51.2v0h-819.2c-28.277 0-51.2 22.923-51.2 51.2s22.923 51.2 51.2 51.2v0h819.2c28.277 0 51.2-22.923 51.2-51.2v0zM972.8 448c0-28.277-22.923-51.2-51.2-51.2v0h-819.2c-28.277 0-51.2 22.923-51.2 51.2s22.923 51.2 51.2 51.2v0h819.2c28.277 0 51.2-22.923 51.2-51.2v0zM921.6 89.6c28.277 0 51.2 22.923 51.2 51.2s-22.923 51.2-51.2 51.2v0h-819.2c-28.277 0-51.2-22.923-51.2-51.2s22.923-51.2 51.2-51.2v0h819.2z" />
<glyph unicode="&#xe93e;" glyph-name="play" d="M453.030 599.186c3.653 0.41 11.536-0.29 30.28-9.505 18.502-9.095 42.161-23.612 76.539-44.768 34.36-21.147 58.005-35.742 74.682-48.302 16.682-12.562 21.965-19.954 24.027-24.892 6.288-15.053 6.288-32.386 0-47.439-2.062-4.938-7.345-12.33-24.027-24.893-16.677-12.558-40.322-27.155-74.682-48.3-34.378-21.155-58.038-35.672-76.539-44.767-18.744-9.216-26.626-9.914-30.28-9.505-13.569 1.517-26.612 9.183-35.445 22.142-2.983 4.375-6.483 13.321-8.394 35.523-1.887 21.932-1.918 51.312-1.918 93.519s0.031 71.589 1.918 93.519c1.911 22.205 5.411 31.148 8.394 35.524 8.832 12.959 21.876 20.623 35.445 22.143zM11.636 448c0 276.343 224.020 500.364 500.364 500.364s500.364-224.020 500.364-500.364c0-276.345-224.019-500.364-500.364-500.364-276.343 0-500.364 224.019-500.364 500.364zM594.883 605.33c-32.442 19.967-58.931 36.271-80.775 47.008-21.946 10.79-44.8 18.927-68.852 16.233-34.765-3.895-65.63-23.253-85.363-52.205-13.393-19.649-18.080-43.498-20.263-68.859-2.176-25.286-2.176-57.694-2.176-97.835v-3.342c0-40.141-0.001-72.55 2.176-97.834 2.183-25.363 6.87-49.213 20.263-68.859 19.734-28.951 50.599-48.31 85.363-52.205 24.052-2.695 46.906 5.441 68.852 16.23 21.844 10.738 48.333 27.043 80.775 47.011l3.077 1.89c32.475 19.987 58.954 36.282 78.573 51.056 19.912 14.997 37.181 31.562 46.448 53.755 13.48 32.27 13.48 68.985 0 101.256-9.267 22.191-26.536 38.756-46.448 53.754-19.619 14.774-46.099 31.070-78.573 51.056l-3.077 1.891z" />
<glyph unicode="&#xe93f;" glyph-name="view" d="M920.93 430.394c-82.63-148.386-239.334-240.564-408.876-240.564-169.652 0-326.354 92.178-408.986 240.564-6.364 11.522-6.364 23.702 0 35.214 82.632 148.384 239.334 240.552 408.986 240.552 169.542 0 326.244-92.168 408.876-240.552 6.476-11.512 6.476-23.692 0-35.214zM973.714 495.028c-93.276 167.534-270.17 271.596-461.66 271.596-191.6 0-368.494-104.062-461.77-271.596-16.68-29.892-16.68-64.162 0-94.032 93.276-167.534 270.17-271.618 461.77-271.618 191.49 0 368.384 104.084 461.66 271.618 16.68 29.868 16.68 64.14 0 94.032zM512.054 323.972c68.366 0 124.002 55.636 124.002 124.034s-55.636 124.034-124.002 124.034c-68.476 0-124.112-55.636-124.112-124.034s55.638-124.034 124.112-124.034zM512.054 632.504c-101.836 0-184.576-82.774-184.576-184.5 0-101.748 82.742-184.488 184.576-184.488 101.726 0 184.466 82.742 184.466 184.488 0 101.726-82.74 184.5-184.466 184.5z" />
</font>
</defs>
</svg>
