<svg width="218" height="54" viewBox="0 0 218 54" fill="none" xmlns="http://www.w3.org/2000/svg">
<path d="M18.9609 11H24.9343C34.3601 11 42.0012 18.6411 42.0012 28.0669V28.0669C42.0012 37.4927 34.3601 45.1338 24.9343 45.1338H18.9609V11Z" fill="#3062D4"/>
<path d="M26.6406 22.9453H29.2007C32.0284 22.9453 34.3207 25.2376 34.3207 28.0654V28.0654C34.3207 30.8931 32.0284 33.1854 29.2007 33.1854H26.6406V22.9453Z" fill="white"/>
<g filter="url(#filter0_f_1731_17)">
<rect x="16.8281" y="16.543" width="6.40008" height="20.9069" fill="#3062D4"/>
</g>
<rect x="10" y="11" width="9.81346" height="34.1338" fill="#3062D4"/>
<path d="M54.184 37V20.2H61.096C62.312 20.2 63.424 20.408 64.432 20.824C65.44 21.224 66.304 21.8 67.024 22.552C67.744 23.288 68.296 24.176 68.68 25.216C69.064 26.24 69.256 27.368 69.256 28.6C69.256 29.848 69.064 30.984 68.68 32.008C68.296 33.032 67.744 33.92 67.024 34.672C66.304 35.408 65.44 35.984 64.432 36.4C63.44 36.8 62.328 37 61.096 37H54.184ZM57.784 34.36L57.4 33.76H60.976C61.696 33.76 62.336 33.64 62.896 33.4C63.472 33.16 63.96 32.816 64.36 32.368C64.776 31.904 65.088 31.36 65.296 30.736C65.504 30.096 65.608 29.384 65.608 28.6C65.608 27.816 65.504 27.112 65.296 26.488C65.088 25.848 64.776 25.304 64.36 24.856C63.96 24.392 63.472 24.04 62.896 23.8C62.336 23.56 61.696 23.44 60.976 23.44H57.328L57.784 22.888V34.36ZM79.0641 37V29.056C79.0641 28.384 78.8561 27.872 78.4401 27.52C78.0401 27.152 77.4961 26.968 76.8081 26.968C76.1521 26.968 75.5681 27.096 75.0561 27.352C74.5441 27.608 74.0641 28.008 73.6161 28.552L71.5281 26.536C72.2961 25.736 73.1521 25.12 74.0961 24.688C75.0561 24.256 76.0961 24.04 77.2161 24.04C78.2401 24.04 79.1281 24.2 79.8801 24.52C80.6481 24.84 81.2401 25.32 81.6561 25.96C82.0721 26.6 82.2801 27.408 82.2801 28.384V37H79.0641ZM75.5841 37.24C74.7841 37.24 74.0561 37.08 73.4001 36.76C72.7601 36.44 72.2481 36 71.8641 35.44C71.4961 34.864 71.3121 34.192 71.3121 33.424C71.3121 32.768 71.4321 32.192 71.6721 31.696C71.9121 31.184 72.2641 30.768 72.7281 30.448C73.2081 30.112 73.8001 29.856 74.5041 29.68C75.2241 29.504 76.0561 29.416 77.0001 29.416H80.7441L80.5281 31.696H76.9521C76.5681 31.696 76.2241 31.728 75.9201 31.792C75.6321 31.856 75.3841 31.96 75.1761 32.104C74.9841 32.248 74.8321 32.416 74.7201 32.608C74.6241 32.8 74.5761 33.024 74.5761 33.28C74.5761 33.552 74.6481 33.792 74.7921 34C74.9361 34.208 75.1281 34.368 75.3681 34.48C75.6241 34.592 75.9121 34.648 76.2321 34.648C76.6961 34.648 77.1361 34.568 77.5521 34.408C77.9841 34.248 78.3681 34.024 78.7041 33.736C79.0401 33.448 79.3041 33.12 79.4961 32.752L80.1441 34.456C79.8081 35 79.4001 35.48 78.9201 35.896C78.4401 36.312 77.9201 36.64 77.3601 36.88C76.8001 37.12 76.2081 37.24 75.5841 37.24ZM89.6166 37.24C88.4486 37.24 87.4006 37.048 86.4726 36.664C85.5606 36.28 84.8166 35.736 84.2406 35.032L86.3766 33.208C86.8726 33.736 87.4166 34.12 88.0086 34.36C88.6166 34.584 89.2326 34.696 89.8566 34.696C90.0806 34.696 90.2886 34.672 90.4806 34.624C90.6726 34.56 90.8406 34.48 90.9846 34.384C91.1286 34.272 91.2326 34.144 91.2966 34C91.3766 33.856 91.4166 33.688 91.4166 33.496C91.4166 33.144 91.2726 32.872 90.9846 32.68C90.8566 32.584 90.6166 32.48 90.2646 32.368C89.9286 32.24 89.4966 32.104 88.9686 31.96C88.1526 31.752 87.4646 31.512 86.9046 31.24C86.3446 30.952 85.8886 30.624 85.5366 30.256C85.2486 29.952 85.0246 29.6 84.8646 29.2C84.7206 28.8 84.6486 28.36 84.6486 27.88C84.6486 27.112 84.8726 26.44 85.3206 25.864C85.7686 25.288 86.3606 24.84 87.0966 24.52C87.8486 24.2 88.6646 24.04 89.5446 24.04C90.2006 24.04 90.8326 24.12 91.4406 24.28C92.0646 24.44 92.6406 24.672 93.1686 24.976C93.7126 25.264 94.1846 25.608 94.5846 26.008L92.7606 28.048C92.4726 27.76 92.1446 27.512 91.7766 27.304C91.4086 27.08 91.0406 26.904 90.6726 26.776C90.3046 26.632 89.9686 26.56 89.6646 26.56C89.3926 26.56 89.1446 26.584 88.9206 26.632C88.7126 26.68 88.5366 26.76 88.3926 26.872C88.2486 26.968 88.1366 27.088 88.0566 27.232C87.9926 27.376 87.9606 27.536 87.9606 27.712C87.9606 27.888 88.0006 28.056 88.0806 28.216C88.1766 28.36 88.3046 28.496 88.4646 28.624C88.6246 28.72 88.8806 28.832 89.2326 28.96C89.6006 29.088 90.0726 29.232 90.6486 29.392C91.4166 29.6 92.0646 29.832 92.5926 30.088C93.1206 30.344 93.5446 30.64 93.8646 30.976C94.1526 31.264 94.3526 31.6 94.4646 31.984C94.5926 32.352 94.6566 32.752 94.6566 33.184C94.6566 33.968 94.4326 34.672 93.9846 35.296C93.5526 35.904 92.9526 36.384 92.1846 36.736C91.4326 37.072 90.5766 37.24 89.6166 37.24ZM97.1103 37V19.24H100.494V26.896L99.8223 27.184C99.9823 26.608 100.294 26.088 100.758 25.624C101.222 25.144 101.774 24.76 102.414 24.472C103.054 24.184 103.718 24.04 104.406 24.04C105.366 24.04 106.166 24.232 106.806 24.616C107.462 25 107.95 25.584 108.27 26.368C108.606 27.136 108.774 28.096 108.774 29.248V37H105.366V29.488C105.366 28.912 105.286 28.432 105.126 28.048C104.966 27.664 104.726 27.384 104.406 27.208C104.086 27.032 103.678 26.952 103.182 26.968C102.798 26.968 102.446 27.032 102.126 27.16C101.806 27.272 101.518 27.44 101.262 27.664C101.022 27.888 100.838 28.144 100.71 28.432C100.582 28.72 100.518 29.04 100.518 29.392V37H98.8143C98.4623 37 98.1423 37 97.8543 37C97.5663 37 97.3183 37 97.1103 37ZM119.856 37V20.2H123.144L129.24 30.136L127.104 30.112L133.296 20.2H136.464V37H132.936V31.312C132.936 29.856 132.968 28.544 133.032 27.376C133.112 26.208 133.24 25.056 133.416 23.92L133.824 25.048L128.904 32.656H127.296L122.496 25.096L122.88 23.92C123.072 24.992 123.2 26.096 123.264 27.232C123.344 28.368 123.384 29.728 123.384 31.312V37H119.856ZM147.361 37V29.056C147.361 28.384 147.153 27.872 146.737 27.52C146.337 27.152 145.793 26.968 145.105 26.968C144.449 26.968 143.865 27.096 143.353 27.352C142.841 27.608 142.361 28.008 141.913 28.552L139.825 26.536C140.593 25.736 141.449 25.12 142.393 24.688C143.353 24.256 144.393 24.04 145.513 24.04C146.537 24.04 147.425 24.2 148.177 24.52C148.945 24.84 149.537 25.32 149.953 25.96C150.369 26.6 150.577 27.408 150.577 28.384V37H147.361ZM143.881 37.24C143.081 37.24 142.353 37.08 141.697 36.76C141.057 36.44 140.545 36 140.161 35.44C139.793 34.864 139.609 34.192 139.609 33.424C139.609 32.768 139.729 32.192 139.969 31.696C140.209 31.184 140.561 30.768 141.025 30.448C141.505 30.112 142.097 29.856 142.801 29.68C143.521 29.504 144.353 29.416 145.297 29.416H149.041L148.825 31.696H145.249C144.865 31.696 144.521 31.728 144.217 31.792C143.929 31.856 143.681 31.96 143.473 32.104C143.281 32.248 143.129 32.416 143.017 32.608C142.921 32.8 142.873 33.024 142.873 33.28C142.873 33.552 142.945 33.792 143.089 34C143.233 34.208 143.425 34.368 143.665 34.48C143.921 34.592 144.209 34.648 144.529 34.648C144.993 34.648 145.433 34.568 145.849 34.408C146.281 34.248 146.665 34.024 147.001 33.736C147.337 33.448 147.601 33.12 147.793 32.752L148.441 34.456C148.105 35 147.697 35.48 147.217 35.896C146.737 36.312 146.217 36.64 145.657 36.88C145.097 37.12 144.505 37.24 143.881 37.24ZM153.642 37V24.304H156.93L157.026 26.896L156.354 27.184C156.514 26.608 156.826 26.088 157.29 25.624C157.754 25.144 158.306 24.76 158.946 24.472C159.586 24.184 160.25 24.04 160.938 24.04C161.898 24.04 162.698 24.232 163.338 24.616C163.994 25 164.482 25.584 164.802 26.368C165.138 27.136 165.306 28.096 165.306 29.248V37H161.898V29.488C161.898 28.912 161.818 28.432 161.658 28.048C161.498 27.664 161.258 27.384 160.938 27.208C160.618 27.032 160.21 26.952 159.714 26.968C159.33 26.968 158.978 27.032 158.658 27.16C158.338 27.272 158.05 27.44 157.794 27.664C157.554 27.888 157.37 28.144 157.242 28.432C157.114 28.72 157.05 29.04 157.05 29.392V37H155.346C154.994 37 154.674 37 154.386 37C154.098 37 153.85 37 153.642 37ZM175.603 37V29.056C175.603 28.384 175.395 27.872 174.979 27.52C174.579 27.152 174.035 26.968 173.347 26.968C172.691 26.968 172.107 27.096 171.595 27.352C171.083 27.608 170.603 28.008 170.155 28.552L168.067 26.536C168.835 25.736 169.691 25.12 170.635 24.688C171.595 24.256 172.635 24.04 173.755 24.04C174.779 24.04 175.667 24.2 176.419 24.52C177.187 24.84 177.779 25.32 178.195 25.96C178.611 26.6 178.819 27.408 178.819 28.384V37H175.603ZM172.123 37.24C171.323 37.24 170.595 37.08 169.939 36.76C169.299 36.44 168.787 36 168.403 35.44C168.035 34.864 167.851 34.192 167.851 33.424C167.851 32.768 167.971 32.192 168.211 31.696C168.451 31.184 168.803 30.768 169.267 30.448C169.747 30.112 170.339 29.856 171.043 29.68C171.763 29.504 172.595 29.416 173.539 29.416H177.283L177.067 31.696H173.491C173.107 31.696 172.763 31.728 172.459 31.792C172.171 31.856 171.923 31.96 171.715 32.104C171.523 32.248 171.371 32.416 171.259 32.608C171.163 32.8 171.115 33.024 171.115 33.28C171.115 33.552 171.187 33.792 171.331 34C171.475 34.208 171.667 34.368 171.907 34.48C172.163 34.592 172.451 34.648 172.771 34.648C173.235 34.648 173.675 34.568 174.091 34.408C174.523 34.248 174.907 34.024 175.243 33.736C175.579 33.448 175.843 33.12 176.035 32.752L176.683 34.456C176.347 35 175.939 35.48 175.459 35.896C174.979 36.312 174.459 36.64 173.899 36.88C173.339 37.12 172.747 37.24 172.123 37.24ZM187.668 42.52C186.676 42.52 185.684 42.376 184.692 42.088C183.716 41.8 182.924 41.416 182.316 40.936L183.516 38.488C184.028 38.84 184.612 39.12 185.268 39.328C185.94 39.536 186.628 39.64 187.332 39.64C188.18 39.64 188.868 39.512 189.396 39.256C189.94 39 190.34 38.616 190.596 38.104C190.868 37.608 191.004 36.976 191.004 36.208V34L191.58 34.144C191.484 34.64 191.212 35.112 190.764 35.56C190.332 35.992 189.796 36.344 189.156 36.616C188.516 36.888 187.844 37.024 187.14 37.024C185.972 37.024 184.924 36.752 183.996 36.208C183.084 35.648 182.364 34.888 181.836 33.928C181.308 32.968 181.044 31.864 181.044 30.616C181.044 29.336 181.308 28.2 181.836 27.208C182.364 26.216 183.076 25.44 183.972 24.88C184.884 24.32 185.908 24.04 187.044 24.04C187.524 24.04 187.98 24.096 188.412 24.208C188.86 24.32 189.268 24.48 189.636 24.688C190.02 24.88 190.364 25.096 190.668 25.336C190.972 25.576 191.22 25.84 191.412 26.128C191.604 26.416 191.724 26.704 191.772 26.992L191.052 27.208L191.148 24.304H194.436V36.04C194.436 37.064 194.276 37.976 193.956 38.776C193.652 39.592 193.204 40.272 192.612 40.816C192.036 41.376 191.332 41.8 190.5 42.088C189.668 42.376 188.724 42.52 187.668 42.52ZM187.764 34.264C188.436 34.264 189.02 34.112 189.516 33.808C190.028 33.504 190.42 33.08 190.692 32.536C190.98 31.992 191.124 31.36 191.124 30.64C191.124 29.904 190.98 29.264 190.692 28.72C190.42 28.176 190.028 27.752 189.516 27.448C189.02 27.128 188.436 26.968 187.764 26.968C187.108 26.968 186.532 27.128 186.036 27.448C185.54 27.752 185.148 28.176 184.86 28.72C184.588 29.264 184.452 29.896 184.452 30.616C184.452 31.336 184.588 31.976 184.86 32.536C185.148 33.08 185.54 33.504 186.036 33.808C186.532 34.112 187.108 34.264 187.764 34.264ZM203.822 37.24C202.446 37.24 201.238 36.96 200.198 36.4C199.174 35.84 198.374 35.072 197.798 34.096C197.238 33.12 196.958 32.008 196.958 30.76C196.958 29.768 197.118 28.864 197.438 28.048C197.758 27.216 198.206 26.504 198.782 25.912C199.358 25.32 200.038 24.864 200.822 24.544C201.622 24.208 202.494 24.04 203.438 24.04C204.302 24.04 205.094 24.2 205.814 24.52C206.55 24.824 207.182 25.264 207.71 25.84C208.254 26.4 208.67 27.064 208.958 27.832C209.246 28.6 209.382 29.44 209.366 30.352L209.342 31.408H199.142L198.59 29.296H206.534L206.126 29.728V29.224C206.094 28.776 205.95 28.384 205.694 28.048C205.454 27.712 205.142 27.448 204.758 27.256C204.374 27.048 203.95 26.944 203.486 26.944C202.766 26.944 202.158 27.088 201.662 27.376C201.182 27.648 200.814 28.048 200.558 28.576C200.318 29.088 200.198 29.728 200.198 30.496C200.198 31.248 200.358 31.912 200.678 32.488C200.998 33.048 201.454 33.48 202.046 33.784C202.654 34.088 203.366 34.24 204.182 34.24C204.742 34.24 205.254 34.152 205.718 33.976C206.182 33.8 206.686 33.496 207.23 33.064L208.838 35.344C208.39 35.744 207.886 36.088 207.326 36.376C206.766 36.664 206.19 36.88 205.598 37.024C205.006 37.168 204.414 37.24 203.822 37.24Z" fill="#3062D4"/>
<defs>
<filter id="filter0_f_1731_17" x="0.828125" y="0.542969" width="38.4004" height="52.9062" filterUnits="userSpaceOnUse" color-interpolation-filters="sRGB">
<feFlood flood-opacity="0" result="BackgroundImageFix"/>
<feBlend mode="normal" in="SourceGraphic" in2="BackgroundImageFix" result="shape"/>
<feGaussianBlur stdDeviation="8" result="effect1_foregroundBlur_1731_17"/>
</filter>
</defs>
</svg>
