<svg width="36" height="36" viewBox="0 0 36 36" fill="none" xmlns="http://www.w3.org/2000/svg">
<rect width="36" height="36" rx="18" fill="#D32F2F"/>
<g clip-path="url(#clip0_1521_370)">
<path d="M18.7207 11.6602C14.5645 11.6602 11.1895 15.0352 11.1895 19.1914C11.1895 22.2852 13.0332 24.9102 15.6895 26.0977C15.6895 25.5664 15.6895 24.9414 15.8145 24.3477C15.9707 23.7539 16.7832 20.2539 16.7832 20.2539C16.7832 20.2539 16.5645 19.7852 16.5645 19.0664C16.5645 17.9414 17.1895 17.1289 18.002 17.1289C18.6895 17.1289 19.0332 17.6289 19.0332 18.2539C19.0332 18.9414 18.5957 19.9727 18.3457 20.9102C18.1582 21.7227 18.752 22.3789 19.5645 22.3789C20.9707 22.3789 21.9395 20.5352 21.9395 18.3789C21.9395 16.7227 20.8145 15.4727 18.8145 15.4727C16.5332 15.4727 15.0957 17.1914 15.0957 19.0977C15.0957 19.7539 15.2832 20.1914 15.5957 20.5664C15.7207 20.7227 15.752 20.7852 15.6895 20.9727C15.6582 21.1289 15.5957 21.4414 15.5332 21.5977C15.502 21.7852 15.3457 21.8477 15.1582 21.7852C14.127 21.3477 13.627 20.1914 13.627 18.9102C13.627 16.7539 15.4395 14.1914 19.002 14.1914C21.877 14.1914 23.7832 16.2852 23.7832 18.5039C23.7832 21.4727 22.127 23.6602 19.7207 23.6602C18.9082 23.6602 18.127 23.2227 17.877 22.7227C17.877 22.7227 17.4395 24.4727 17.3457 24.7852C17.1895 25.3789 16.877 25.9727 16.5957 26.4102C17.252 26.5977 17.9707 26.7227 18.7207 26.7227C22.877 26.7227 26.252 23.3477 26.252 19.1914C26.252 15.0352 22.877 11.6602 18.7207 11.6602Z" fill="white"/>
</g>
<defs>
<clipPath id="clip0_1521_370">
<rect width="16" height="16" fill="white" transform="matrix(1 0 0 -1 11.1895 27.1914)"/>
</clipPath>
</defs>
</svg>
