<svg width="50" height="50" viewBox="0 0 50 50" fill="none" xmlns="http://www.w3.org/2000/svg">
<g clip-path="url(#clip0_1455_1464)">
<path d="M25 50C38.8071 50 50 38.8071 50 25C50 11.1929 38.8071 0 25 0C11.1929 0 0 11.1929 0 25C0 38.8071 11.1929 50 25 50Z" fill="#00A6DE"/>
<path d="M37.4498 17.435C36.8589 18.3227 36.1369 19.1157 35.3084 19.787C35.2039 19.8741 35.1202 19.9833 35.0633 20.1068C35.0064 20.2303 34.9777 20.3649 34.9794 20.5008V20.5831C34.9698 22.3658 34.6423 24.1325 34.0123 25.8002C33.3632 27.5506 32.3988 29.1672 31.1669 30.5699C29.5115 32.4545 27.3819 33.8617 24.9992 34.6456C23.4335 35.1537 21.7965 35.408 20.1505 35.3989C17.5391 35.3985 14.9743 34.7074 12.7163 33.3956C12.6354 33.3496 12.5717 33.2784 12.5349 33.1929C12.4981 33.1074 12.4901 33.0123 12.5123 32.9219C12.5351 32.8329 12.587 32.7542 12.6597 32.6981C12.7324 32.6421 12.8218 32.612 12.9136 32.6127H13.5386C15.5232 32.6175 17.4638 32.0287 19.111 30.9219C18.1294 30.7629 17.2106 30.3361 16.4561 29.6883C15.7015 29.0406 15.1405 28.1971 14.8347 27.2508C14.819 27.2034 14.8162 27.1528 14.8265 27.1039C14.8367 27.0551 14.8597 27.0098 14.8931 26.9727C14.9265 26.9356 14.9692 26.9081 15.0167 26.8928C15.0642 26.8775 15.1149 26.8751 15.1636 26.8857C15.463 26.942 15.7669 26.9706 16.0715 26.9712H16.1867C15.2379 26.5353 14.4357 25.834 13.8771 24.9519C13.3184 24.0699 13.0272 23.0449 13.0386 22.0008C13.039 21.952 13.052 21.904 13.0763 21.8617C13.1007 21.8194 13.1356 21.784 13.1777 21.7592C13.2197 21.7344 13.2675 21.7208 13.3164 21.7199C13.3652 21.719 13.4135 21.7308 13.4564 21.7541C13.8423 21.9696 14.2564 22.1301 14.6867 22.2311C13.8362 21.3896 13.2891 20.2896 13.1314 19.1037C12.9736 17.9178 13.214 16.713 13.815 15.6785C13.8377 15.6387 13.8697 15.6051 13.9083 15.5805C13.9469 15.5558 13.9909 15.541 14.0365 15.5371C14.0821 15.5332 14.128 15.5404 14.1702 15.5582C14.2124 15.5759 14.2497 15.6037 14.2788 15.639C15.4669 17.11 16.9383 18.3275 18.6058 19.2192C20.2733 20.1108 22.1029 20.6585 23.986 20.8298H24.0123C24.04 20.829 24.0672 20.8225 24.0923 20.8109C24.1174 20.7992 24.1399 20.7826 24.1583 20.762C24.1768 20.7414 24.1909 20.7172 24.1997 20.691C24.2085 20.6647 24.2119 20.637 24.2097 20.6094C24.1363 19.9492 24.1786 19.2813 24.3347 18.6357C24.5469 17.7581 24.9826 16.9504 25.5994 16.2909C26.2161 15.6315 26.993 15.1429 27.8544 14.8725C28.4071 14.6999 28.9826 14.6112 29.5617 14.6094C30.8746 14.6079 32.1428 15.0864 33.1275 15.9548C33.255 16.0689 33.4201 16.1321 33.5913 16.1324C33.6468 16.1312 33.702 16.1235 33.7557 16.1094C34.681 15.8756 35.5674 15.5088 36.3873 15.0206C36.4364 14.9903 36.4936 14.9759 36.5512 14.9795C36.6087 14.983 36.6638 15.0042 36.7088 15.0402C36.7538 15.0762 36.7866 15.1253 36.8027 15.1806C36.8187 15.236 36.8173 15.295 36.7985 15.3495C36.5248 16.2106 36.037 16.9882 35.3807 17.6094C35.9719 17.4684 36.5489 17.2735 37.1044 17.0271C37.1593 17.006 37.2193 17.0024 37.2763 17.0169C37.3332 17.0315 37.3842 17.0634 37.4222 17.1082C37.4602 17.1531 37.4833 17.2087 37.4882 17.2672C37.4932 17.3258 37.4797 17.3844 37.4498 17.435Z" fill="white"/>
</g>
<defs>
<clipPath id="clip0_1455_1464">
<rect width="50" height="50" fill="white"/>
</clipPath>
</defs>
</svg>
