<?xml version="1.0" encoding="utf-8"?>
<!-- Generator: Adobe Illustrator 27.3.1, SVG Export Plug-In . SVG Version: 6.00 Build 0)  -->
<svg version="1.1" xmlns="http://www.w3.org/2000/svg" xmlns:xlink="http://www.w3.org/1999/xlink" x="0px" y="0px"
	 viewBox="0 0 4578.2 2136.4" style="enable-background:new 0 0 4578.2 2136.4;" xml:space="preserve">
<style type="text/css">
	.st0{fill:#1E4DAD;}
	.st1{fill:#515151;}
	.st2{fill:#919191;}
	.st3{fill:#212121;}
	.st4{fill:#313131;}
	.st5{fill:#FFFFFF;}
	.st6{fill:#B2590F;}
	.st7{fill:#EF7F1A;}
	.st8{fill:#E6B09C;}
	.st9{fill:#FFC4AD;}
	.st10{fill:#B6C2C9;}
	.st11{fill:#879BA6;}
	.st12{fill:#E4EEF3;}
	.st13{fill:#86C0F0;}
	.st14{fill:#E2E2E2;}
	.st15{fill:#DCE5EA;}
	.st16{fill:#B4C0C7;}
	.st17{fill:#D6E3EB;}
	.st18{fill:#8599A4;}
	.st19{fill:#D7DFE2;}
	.st20{fill:#D0DEE6;}
	.st21{fill:#EFFAFF;}
	.st22{fill:#111111;}
	.st23{fill:#414141;}
</style>
<g id="Layer_4">
</g>
<g id="background">
</g>
<g id="Layer_5">
</g>
<g id="dizajn">
	<g>
		<ellipse class="st0" cx="2289.1" cy="1711.8" rx="2289.1" ry="424.6"/>
		<g>
			<g>
				<g>
					<g>
						<path class="st1" d="M2476.6,1293.5l-28.7,43.7l240.7,77.1c0,0,16.1-15.4-43-46.3C2576.8,1332.1,2476.6,1293.5,2476.6,1293.5z
							"/>
						<path class="st1" d="M2433.8,1293.5l28.6,43.7l-240.6,77.1c0,0-16.1-15.4,43-46.3C2333.6,1332.1,2433.8,1293.5,2433.8,1293.5z
							"/>
					</g>
					<rect x="2430.1" y="1163.5" class="st1" width="50.3" height="179.1"/>
					<g>
						<path class="st2" d="M2479.8,1302.7l-24.5,41.7l206,73.6c0,0,13.8-14.7-36.8-44.1C2565.6,1339.5,2479.8,1302.7,2479.8,1302.7z
							"/>
						<path class="st2" d="M2430.6,1302.7l24.5,41.7l-206,73.6c0,0-13.8-14.7,36.8-44.1C2344.8,1339.5,2430.6,1302.7,2430.6,1302.7z
							"/>
					</g>
					<path class="st3" d="M2638,1434.5c0,9.7,7.8,17.5,17.5,17.5c9.7,0,17.5-7.8,17.5-17.5c0-9.6-7.8-17.5-17.5-17.5
						C2645.8,1417,2638,1424.9,2638,1434.5z"/>
					<path class="st3" d="M2238.8,1434.5c0,9.7,7.8,17.5,17.5,17.5c9.7,0,17.5-7.8,17.5-17.5c0-9.6-7.8-17.5-17.5-17.5
						C2246.6,1417,2238.8,1424.9,2238.8,1434.5z"/>
					<path class="st3" d="M2680.3,1434.5c0,9.7,7.8,17.5,17.5,17.5c9.6,0,17.5-7.8,17.5-17.5c0-9.6-7.8-17.5-17.5-17.5
						C2688.1,1417,2680.3,1424.9,2680.3,1434.5z"/>
					<path class="st3" d="M2196.5,1434.5c0,9.7,7.8,17.5,17.5,17.5c9.6,0,17.5-7.8,17.5-17.5c0-9.6-7.8-17.5-17.5-17.5
						C2204.3,1417,2196.5,1424.9,2196.5,1434.5z"/>
				</g>
				<rect x="2437.5" y="1097.9" class="st4" width="36.8" height="64.4"/>
				<path class="st4" d="M2409.9,1063.9c0,19.8,16.1,35.9,35.9,35.9h20.2c19.8,0,35.9-16.1,35.9-35.9l0,0
					c0-19.8-16.1-35.9-35.9-35.9h-20.2C2425.9,1028,2409.9,1044.1,2409.9,1063.9L2409.9,1063.9z"/>
				<path class="st5" d="M2182.5,1031.1c-0.9-4.2-1.4-30.7-1.4-35.3c0-29,18.7-52.4,41.8-52.4h465.9c23.1,0,41.8,23.5,41.8,52.4
					c0,4.6-0.5,31-1.4,35.3H2182.5z"/>
				<path class="st4" d="M2734.9,1045.3c0,8.9-5.2,16-11.6,16h-535c-6.4,0-11.6-7.2-11.6-16l0,0c0-8.9,5.2-16.1,11.6-16.1h535
					C2729.7,1029.2,2734.9,1036.4,2734.9,1045.3L2734.9,1045.3z"/>
			</g>
			<g>
				<path class="st3" d="M2366.1,942c0,0,299.6,0.6,415.3,2.4c80,1.2,87.3-112.9,55.8-130c-95.8-52.1-394.8-78.9-394.8-78.9
					l-203.4,186.8C2238.9,922.1,2250.3,921.8,2366.1,942z"/>
				<path class="st6" d="M2648.6,330.6c0,0,77-21.5,110.6,79c51.4,154.4,46.9,295.9,39.7,326.1c-3.3,13.9-13.2,61.9-99.3,63.7
					c-34.9,0.8-20.9-74-20.9-74s-22.4-63.5-46.2-171C2608.6,446.9,2648.6,330.6,2648.6,330.6z"/>
				<path class="st7" d="M2709.5,339.2L2512,275.3l-149.5-10l-163.9,49.6c0,0-53.6,37-3.8,155.7c49.8,118.8,30.6,304.9,30.6,304.9
					l422.7,13.5c0,0,8-172,36-344.1C2690.3,406.5,2691.1,361.3,2709.5,339.2z"/>
				<path class="st6" d="M2419.6,780.7h21.5c22.5-166.1,21.5-337.5-3.3-503.1c-6.5,3.9-13,7.7-19.5,11.6
					C2423.7,458.6,2414.4,627.9,2419.6,780.7z"/>
				<g>
					<path class="st8" d="M2503.5,321.9c-2.9,22.9-21.6,42.7-41.2,43.6c-18.6,0-37.2,0-55.8,0c-19.6-0.9-38.3-20.7-41.2-43.6
						c-4.6-37.7-9.1-75.3-13.7-113c-3.1-22.6,10.4-67.9,40.1-81.4c27.2-11.9,58.3-11.9,85.5,0c29.7,13.4,43.2,58.8,40.1,81.4
						C2512.7,246.6,2508.1,284.2,2503.5,321.9z"/>
				</g>
				<polygon class="st6" points="2432.2,368.3 2396.7,426.5 2331.8,345.2 2342,302.5 2363,285.1 2363.3,317.3 				"/>
				<polygon class="st6" points="2436.5,368.3 2472,426.5 2532.4,350.8 2522.5,304.4 2507.3,284.8 2501.2,322.8 				"/>
				<g>
					<path d="M2426,55.8c-15.7,0-29.4,8-37.4,20.2h-15.3c-19.1,0-34.6,15.5-34.6,34.6v85.5h24.4v-34.8c0-13.5,10.9-24.4,24.4-24.4
						h14.2H2379h14.9c24.7,0,44.7-20,44.7-44.7V55.8H2426z"/>
					<path class="st8" d="M2382.8,228.1c0,11.7-9.5,21.2-21.2,21.2h-1.8c-11.7,0-21.2-9.5-21.2-21.2v-25.7
						c0-11.7,9.5-21.2,21.2-21.2h1.8c8.7,0,16.1,5.2,19.4,12.6L2382.8,228.1z"/>
					<path d="M2407,89.8v-34h14h37h22.4c24.7,0,44.7,20,44.7,44.7v33.9H2511h-37h-22.3C2427,134.5,2407,114.5,2407,89.8z"/>
					<path class="st9" d="M2518.7,260.6c-0.1,17.8-13.6,47.8-36.2,57.4c-30.6,12.6-66.8,12.6-97.4,0c-22.5-9.5-36-39.6-36.2-57.4
						c0-50.4,0-100.9,0-151.3c-0.1-17.9,17.7-32.9,39.7-33.3c30.1,0,60.1,0,90.2,0c22,0.4,39.9,15.4,39.7,33.3
						C2518.7,159.7,2518.7,210.1,2518.7,260.6z"/>
					<path d="M2451.3,55.8c15.6,0,29.4,8,37.4,20.2h15.3c19.1,0,34.6,15.5,34.6,34.6v85.5h-24.4v-34.8c0-13.5-10.9-24.4-24.4-24.4
						h-0.3h8.6h-39.5c-24.7,0-44.7-20-44.7-44.7V55.8H2451.3z"/>
					<path class="st9" d="M2494.8,202.3c0-11.7,9.5-21.2,21.2-21.2h1.8c11.7,0,21.2,9.5,21.2,21.2v25.8c0,11.7-9.5,21.2-21.2,21.2
						h-1.8c-8.7,0-16.1-5.2-19.4-12.6L2494.8,202.3z"/>
					<path d="M2414.1,98.6c0.6-2.8,0.9-5.8,0.9-8.8v-34h-14h-17.6c-24.7,0-44.7,20-44.7,44.7v33.9h9.3h4.8h17.6c3.1,0,6.2-0.3,9.2-1
						C2382.9,116,2396.6,102.2,2414.1,98.6z"/>
				</g>
				<path class="st7" d="M2021.8,1514.9c-4.6,5.6-1.2,20.3-1.2,20.3s80.6,9,106.6,2.9c6.7-1.6,18.1-7.4,28.9-13.5
					c1.8-1,5-7.2,6.8-8.3c3.3-1.9,4.9,1.3,7.7-0.5c7.2-4.5,12.2-8.1,12.3-8.5c7.1-37-2.3-51.9-2.3-51.9s-68.7-22.8-81.6-6.9
					C2068.6,1485.9,2031.8,1502.6,2021.8,1514.9z"/>
				<path class="st7" d="M2775.6,1474.6l5.6,60.9l61,6c0,0,4.2-8.1,9.4-7.6c4.4,0.4,9.1,9.5,15.1,10c12.8,1.3,27,2.6,32.8,3.2
					c11.4,1.1,122.4,12,122.4,12s4-12.3,1.1-17c-1.5-2.4-11.3-7.3-18-9.9c-30.6-11.9-118.1-48.4-130.8-80
					C2858.5,1413.8,2775.6,1474.6,2775.6,1474.6z"/>
				<g>
					<path class="st9" d="M2683.3,703.3l-206.2,84.2c0,0,146.3,20.9,237.8,2.2C2776.7,777.1,2686.2,700.6,2683.3,703.3z"/>
				</g>
				<path class="st3" d="M2215.2,831.6c0,0-19.8,188.3-17,287.9c2.1,75.1,2.4,219-15.5,341.7c-1.1,7.5-97,1.8-97,1.8
					s-34.4-466.9-44.6-543.8C2030.8,842.4,2060.5,786.9,2215.2,831.6z"/>
				<path class="st4" d="M2818.6,877c0,0-30.9,48.8-115.7,60.4c-30.6,4.2,49.4,546.5,49.4,546.5l125.3-40.1L2853.4,844L2818.6,877z"
					/>
				<path class="st4" d="M2472.9,937.4c0,0-163.8,23.4-273.1,34.8c-40.1,4.2-74.8-108-79.4-112.9c-29.3-30.7-58.1-26.8-57.1-27.9
					c23.7-25.6,146.3-49.3,274.5-79.4c128.1-30.1,147.7-11.1,147.7-11.1L2472.9,937.4z"/>
				<path class="st4" d="M2337.8,752.1c-128.2,30.1-250.8,53.8-274.5,79.4c-1,1.1,27.9-2.8,57.1,27.9c1.3,1.3,8.6,37.3,13.9,50.2
					c-20.9-37.6,280.3-143.8,345.4-171.3C2467.6,734.3,2432.2,729.9,2337.8,752.1z"/>
				<polygon class="st4" points="2197,936 2184.5,1302.5 2172,1387.5 2170.6,1302.5 2173.3,1249.5 2144.1,1167.3 2128.8,976.4 
					2151.1,984.8 2148.3,901.2 				"/>
				<path class="st3" d="M2814.3,831.5l30.7,8.4l11.2,440.3l-64.1,157.5l30.7-107.3l-12.5-221.6c0,0-44.6,107.3-44.6,101.7
					c0-5.6,37.6-232.7,37.6-232.7s-41.8,34.8-37.6,33.4C2769.8,1009.8,2790.6,852.4,2814.3,831.5z"/>
				<path class="st7" d="M2289.1,316.7c0,0-65.8-51.6-130.2,44.2c-94.4,140.3-135.4,289.5-150.4,332.7
					c-11.5,33.1-5.2,126.8,33.4,165.4c9.3,9.3,65,1.9,65,1.9l36.6-25.3l-15.3-29.5l-0.8-23.3c0,0,46.8-112.9,104.3-219.6
					C2289.1,456.5,2289.1,316.7,2289.1,316.7z"/>
				<g>
					<path class="st9" d="M2128.1,745.6l213.8,11.2c0,0-205.9,94.4-212.7,78.2C2090.6,742.7,2128.1,745.6,2128.1,745.6z"/>
					<g>
						<path class="st9" d="M2245.8,739c12.5-6,11.4-6.1,11.4-6.1s11.4,13.6,27.9,16.1c8.2,1.3,34.7,1.6,34.7,1.6l39.4,1l18.3-1
							c0,0,10.3-1.3,13,0.4c8,5.1,1.2,9.2,1.2,9.2l-70.6,10l67.8,8.4c0,0,8.5,2.5,8.9,7.1c0.4,4.3-2.5,4.2-2.5,4.2l-78.7,8.4
							l34.5,8.2c0,0,8.3,2.7,8.9,7.1c0.7,4.9,1,6.2,1,6.2l-72.4-7.1C2288.6,812.8,2233.3,745.1,2245.8,739z"/>
						<path class="st9" d="M2323.9,782.6l47.4,8.6c0,0,10.8,0.8,15.6,4.2c5.5,4,2.3,8.8,2.3,8.8l-72.7-6.1L2323.9,782.6z"/>
					</g>
				</g>
				<g>
					<path class="st10" d="M2621.1,819.9c0.1-0.2,0.2-0.3,0.2-0.4l-0.2-13.5H2200v13.5c0,0-0.1,0.3,0,0.4l1.4,2.5
						c7.2,11.7,20,13.8,34.8,13.8h348.7c14.7,0,27.6-2.1,34.8-13.8L2621.1,819.9z"/>
					<g>
						<rect x="2271.2" y="809.1" class="st11" width="278.8" height="9.5"/>
					</g>
					<g>
						<path class="st12" d="M2620.8,807.5l1.1-276.1c0-7.3-5.8-13.2-13.1-13.2h-394.2c-7.3,0-13.2,5.9-13.2,13.2l-1.1,276.1H2620.8z
							"/>
						<path class="st10" d="M2436.7,662.8c0,14.1-11.5,25.5-25.6,25.5c-14.1,0-25.5-11.4-25.4-25.5c0.1-14.1,11.5-25.5,25.6-25.5
							C2425.4,637.3,2436.8,648.7,2436.7,662.8z"/>
					</g>
				</g>
				<polygon class="st6" points="2100.4,852.4 2085.8,758.7 2110.1,733.6 2164.1,742.3 2153,846 				"/>
				<polygon class="st13" points="2755.8,785.1 2761.4,750.6 2693.1,689.4 2656.2,706 2704.5,798.5 				"/>
			</g>
			<g>
				<g>
					<path class="st4" d="M962.8,1273.5c-14.2,0-36.6-3.3-56.3-20.4c-28.3-24.6-40.5-68.3-36.4-130c2.8-41.6,19.2-83.7,36.5-128.4
						c29.2-75,62.3-160.1,45-272.6l32.1-5c18.6,121.1-17.7,214.4-46.8,289.3c-17.1,44.1-31.9,82.1-34.4,118.7
						c-3.3,50,5.3,85.6,25,103c18.6,16.5,42,12.2,43,12.1l6.5,31.9C976.4,1272.4,971,1273.5,962.8,1273.5z"/>
				</g>
				<g>
					<g>
						<path class="st1" d="M1212,1531.5l31.7,48.3l-266,85.2c0,0-17.8-17,47.5-51.1C1101.2,1574.1,1212,1531.5,1212,1531.5z"/>
						<path class="st1" d="M1259.3,1531.5l-31.7,48.3l265.9,85.2c0,0,17.8-17-47.5-51.1C1370.1,1574.1,1259.3,1531.5,1259.3,1531.5z
							"/>
					</g>
					<rect x="1207.9" y="1387.8" class="st1" width="55.6" height="197.9"/>
					<g>
						<path class="st2" d="M1208.5,1541.6l27.1,46.1l-227.6,81.3c0,0-15.2-16.2,40.6-48.8
							C1113.6,1582.3,1208.5,1541.6,1208.5,1541.6z"/>
						<path class="st2" d="M1262.8,1541.6l-27.1,46.1l227.7,81.3c0,0,15.2-16.2-40.6-48.8
							C1357.7,1582.3,1262.8,1541.6,1262.8,1541.6z"/>
					</g>
					<path class="st3" d="M1033.7,1687.3c0,10.7-8.6,19.3-19.3,19.3c-10.7,0-19.3-8.6-19.3-19.3c0-10.7,8.6-19.3,19.3-19.3
						C1025.1,1668,1033.7,1676.7,1033.7,1687.3z"/>
					<path class="st3" d="M1474.8,1687.3c0,10.7-8.7,19.3-19.3,19.3c-10.7,0-19.3-8.6-19.3-19.3c0-10.7,8.6-19.3,19.3-19.3
						C1466.2,1668,1474.8,1676.7,1474.8,1687.3z"/>
					<path class="st3" d="M987,1687.3c0,10.7-8.6,19.3-19.3,19.3c-10.7,0-19.3-8.6-19.3-19.3c0-10.7,8.6-19.3,19.3-19.3
						C978.3,1668,987,1676.7,987,1687.3z"/>
					<path class="st3" d="M1521.6,1687.3c0,10.7-8.7,19.3-19.3,19.3c-10.6,0-19.3-8.6-19.3-19.3c0-10.7,8.7-19.3,19.3-19.3
						C1512.9,1668,1521.6,1676.7,1521.6,1687.3z"/>
				</g>
				<rect x="1214.6" y="1315.3" class="st4" width="40.7" height="71.2"/>
				<path class="st4" d="M1285.8,1277.7c0,21.9-17.7,39.6-39.6,39.6h-22.4c-21.9,0-39.6-17.7-39.6-39.6l0,0
					c0-21.9,17.8-39.6,39.6-39.6h22.4C1268,1238.1,1285.8,1255.8,1285.8,1277.7L1285.8,1277.7z"/>
				<path class="st5" d="M1537.1,1241.5c1-4.7,1.5-33.9,1.5-39c0-32-20.7-57.9-46.2-57.9H977.5c-25.5,0-46.2,25.9-46.2,57.9
					c0,5,0.6,34.3,1.5,39H1537.1z"/>
				<path class="st4" d="M926.5,1257.2c0,9.8,5.7,17.7,12.8,17.7h591.2c7.1,0,12.8-7.9,12.8-17.7l0,0c0-9.8-5.7-17.7-12.8-17.7
					H939.3C932.3,1239.4,926.5,1247.4,926.5,1257.2L926.5,1257.2z"/>
				<g>
					<path class="st5" d="M955.4,944.2c12.7,0.9,93.4,2.4,107.3,2.5c88.3,1.1,164.4-15.5,168.7-37.3c17.4-90.4,18.2-183.2,2.3-273.6
						c-3.8-21.7-81-38.3-171.2-37.2c-14.2,0.2-96.6,1.6-109.5,2.6C980.6,713.9,981.4,831.4,955.4,944.2z"/>
					<path class="st4" d="M943.2,601.1c-9.9,0.1-16.8,4.8-15.4,10.5c24.6,106,25.5,216,2.8,322.1c-1.2,5.7,5.6,10.4,15.3,10.5l0,0
						c9.7,0.1,18.6-4.4,19.9-10.1c23.1-106.3,22.4-216.6-2.1-322.9C962.3,605.5,953.1,601,943.2,601.1L943.2,601.1z"/>
					<path class="st14" d="M939.3,944c2.6,0.8,20.1,1.5,23.2,1.5c19.2,0.2,39.1-16.7,42.9-38.1c16-89.1,15.6-180.4-1.2-269.4
						c-4-21.4-24.3-38.4-44-38.1c-3.1,0-20.9,0.7-23.6,1.5C964.3,714,965.2,831.4,939.3,944z"/>
				</g>
			</g>
			<g>
				<path class="st15" d="M1111.6,137.9H1068v22.3C1077.8,146.8,1093.6,137.9,1111.6,137.9z"/>
				<path class="st7" d="M1124.4,137.9v61.5c0,29.7-24.1,53.8-53.8,53.8h-2.6v94.8h192.3V137.9H1124.4z"/>
			</g>
			<g>
				<path class="st7" d="M1229.7,272.2c0,0-75.3,26.9-3,242.8c72.3,215.9,120.5,189.7,120.5,189.7l59.8-5.8l114.7-136l-61.7-54
					l-12.5,5c0,0-16-6.6-17.8-21.5c-1.8-14.9-30.8-77-52.7-203.8C1367,230.2,1244.2,266.9,1229.7,272.2z"/>
				<path class="st9" d="M1505.4,565.5c0,0,148.7,76,242.3-71.1c27.8-43.7,15.9,6.6,0.7,54.4c-15.2,47.8-107.6,156.1-212.6,163.3
					c-105,7.3-145.1,1.4-164.7-34.9C1351.4,641,1505.4,565.5,1505.4,565.5z"/>
				<path class="st6" d="M1377.7,531l37.7-24.4l15.6-8.9c4.3,11.2,16.5,16.2,16.5,16.2l-31.4,12.9l-34.3,22l-35.4,42.5L1377.7,531z"
					/>
				<path class="st7" d="M1368.8,892.4l-281.5-6.1l-117-391.8c0,0-53.6-236,46.5-240c145.4-5.7,336.2-3.1,336.2-3.1
					S1451,336.5,1368.8,892.4z"/>
				<path class="st6" d="M1267.7,871.3c11,1.6,22.1,3.2,33.1,4.9c18-205.9-1.1-414.8-56.1-613.8c-9,3-18,6-27,9
					C1269.9,466.3,1286.9,670.5,1267.7,871.3z"/>
				<path class="st3" d="M1832.2,1724.5c0,0-27.4,42.2-41.3,16.3c-42-77.6-79.8-322.8-82.2-423.4c-3.2-134.1-9.3-215.9-9.3-215.9
					l134.9-48.9L1832.2,1724.5z"/>
				<path class="st3" d="M1358.8,889.6l476.2,163l-124.9,69.7c0,0-491.1,86.1-499.9-96.1C1202.9,872.8,1358.8,889.6,1358.8,889.6z"
					/>
				<path class="st4" d="M1663.1,1728.3c0,0-24.7,22.6-38.6-3.3c-42-77.7-110.8-283.9-113.2-384.6c-3.2-134.1,19-227.4,19-227.4
					l137.9-47.9L1663.1,1728.3z"/>
				<path class="st4" d="M1211.2,894.8l454,171.3l-124.4,67.7c0,0-460.8,86.1-469.7-96.1C1062.3,855.4,1211.2,894.8,1211.2,894.8z"
					/>
				<path class="st4" d="M1063.1,1047.9c-1.2,12.6,6.2,54.5,20.1,71.3c43,51.9,144.8,34.5,226,34.5c4.5,0,27.1-63.3,27.1-63.3
					l33.9-207.2l-284.7,4.8C1085.5,888.1,1072.9,943.4,1063.1,1047.9z"/>
				<path class="st9" d="M1525.6,762.6l104.2-18.7c0,0,16.2-1.7,17,9.5c1,14.8-1.7,63.1-1.7,63.1l-18.7-11.6l-26.9,16.4l-31.1-41.2
					c0,0-16.1,3.1-29.5-0.3C1534.4,778.7,1525.6,762.6,1525.6,762.6z"/>
				<path class="st9" d="M1269.8,733.1l275.9,30.6c0,0-148,75.6-215.8,76.1c-67.8,0.5-131.4-15.1-131.4-15.1L1269.8,733.1z"/>
				<path class="st6" d="M1133.7,447l137.9,260.9l-7.9,21.2l21.2,3.9l-64.4,102.5l-101-23L937.7,452.4c0,0-38.3-108.7,48.5-191.7
					C1029.5,219.3,1121.5,426.1,1133.7,447z"/>
				<path class="st6" d="M1168.8,796.9c0,0,65.3-49.9,98.4-77.1l-3.4,9.2l21.2,3.9l-22.5,35.2l-39.1,45.5l-22.4-8.2l8.5-16
					L1168.8,796.9z"/>
				<g>
					<g>
						<path d="M1255.6,72.4c0,18.8-15.3,34.1-34.1,34.1h-128.8c-18.8,0-34.1-15.3-34.1-34.1l0,0c0-18.8,15.3-34.1,34.1-34.1h128.8
							C1240.4,38.3,1255.6,53.5,1255.6,72.4L1255.6,72.4z"/>
						<path d="M1232,131.5c0,34.8-28.2,63-63,63h-67.2c-34.8,0-63-28.2-63-63l0,0c0-34.8,28.2-63,63-63h67.2
							C1203.8,68.5,1232,96.7,1232,131.5L1232,131.5z"/>
						<path class="st9" d="M1282.6,232.4V35.4c0-31.4-25.4,0-56.8,0h-30.3c-31.4,0-56.9,25.5-56.9,56.8v140.2H1282.6z"/>
						<path class="st9" d="M1163.7,136.2c0,13.8-11.2,25-25,25l0,0c-13.8,0-25-11.2-25-25l0,0c0-13.8,11.2-25,25-25l0,0
							C1152.5,111.2,1163.7,122.4,1163.7,136.2L1163.7,136.2z"/>
						<path class="st9" d="M1266.1,170.7c0,8,6.3,14.5,14,14.5h11.6c7.7,0,14-6.5,14-14.5c0,0-25.5-74.8-33.3-74.8
							c0,0-6.3,6.5-6.3,14.5V170.7z"/>
						<path d="M1203,221.7c-56.9,0-62.8-17.4-64.4-37.4c0,0-15.2,49.9-15.2,66v17.9c0,34.7,35.6,62.7,79.6,62.7h79.6v-88.4v-20.9
							H1203z"/>
						<path d="M1282.6,185.1h-45.5c-20.9,0-37.9,17-37.9,37.9c0,3.3,0.6,6.4,1.3,9.5h82V185.1z"/>
						<path class="st9" d="M1223.9,224.8v12.6c0,3.5,2.8,6.3,6.3,6.3h36.8c3.5,0,6.3-2.8,6.3-6.3v-12.6H1223.9z"/>
						<path d="M1263,0.4h-116.6c-12.6,0-22.7,10.2-22.7,22.7v45.5H1263V0.4z"/>
						<path d="M1335.2,34.3c0,19-15.4,34.4-34.3,34.4H1222c-19,0-34.3-15.4-34.3-34.4l0,0c0-19,15.4-34.3,34.3-34.3h78.9
							C1319.9,0,1335.2,15.4,1335.2,34.3L1335.2,34.3z"/>
					</g>
					<rect x="1137.2" y="52.2" width="31.5" height="82.9"/>
					<rect x="1147" y="16.5" width="92.7" height="97.6"/>
					<path class="st9" d="M1168.8,115.4c0-25.9,21-46.9,46.9-46.9h24.2c25.9,0,39.8,21,39.8,46.9l0,0c0,25.9-21,46.9-46.9,46.9
						h-17.1C1189.7,162.3,1168.8,141.4,1168.8,115.4L1168.8,115.4z"/>
				</g>
				<g>
					<path class="st9" d="M1736.3,545.5c0,0-22.4-53.6-14.4-68.2c8-14.5,40.9-65.8,40.9-65.8l9.7-12.3c0,0,19.6,2.9-2.9,37.2
						c-22.5,34.2-2.3,23.4-2.3,23.4l32.3-23.3l41.9-25.6l17.1-13.7c0,0,9.1-8.5,13-8.7c11.3-0.5,7.5,8.2,7.5,8.2l-61.9,58.7l72-38.9
						c0,0,10-3.5,13.6,0.8c3.4,4,0.5,5.8,0.5,5.8l-71,62.9l39.4-15.9c0,0,9.9-3.1,13.7,0.8c4,4.3,5.3,5.4,5.3,5.4l-144.8,81.1
						L1736.3,545.5z"/>
					<path class="st9" d="M1828.6,465.7l52.3-24.4c0,0,11.1-6.8,18.2-6.7c8.2,0.1,8.4,7.1,8.4,7.1l-75.2,44.5L1828.6,465.7z"/>
				</g>
				<path class="st7" d="M1707.3,1770c2.4,4,0.5,14.6,0.5,14.6s-42.5,7-56.2,2.8c-3.5-1.1-9.5-5.2-15.1-9.5
					c-0.9-0.7-2.6-5.1-3.5-5.9c-1.7-1.4-2.6,0.9-4.1-0.3c-3.7-3.2-6.4-5.7-6.4-6c-3.5-26.5,1.6-37.3,1.6-37.3s36.3-16.9,43-5.5
					C1682.8,1749.6,1702.1,1761.3,1707.3,1770z"/>
				<path class="st7" d="M1786.3,1736.5l6.1,38.5h32.2c0,0,1.8-5.4,4.5-5.4c2.3,0,5.3,5.4,8.4,5.4c6.8,0,14.3,0,17.3,0
					c6,0,64.6,0,64.6,0s1.5-8.1-0.3-10.9c-0.9-1.4-6.3-3.9-9.9-5.1c-16.6-5.7-67-18.1-78.2-36
					C1822.3,1709.2,1786.3,1736.5,1786.3,1736.5z"/>
			</g>
			<g>
				<path class="st16" d="M1529.5,819.3c-0.1-0.2-0.2-0.3-0.2-0.4l0.2-13.5h559.2v13.5c0,0,0.1,0.3,0,0.4l-1.4,2.5
					c-7.2,11.7-20.1,13.8-34.8,13.8h-486.6c-14.8,0-27.7-2.1-34.9-13.8L1529.5,819.3z"/>
				<path class="st17" d="M1664.3,821.6c0,0,0.1,0.2,0,0.4l-1.4,2c-2.2,3-5,5.3-8.2,6.9h-85c-14.2,0-26.6-1.7-33.5-11.2l-1.3-2.1
					c-0.1-0.1-0.2-0.2-0.2-0.3l0.1-6.7h129.6V821.6z"/>
				<g>
					<rect x="1739.8" y="808.5" class="st18" width="279.4" height="9.5"/>
				</g>
				<g>
					<path class="st19" d="M1667.4,804.9l72.5-274.8c1.9-7.3,9.3-13.1,16.6-13.1h392.3c7.2,0,11.6,5.9,9.6,13.1L2086,804.9H1667.4z"
						/>
					<path class="st16" d="M1889.3,660.9c-3.7,14,4.7,25.4,18.7,25.4c14,0,28.4-11.4,32.1-25.4c3.7-14-4.7-25.4-18.7-25.4
						C1907.3,635.5,1893,646.9,1889.3,660.9z"/>
				</g>
			</g>
			<g>
				<g>
					<path class="st4" d="M3646.1,1287.2c12.8,0,33.1-2.9,50.9-18.4c25.6-22.3,36.7-61.8,32.9-117.6c-2.5-37.7-17.3-75.8-33-116.2
						c-26.4-67.9-56.3-144.9-40.7-246.7l-29.1-4.5c-16.8,109.6,16,194,42.3,261.8c15.5,39.9,28.9,74.3,31.1,107.4
						c3,45.2-4.8,77.5-22.6,93.2c-16.9,14.9-38,11.1-38.9,10.9l-5.9,28.8C3633.7,1286.2,3638.6,1287.2,3646.1,1287.2z"/>
				</g>
				<g>
					<g>
						<path class="st1" d="M3420.5,1520.7l-28.7,43.7l240.7,77.1c0,0,16.1-15.4-43-46.3C3520.8,1559.2,3420.5,1520.7,3420.5,1520.7z
							"/>
						<path class="st1" d="M3377.8,1520.7l28.6,43.7l-240.6,77.1c0,0-16.1-15.4,43-46.3C3277.5,1559.2,3377.8,1520.7,3377.8,1520.7z
							"/>
					</g>
					<rect x="3374" y="1390.7" class="st1" width="50.3" height="179"/>
					<g>
						<path class="st2" d="M3423.7,1529.9l-24.5,41.7l206,73.6c0,0,13.8-14.7-36.8-44.1C3509.6,1566.7,3423.7,1529.9,3423.7,1529.9z
							"/>
						<path class="st2" d="M3374.5,1529.9l24.5,41.7l-206,73.6c0,0-13.7-14.7,36.8-44.1C3288.7,1566.7,3374.5,1529.9,3374.5,1529.9z
							"/>
					</g>
					<path class="st3" d="M3581.9,1661.7c0,9.7,7.8,17.5,17.5,17.5c9.6,0,17.5-7.8,17.5-17.5c0-9.6-7.8-17.5-17.5-17.5
						C3589.7,1644.2,3581.9,1652,3581.9,1661.7z"/>
					<path class="st3" d="M3182.7,1661.7c0,9.7,7.8,17.5,17.5,17.5s17.5-7.8,17.5-17.5c0-9.6-7.8-17.5-17.5-17.5
						S3182.7,1652,3182.7,1661.7z"/>
					<path class="st3" d="M3624.2,1661.7c0,9.7,7.8,17.5,17.5,17.5c9.6,0,17.5-7.8,17.5-17.5c0-9.6-7.8-17.5-17.5-17.5
						C3632,1644.2,3624.2,1652,3624.2,1661.7z"/>
					<path class="st3" d="M3140.4,1661.7c0,9.7,7.8,17.5,17.5,17.5c9.6,0,17.5-7.8,17.5-17.5c0-9.6-7.8-17.5-17.5-17.5
						C3148.2,1644.2,3140.4,1652,3140.4,1661.7z"/>
				</g>
				<rect x="3381.4" y="1325.1" class="st4" width="36.8" height="64.4"/>
				<path class="st4" d="M3353.8,1291c0,19.8,16.1,35.9,35.9,35.9h20.2c19.8,0,35.9-16.1,35.9-35.9l0,0c0-19.8-16.1-35.9-35.9-35.9
					h-20.2C3369.9,1255.2,3353.8,1271.2,3353.8,1291L3353.8,1291z"/>
				<path class="st5" d="M3126.4,1258.2c-0.9-4.2-1.4-30.7-1.4-35.2c0-29,18.7-52.4,41.8-52.4h465.9c23.1,0,41.8,23.5,41.8,52.4
					c0,4.5-0.5,31-1.4,35.2H3126.4z"/>
				<path class="st4" d="M3678.8,1272.5c0,8.9-5.2,16-11.6,16h-535c-6.4,0-11.6-7.2-11.6-16l0,0c0-8.9,5.2-16.1,11.6-16.1h535
					C3673.7,1256.4,3678.8,1263.6,3678.8,1272.5L3678.8,1272.5z"/>
				<g>
					<path class="st5" d="M3652.8,989.2c-11.5,0.9-84.5,2.1-97.1,2.3c-79.9,1-148.8-14-152.6-33.7c-15.8-81.8-16.5-165.7-2.1-247.6
						c3.4-19.7,73.3-34.7,154.9-33.7c12.9,0.1,87.4,1.4,99.1,2.3C3629.9,780.8,3629.2,887.2,3652.8,989.2z"/>
					<path class="st4" d="M3663.8,678.8c8.9,0.1,15.2,4.4,13.9,9.5c-22.3,96-23.1,195.5-2.5,291.5c1.1,5.2-5.1,9.4-13.8,9.5l0,0
						c-8.8,0.1-16.9-4-18-9.1c-20.9-96.2-20.2-196,1.9-292.2C3646.5,682.8,3654.8,678.7,3663.8,678.8L3663.8,678.8z"/>
					<path class="st14" d="M3667.3,989.1c-2.4,0.8-18.2,1.4-21,1.4c-17.4,0.2-35.4-15.2-38.8-34.5c-14.5-80.6-14.1-163.2,1.1-243.8
						c3.6-19.4,22-34.7,39.8-34.5c2.8,0,18.9,0.7,21.4,1.4C3644.7,780.9,3643.9,887.1,3667.3,989.1z"/>
				</g>
			</g>
			<g>
				<g>
					<g>
						<g>
							<path class="st8" d="M3182.5,755.9c0,0-0.6,20.4-99.3,20.4c-98.7,0.1-243.8-24.2-243.8-24.2l227.8-21.5
								C3067.2,730.6,3154.7,726.6,3182.5,755.9z"/>
							<path class="st8" d="M2917.1,759.3c-46.9,1.5-66.4,25.6-84.7,33.5c-18.4,7.9-36.7,19.6-36.6,19.4c9.8-20.4,25-21.5,32.4-28.2
								c7.4-6.7,5.5-3.4-11.2-4.1c-9.5-0.4-25.7,16.9-37.5,26.6c-10.2,8.3-16.7,9.2-16.7,9.2s11.6-17.3,26.7-31.4
								c18.2-17,40.9-31.6,46.3-33.9c9.9-4.2,41.3-6.3,63.7-4.1C2924.8,748.9,2951,758.3,2917.1,759.3z"/>
							<path class="st8" d="M2838.3,751.2c0,0-35.7,10.3-41.8,15.2c-4.3,3.4-22,23.3-22,23.3s13.4-2.6,20.9-10.1
								C2802.9,772.1,2838.3,751.2,2838.3,751.2z"/>
						</g>
						<path class="st7" d="M3137.8,714.5c0,0,91.1,2.6,86.7,56.7c-2.5,30.7-22.9,42.1-50.4,40.8c-51.2-2.4-109.2-7.8-109.2-7.8
							l-28.7-82.9L3137.8,714.5z"/>
					</g>
					<path class="st7" d="M3157.1,721.3l79.4-280.5c0,0,11.7-41.1,33.6-34.2c31.6,9.9,17.3,43.7,15.2,63.5
						c-4.2,40.4,0.1,57.7-25.3,155.6c-15.7,60.3-28.6,129.7-42.7,169.5c-9.7,27.4-29.2-10.7-57-20.6
						C3108.3,756.3,3157.1,721.3,3157.1,721.3z"/>
				</g>
				<path d="M3311.2,350.3c13.7,61.1,75.3,99.2,137.7,85.2c62.3-14,101.8-74.8,88.1-135.8c-13.7-61-75.3-99.2-137.7-85.2
					C3337,228.5,3297.6,289.3,3311.2,350.3z"/>
				<path d="M3204.7,287.6c10.5,46.9,57,76.4,103.9,65.9l12.2-45.1c46.9-10.5,76.4-57,65.9-103.9l-7.1-31.8
					c-10.5-46.9-57-76.4-103.9-65.9l-21.2,4.8c-46.9,10.5-76.4,57-65.9,103.9L3204.7,287.6z"/>
				<path class="st9" d="M3210.7,155.2c1.8,7.8,4.3,15.6,7.4,23.5c20.8,52.6,63.2,86.6,100.6,83.6c6.7,24.4,16.6,45.5,26.8,63.1
					c11.6,20,41.8,37.1,41.8,37.1c14.7,36.7-132.2,159.6-138.5,156.4c-13.3-6.8,10.6-95.1,34.6-122.4c11.3-12.8,22.8-27.9,23-36.6
					c0.8-30.3-8.8-36.7-23.4-50.6c-25.6-19.3-54.9-12.4-54.9-12.4c-2.8,0.6-5.6,0-7.9-1.5c-3-5.2-5.3-11-6.6-17.2l-15.7-70
					C3193.5,188.6,3198.9,169.4,3210.7,155.2z"/>
				<path class="st4" d="M3363,936c0,0-37.6,34.1-48.2,37.1c-14.2,4-53.8-13.1-53.8-13.1s10.9-176.7,6.9-246.7
					c-4.1-70-20.5-90.3-18.6-111.9c3-34.6-25-52.2-16.7-78.6c8.3-26.4,29.1-121.1,30.6-107.9c12.2,112,55.2,25.6,63.8,12.1
					C3331.5,419.5,3363,936,3363,936z"/>
				<path class="st7" d="M3284.4,384.8c0,0-49.8,36.5-49.1,53.4c0.7,16.9-25.7,66.7-15,141.6c12.2,85.5,16.8,143,14.3,197.6
					c-2.5,54.6-27.7,101.9-28.5,169c-0.7,52.6,11.4,57.3,11.4,57.3s23.2,8.6,42.7-9.4c19.5-18,16.1-198.1,13.1-243.4
					c-3-45.3-17.1-152.1-20.4-183.3c-4.1-38.7,2.1-76.5,4.1-87.6c6.9-38.3,15.2-61.8,20.9-75.9c1-2.4,13.9-12.8,14.8-14.7
					C3296.1,381.2,3288.4,380.2,3284.4,384.8z"/>
				<path class="st7" d="M3297.6,366.5c0,0,10.4-2.1,1.5,9.7c-4.8,6.4-5.1,12.2-5.1,12.2s-4.5-4.7-11.2,2
					c-6.1,6.1-15.8,13.7-15.8,13.7s6.3-17.6,7.6-18.8C3279.8,380.8,3297.6,366.5,3297.6,366.5z"/>
				<path d="M3344.2,504.2c14.3,63.8,78.7,103.6,143.8,89c65.1-14.6,106.3-78.1,92-141.9c-14.3-63.8-78.7-103.6-143.8-89
					C3371.1,376.9,3329.9,440.4,3344.2,504.2z"/>
				<polygon class="st9" points="3095.6,1540.6 3118.2,1713.8 3020.5,1758.7 2966.3,1770.1 3062.5,1698.3 3031,1541.9 				"/>
				<path class="st7" d="M3124.6,1740l-21.2,5.5l-14.2-12.8l-78,37.9l-69.2,15.8c0,0-0.8-5.4,1.5-8.4c8.7-10.9,57.2-35.4,57.2-35.4
					s0.8,16.1,7.7,16.5c6.9,0.5,66.7-29.9,80.5-38.3c23.8-14.6,28.3-23.6,30.1-22.5C3123.6,1701.4,3124.6,1740,3124.6,1740z"/>
				<polygon class="st9" points="2859.8,1299.6 2782.3,1447.2 2674.9,1442 2621.6,1427.1 2740.1,1407.8 2804.8,1281.6 				"/>
				<path class="st7" d="M2775.9,1473.4l-21.3-4.9l-6.7-17.9l-96.2-1.4l-57.5-13c0,0,6.9-7.5,11.2-9.2c12.8-5.2,58.2-7.8,58.2-7.8
					s-4.8,12.6,1.1,16.2c5.9,3.6,72,5.7,88.2,4.6c27.8-1.9,35.9-7.9,37.1-6C2792.8,1438.7,2775.9,1473.4,2775.9,1473.4z"/>
				<path class="st3" d="M3426.7,858l-57.9,25.2l-25.2,75.5l-372.4-61.3c0,0-37.9-11.7-62.1,48.2
					c-34.4,85.3-121.9,350.4-121.9,350.4l55.4,57.9l173.7-299.6c0,0,355.9,166.9,473.3,130.9c45-13.8,79.4-93.4,73-173.7
					c-5-62.9-17.6-120.8-17.6-120.8L3426.7,858z"/>
				<path class="st4" d="M3376.4,1183.3l-284.8-20.5l24.5,439.5l-84,2.7l-62-514.7c0,0,16.7-76.6,71.1-65
					C3095.6,1036.7,3227.2,1137.6,3376.4,1183.3z"/>
				<path class="st7" d="M3340.4,969.5c0,0-6.9-178.8-12.1-263.6c-5.2-84.8-4.1-248.5-5.2-268.8c-1.1-20.4,4.5-49.2,4.5-49.2
					s25.8-43.9,54.5-40.1c25.3,3.4,64.2,38.5,88.6,54.8c23.9,15.9,21.2,314.9,22.4,329.9c4.3,54.3,36.7,107.9,61.1,160.1
					c15.6,33.4,19.3,86.3,19.3,86.3S3428.4,951.1,3340.4,969.5z"/>
				<polygon class="st7" points="3373.1,333.9 3352.7,354 3323.9,384.9 3338.5,419.5 3389.3,348.3 				"/>
				<g>
					<path class="st9" d="M3412.1,801.1c0,0-3.1,21.8-120.2,8.9c-117.1-12.9-286.1-58.2-286.1-58.2l272.7,6.8
						C3278.5,758.6,3382.7,765.8,3412.1,801.1z"/>
					<path class="st9" d="M3097.1,769.8c-55.8-4.6-81.7,18.9-104.4,25c-22.7,6.1-45.9,16.3-45.7,16.1c14.1-20.7,32.2-19.8,41.7-26.1
						c9.6-6.3,6.9-3-12.8-5.9c-11.2-1.7-32.5,14.8-47.6,23.7c-13,7.7-20.9,7.7-20.9,7.7s15.8-17.1,35.4-30.4
						c23.6-16,52.2-28.6,58.9-30.4c12.2-3.3,49.7-1.4,76,4.1C3107.5,759.5,3137.3,773.1,3097.1,769.8z"/>
					<path class="st9" d="M3004.6,750.6c0,0-43.5,6.4-51.4,10.9c-5.5,3.1-28.9,22.2-28.9,22.2s16.1-1.1,26-8.2
						C2960.1,768.4,3004.6,750.6,3004.6,750.6z"/>
				</g>
				<path class="st7" d="M3364,750.6l13-276.7c0,0,14.9-58,36.7-71.3c25.8-15.8,61.2,13.5,61.2,13.5s18.2,43.2,6,247.2
					c-8.2,136.5-20.7,207.1-85.4,197.1c-60.4-9.3-128.6-22.8-128.6-22.8l-24.2-93.1L3364,750.6z"/>
			</g>
			<g>
				<path class="st20" d="M3131.3,819.3c0.1-0.1,0.2-0.3,0.2-0.4l-0.2-13.7h-568.2v13.7c0,0-0.1,0.3,0,0.4l1.5,2.6
					c7.3,11.9,20.4,14,35.4,14h494.5c15,0,28.1-2.1,35.4-14L3131.3,819.3z"/>
				<path class="st10" d="M2994.4,821.6c0,0-0.1,0.2,0,0.4l1.4,2.1c2.2,3.1,5.1,5.3,8.3,7h86.4c14.4,0,27-1.7,34.1-11.3l1.4-2.1
					c0.1-0.1,0.2-0.2,0.3-0.3l-0.1-6.8h-131.7V821.6z"/>
				<g>
					<rect x="2633.7" y="808.3" class="st10" width="283.9" height="9.7"/>
				</g>
				<g>
					<path class="st21" d="M2991.2,804.6l-73.7-279.2c-2-7.4-9.5-13.3-16.8-13.3H2502c-7.4,0-11.8,6-9.8,13.3l73.7,279.2H2991.2z"/>
					<path class="st10" d="M2765.8,658.4c3.8,14.2-4.7,25.8-19,25.8c-14.2,0-28.8-11.6-32.6-25.8c-3.8-14.3,4.7-25.9,19-25.9
						C2747.4,632.5,2762,644.1,2765.8,658.4z"/>
				</g>
			</g>
			<g>
				<g>
					<polygon class="st22" points="1374.1,1795.1 1432.3,1795.1 1336.3,865.7 1252,865.7 					"/>
					<polygon class="st23" points="1257.6,908.5 1370.5,1195.4 1338.5,886.7 1336.3,865.7 1262.6,865.7 					"/>
				</g>
				<polygon class="st22" points="763.5,1795.1 705.3,1795.1 801.3,865.7 885.6,865.7 				"/>
				<polygon class="st23" points="880,908.5 843,1190 799.1,886.7 801.3,865.7 875,865.7 				"/>
				<polygon class="st22" points="3238.9,1795.1 3180.8,1795.1 3276.7,865.7 3361,865.7 				"/>
				<polygon class="st23" points="3355.4,908.5 3318.4,1190 3274.5,886.7 3276.7,865.7 3350.4,865.7 				"/>
				<polygon class="st22" points="3849.5,1795.1 3907.7,1795.1 3811.7,865.7 3727.4,865.7 				"/>
				<polygon class="st23" points="3733,908.5 3845.9,1195.4 3813.9,886.7 3811.7,865.7 3738,865.7 				"/>
				<rect x="2106.6" y="835.5" class="st4" width="1786.6" height="54.3"/>
				<rect x="732" y="835.5" class="st3" width="2492.4" height="54.3"/>
			</g>
		</g>
	</g>
</g>
</svg>
