<svg width="50" height="50" viewBox="0 0 50 50" fill="none" xmlns="http://www.w3.org/2000/svg">
<g clip-path="url(#clip0_1455_1485)">
<path d="M25 50C38.8071 50 50 38.8071 50 25C50 11.1929 38.8071 0 25 0C11.1929 0 0 11.1929 0 25C0 38.8071 11.1929 50 25 50Z" fill="#2AA81A"/>
<path d="M33.8192 16.1818C31.7389 14.0779 28.975 12.7871 26.0264 12.5425C23.0778 12.2978 20.1389 13.1154 17.7403 14.8477C15.3417 16.5799 13.6415 19.1126 12.9465 21.9886C12.2516 24.8645 12.6078 27.8941 13.9508 30.5305L12.635 36.9186C12.6209 36.9824 12.6204 37.0485 12.6334 37.1125C12.6465 37.1765 12.6728 37.2371 12.7107 37.2903C12.765 37.3709 12.8426 37.433 12.9331 37.4683C13.0236 37.5035 13.1228 37.5103 13.2173 37.4877L19.4673 36.0042C22.0964 37.312 25.1043 37.6444 27.9555 36.9423C30.8068 36.2402 33.3164 34.5492 35.0377 32.1702C36.759 29.7912 37.5802 26.8785 37.3553 23.9508C37.1304 21.023 35.8738 18.27 33.8094 16.1818H33.8192ZM31.8653 31.764C30.4265 33.2002 28.5739 34.1494 26.5677 34.478C24.5616 34.8067 22.5029 34.4983 20.6811 33.5963L19.8061 33.1621L15.9673 34.07V34.0206L16.7765 30.1489L16.3488 29.3068C15.4173 27.48 15.0884 25.4052 15.4093 23.3799C15.7302 21.3546 16.6844 19.4831 18.135 18.0338C19.9564 16.2143 22.4256 15.1922 25.0002 15.1922C27.5747 15.1922 30.0439 16.2143 31.8653 18.0338L31.908 18.093C33.7058 19.9183 34.7093 22.38 34.7001 24.942C34.6909 27.5039 33.6696 29.9583 31.8587 31.7706L31.8653 31.764Z" fill="white"/>
<path d="M31.5272 28.9482C31.0568 29.6883 30.3101 30.5929 29.3792 30.8199C27.7344 31.2146 25.2312 30.8199 22.0963 27.9219L22.0568 27.8857C19.3298 25.3396 18.6062 23.2179 18.7673 21.537C18.8627 20.5797 19.6588 19.7179 20.3298 19.1521C20.4365 19.0622 20.5628 18.9984 20.6985 18.9659C20.8342 18.9335 20.9757 18.9332 21.1115 18.9652C21.2474 18.9972 21.3739 19.0605 21.4809 19.15C21.5879 19.2396 21.6725 19.353 21.7279 19.4811L22.7377 21.764C22.8037 21.9109 22.8284 22.073 22.8093 22.2329C22.7901 22.3929 22.7279 22.5446 22.6292 22.6718L22.116 23.3297C22.0094 23.4663 21.9458 23.6316 21.9335 23.8044C21.9212 23.9773 21.9607 24.1498 22.0469 24.3001C22.5344 25.0186 23.1176 25.6671 23.7805 26.2278C24.4937 26.9141 25.3025 27.4936 26.1818 27.9482C26.3423 28.0128 26.5184 28.0283 26.6877 27.9926C26.857 27.9568 27.0118 27.8715 27.1325 27.7475L27.7213 27.1488C27.8333 27.0283 27.9765 26.9412 28.135 26.8971C28.2935 26.853 28.4611 26.8536 28.6193 26.8988L31.0206 27.5863C31.1567 27.625 31.2817 27.6952 31.3856 27.7913C31.4895 27.8873 31.5694 28.0064 31.6187 28.139C31.668 28.2716 31.6854 28.4139 31.6695 28.5545C31.6537 28.6951 31.6049 28.8299 31.5272 28.9482Z" fill="white"/>
</g>
<defs>
<clipPath id="clip0_1455_1485">
<rect width="50" height="50" fill="white"/>
</clipPath>
</defs>
</svg>
